<svg width="512" height="512" viewBox="0 0 512 512" fill="none" xmlns="http://www.w3.org/2000/svg">
<g clip-path="url(#clip0_3022_23)">
<path d="M496.995 482H480.995V227.006C480.995 220.549 476.864 214.818 470.738 212.776L300.999 156.196V105.009C300.999 98.7559 297.121 93.1589 291.266 90.9639L51.2719 0.965921C41.4759 -2.70708 31.0049 4.54592 31.0049 15.0109V482.001H15.0049C6.72088 482.001 0.00488281 488.717 0.00488281 497.001C0.00488281 505.285 6.72088 512.001 15.0049 512.001C18.3739 512.001 490.495 512.001 496.995 512.001C505.279 512.001 511.995 505.285 511.995 497.001C511.995 488.717 505.279 482 496.995 482ZM151.002 482H121.003V422.001H151.002V482ZM211.001 482H181.002V422.001H211.001V482ZM271 167.007V482H241.001V407.002C241.001 398.718 234.285 392.002 226.001 392.002H106.003C97.7189 392.002 91.0029 398.718 91.0029 407.002V482H61.0039V36.6549L271 115.403V167.007ZM390.997 482H360.998V422.001H390.997V482ZM450.996 482H420.997V407.002C420.997 398.718 414.281 392.002 405.997 392.002H345.998C337.714 392.002 330.998 398.718 330.998 407.002V482H300.999V187.818L450.996 237.817V482Z" fill="#71CF92"/>
<path d="M136.003 332.003H106.004C97.7199 332.003 91.0039 338.719 91.0039 347.003C91.0039 355.287 97.7189 362.003 106.004 362.003H136.003C144.287 362.003 151.003 355.287 151.003 347.003C151.003 338.719 144.287 332.003 136.003 332.003Z" fill="#71CF92"/>
<path d="M226.001 332.003H196.002C187.718 332.003 181.002 338.719 181.002 347.003C181.002 355.287 187.717 362.003 196.002 362.003H226.001C234.285 362.003 241.001 355.287 241.001 347.003C241.001 338.719 234.285 332.003 226.001 332.003Z" fill="#71CF92"/>
<path d="M136.003 272.005H106.004C97.7199 272.005 91.0039 278.721 91.0039 287.005C91.0039 295.289 97.7189 302.005 106.004 302.005H136.003C144.287 302.005 151.003 295.289 151.003 287.005C151.003 278.721 144.287 272.005 136.003 272.005Z" fill="#71CF92"/>
<path d="M226.001 272.005H196.002C187.718 272.005 181.002 278.721 181.002 287.005C181.002 295.289 187.717 302.005 196.002 302.005H226.001C234.285 302.005 241.001 295.289 241.001 287.005C241.001 278.721 234.285 272.005 226.001 272.005Z" fill="#71CF92"/>
<path d="M405.997 332.003H345.998C337.714 332.003 330.998 338.719 330.998 347.003C330.998 355.287 337.713 362.003 345.998 362.003H405.997C414.281 362.003 420.997 355.287 420.997 347.003C420.997 338.719 414.281 332.003 405.997 332.003Z" fill="#71CF92"/>
<path d="M405.997 272.005H345.998C337.714 272.005 330.998 278.721 330.998 287.005C330.998 295.289 337.713 302.005 345.998 302.005H405.997C414.281 302.005 420.997 295.289 420.997 287.005C420.997 278.721 414.281 272.005 405.997 272.005Z" fill="#71CF92"/>
<path d="M136.003 212.006H106.004C97.7199 212.006 91.0039 218.722 91.0039 227.006C91.0039 235.29 97.7189 242.006 106.004 242.006H136.003C144.287 242.006 151.003 235.29 151.003 227.006C151.002 218.722 144.287 212.006 136.003 212.006Z" fill="#71CF92"/>
<path d="M226.001 212.006H196.002C187.718 212.006 181.002 218.722 181.002 227.006C181.002 235.29 187.717 242.006 196.002 242.006H226.001C234.285 242.006 241.001 235.29 241.001 227.006C241.001 218.722 234.285 212.006 226.001 212.006Z" fill="#71CF92"/>
<path d="M136.003 152.007H106.004C97.7199 152.007 91.0039 158.723 91.0039 167.007C91.0039 175.291 97.7189 182.007 106.004 182.007H136.003C144.287 182.007 151.003 175.291 151.003 167.007C151.002 158.723 144.287 152.007 136.003 152.007Z" fill="#71CF92"/>
<path d="M226.001 152.007H196.002C187.718 152.007 181.002 158.723 181.002 167.007C181.002 175.291 187.717 182.007 196.002 182.007H226.001C234.285 182.007 241.001 175.291 241.001 167.007C241.001 158.723 234.285 152.007 226.001 152.007Z" fill="#71CF92"/>
</g>
<defs>
<clipPath id="clip0_3022_23">
<rect width="512" height="512" fill="white"/>
</clipPath>
</defs>
</svg>
