<svg width="363" height="363" viewBox="0 0 363 363" fill="none" xmlns="http://www.w3.org/2000/svg">
<g clip-path="url(#clip0_3024_146)">
<path d="M181.149 0C104.294 0 41.7661 62.528 41.7661 139.384C41.7661 212.03 157.457 337.098 170.647 351.137L181.149 362.3L191.651 351.137C204.844 337.11 320.533 212.03 320.533 139.384C320.539 62.528 258.011 0 181.149 0ZM181.149 197.065C149.348 197.065 123.473 171.19 123.473 139.389C123.473 107.587 149.348 81.713 181.149 81.713C212.957 81.713 238.825 107.588 238.825 139.389C238.825 171.191 212.957 197.065 181.149 197.065Z" fill="#71CF92"/>
</g>
<defs>
<clipPath id="clip0_3024_146">
<rect width="362.3" height="362.3" fill="white"/>
</clipPath>
</defs>
</svg>
