<svg width="48" height="48" viewBox="0 0 48 48" fill="none" xmlns="http://www.w3.org/2000/svg">
<path d="M34.3362 6.68106C34.6501 4.95351 33.4165 3.34044 31.6636 3.23958C28.03 3.03049 21.8553 2.81658 15.7887 3.2602C14.3241 3.36729 13.0581 4.31385 12.5358 5.68632C9.47854 13.7213 8.0196 21.1429 7.39882 25.0712C7.14277 26.6915 8.30911 28.1345 9.94566 28.2468C12.3834 28.4141 16.1444 28.5885 20.5 28.5C20.0478 31.7219 19.5635 36.6707 19.0804 42.1168C18.8364 44.8672 22.0701 46.3832 23.954 44.3646C31.3942 36.3924 38.2278 27.5115 41.9834 22.4386C43.3515 20.5907 42.1553 18.0802 39.8569 18.0204C37.8165 17.9673 35.1869 17.9426 32 18C32.8667 14.5232 33.6356 10.5366 34.3362 6.68106Z" stroke="#71CF92" stroke-width="3" stroke-linejoin="round"/>
</svg>
