<svg width="24" height="24" viewBox="0 0 24 24" fill="none" xmlns="http://www.w3.org/2000/svg">
<path d="M0 1.5C0 1.10218 0.158035 0.720644 0.43934 0.43934C0.720644 0.158035 1.10218 0 1.5 0H4.7295C5.08456 0.000163454 5.42805 0.126271 5.69887 0.355889C5.96968 0.585508 6.15027 0.903748 6.2085 1.254L7.3185 7.9065C7.37154 8.22333 7.32146 8.54881 7.17564 8.83505C7.02983 9.12128 6.79597 9.35314 6.5085 9.4965L4.1865 10.656C5.01916 12.7195 6.25925 14.5939 7.83266 16.1673C9.40608 17.7408 11.2805 18.9808 13.344 19.8135L14.505 17.4915C14.6483 17.2043 14.8799 16.9706 15.1658 16.8248C15.4518 16.679 15.7769 16.6288 16.0935 16.6815L22.746 17.7915C23.0963 17.8497 23.4145 18.0303 23.6441 18.3011C23.8737 18.572 23.9998 18.9154 24 19.2705V22.5C24 22.8978 23.842 23.2794 23.5607 23.5607C23.2794 23.842 22.8978 24 22.5 24H19.5C8.73 24 0 15.27 0 4.5V1.5Z" fill="#71CF92"/>
</svg>
