<svg width="24" height="26" viewBox="0 0 24 26" fill="none" xmlns="http://www.w3.org/2000/svg">
<path fill-rule="evenodd" clip-rule="evenodd" d="M12 10.368C13.364 10.368 14.6721 9.82183 15.6365 8.84964C16.601 7.87745 17.1429 6.55888 17.1429 5.184C17.1429 3.80912 16.601 2.49055 15.6365 1.51836C14.6721 0.54617 13.364 0 12 0C10.636 0 9.32792 0.54617 8.36345 1.51836C7.39898 2.49055 6.85714 3.80912 6.85714 5.184C6.85714 6.55888 7.39898 7.87745 8.36345 8.84964C9.32792 9.82183 10.636 10.368 12 10.368ZM0 25.92C-2.34822e-08 24.3315 0.310389 22.7586 0.913446 21.2911C1.5165 19.8235 2.40042 18.4901 3.51472 17.3668C4.62902 16.2436 5.95189 15.3526 7.4078 14.7448C8.86371 14.1369 10.4241 13.824 12 13.824C13.5759 13.824 15.1363 14.1369 16.5922 14.7448C18.0481 15.3526 19.371 16.2436 20.4853 17.3668C21.5996 18.4901 22.4835 19.8235 23.0866 21.2911C23.6896 22.7586 24 24.3315 24 25.92H0Z" fill="#71CF92"/>
</svg>
