<svg width="1265" height="863" viewBox="0 0 1265 863" fill="none" xmlns="http://www.w3.org/2000/svg">
<g clip-path="url(#clip0_3033_146)" filter="url(#filter0_f_3033_146)">
<path d="M161.67 236.544L241.431 67.2457C253.2 42.265 282.992 31.5549 307.973 43.324L426.533 99.1812C451.514 110.95 462.224 140.742 450.455 165.723L370.694 335.021C358.925 360.001 329.134 370.711 304.153 358.942L185.592 303.085C160.611 291.316 149.901 261.524 161.67 236.544Z" fill="#2C7746"/>
<path d="M672.31 794.53L823.069 474.533C834.838 449.553 864.63 438.842 889.61 450.612L1008.17 506.469C1033.15 518.238 1043.86 548.029 1032.09 573.01L881.334 893.007C869.565 917.988 839.773 928.698 814.793 916.929L696.232 861.072C671.251 849.303 660.541 819.511 672.31 794.53Z" fill="#2C7746"/>
<path d="M-104.197 596.895L356.711 489.973C383.611 483.733 410.477 500.481 416.717 527.38L446.334 655.05C452.574 681.95 435.826 708.816 408.926 715.056L-51.9823 821.978C-78.8822 828.218 -105.748 811.47 -111.988 784.57L-141.605 656.9C-147.845 630.001 -131.097 603.135 -104.197 596.895Z" fill="#2C7746"/>
<path d="M1027.54 42.8286L1197.67 120.789C1222.78 132.292 1233.8 161.968 1222.3 187.072L1178.81 281.974C1167.31 307.079 1137.64 318.104 1112.53 306.601L942.396 228.641C917.292 217.138 906.266 187.461 917.77 162.357L961.256 67.455C972.76 42.3509 1002.44 31.3252 1027.54 42.8286Z" fill="#2C7746"/>
</g>
<defs>
<filter id="filter0_f_3033_146" x="0.400002" y="0.400002" width="1271.2" height="862.2" filterUnits="userSpaceOnUse" color-interpolation-filters="sRGB">
<feFlood flood-opacity="0" result="BackgroundImageFix"/>
<feBlend mode="normal" in="SourceGraphic" in2="BackgroundImageFix" result="shape"/>
<feGaussianBlur stdDeviation=".8" result="effect1_foregroundBlur_3033_146"/>
</filter>
<clipPath id="clip0_3033_146">
<rect width="1196" height="787" fill="white" transform="translate(38 38)"/>
</clipPath>
</defs>
</svg>
