<svg width="20" height="27" viewBox="0 0 20 27" fill="none" xmlns="http://www.w3.org/2000/svg">
<path d="M10.3017 26.252C8.45374 26.252 6.79774 25.952 5.33374 25.352C3.86974 24.752 2.69374 23.864 1.80574 22.688C0.941744 21.512 0.485744 20.096 0.437744 18.44H6.98974C7.08574 19.376 7.40974 20.096 7.96174 20.6C8.51374 21.08 9.23375 21.32 10.1217 21.32C11.0337 21.32 11.7537 21.116 12.2817 20.708C12.8097 20.276 13.0737 19.688 13.0737 18.944C13.0737 18.32 12.8577 17.804 12.4257 17.396C12.0177 16.988 11.5017 16.652 10.8777 16.388C10.2777 16.124 9.41374 15.824 8.28574 15.488C6.65374 14.984 5.32174 14.48 4.28974 13.976C3.25774 13.472 2.36974 12.728 1.62574 11.744C0.881744 10.76 0.509744 9.47604 0.509744 7.89204C0.509744 5.54004 1.36174 3.70404 3.06574 2.38404C4.76974 1.04004 6.98974 0.368042 9.72574 0.368042C12.5097 0.368042 14.7537 1.04004 16.4577 2.38404C18.1617 3.70404 19.0737 5.55204 19.1937 7.92804H12.5337C12.4857 7.11204 12.1857 6.47604 11.6337 6.02004C11.0817 5.54004 10.3737 5.30004 9.50974 5.30004C8.76574 5.30004 8.16574 5.50404 7.70974 5.91204C7.25374 6.29604 7.02574 6.86004 7.02574 7.60404C7.02574 8.42004 7.40974 9.05604 8.17774 9.51204C8.94574 9.96804 10.1457 10.46 11.7777 10.988C13.4097 11.54 14.7297 12.068 15.7377 12.572C16.7697 13.076 17.6577 13.808 18.4017 14.768C19.1457 15.728 19.5177 16.964 19.5177 18.476C19.5177 19.916 19.1457 21.224 18.4017 22.4C17.6817 23.576 16.6257 24.512 15.2337 25.208C13.8417 25.904 12.1977 26.252 10.3017 26.252Z" fill="#71CF92"/>
</svg>
