<svg width="480" height="258" viewBox="0 0 480 258" fill="none" xmlns="http://www.w3.org/2000/svg">
<path d="M227.852 81.2467C227.849 81.2089 227.844 81.1712 227.842 81.1334C227.698 78.5281 227.733 75.9005 227.725 73.2913C227.706 67.0921 227.754 61.2877 232.206 56.4535C236.005 52.3278 240.784 51.4196 246.159 51.1901C243.909 54.6851 241.893 58.339 239.705 61.8767C236.476 67.0227 233.287 72.193 230.137 77.3874C229.466 78.5063 228.229 80.0475 227.852 81.2467Z" fill="#008B4B"/>
<path d="M248.22 48.3115C248.81 46.6182 249.104 44.785 249.577 43.0539C249.84 42.1065 250.138 41.1701 250.47 40.2447C250.802 39.3193 251.169 38.4074 251.568 37.5091C251.968 36.6108 252.401 35.7285 252.866 34.8621C253.331 33.9958 253.828 33.1479 254.356 32.3184C255.369 30.7263 256.734 28.5903 258.717 28.2135C259.936 27.982 260.623 29.0824 261.558 29.6845L261.962 29.9412C262.379 29.5212 262.876 29.1982 263.357 28.8558C263.371 28.9439 263.385 29.0316 263.399 29.1197C263.666 30.9728 263.559 32.8347 263.749 34.6926C264.28 39.863 266.606 44.9923 270.793 48.2112C270.903 48.2955 271.014 48.3769 271.126 48.4602C269.898 49.6434 268.665 50.6853 266.872 50.6863C266.383 50.6867 265.985 50.5899 265.526 50.4213C265.182 51.0757 264.747 51.5886 264.273 52.147C262.976 52.4914 261.698 52.5331 260.367 52.596L258.598 52.8028C255.247 50.6741 252.063 49.2942 248.22 48.3115Z" fill="#01014D"/>
<path d="M259.382 45.9373C261.286 47.4949 263.286 49.3805 265.526 50.4214C265.182 51.0757 264.747 51.5887 264.273 52.1471C262.976 52.4915 261.698 52.5331 260.367 52.5961C259.899 52.4411 259.948 52.5007 259.581 52.0822C259.215 50.0668 259.059 47.9686 259.382 45.9373Z" fill="#FBBCAF"/>
<path d="M248.22 48.3115C248.81 46.6182 249.104 44.785 249.577 43.0539C249.84 42.1065 250.138 41.1701 250.47 40.2447C250.802 39.3193 251.169 38.4074 251.568 37.5091C251.968 36.6108 252.401 35.7285 252.866 34.8621C253.331 33.9958 253.828 33.1479 254.356 32.3184C255.369 30.7263 256.734 28.5903 258.717 28.2135C259.936 27.982 260.623 29.0824 261.558 29.6845L261.962 29.9412C259.532 33.8939 255.894 37.5357 252.91 41.1141C255.04 42.7158 257.343 44.2275 259.382 45.9372C259.059 47.9686 259.215 50.0668 259.581 52.0821C259.948 52.5006 259.899 52.441 260.367 52.596L258.598 52.8028C255.247 50.6741 252.063 49.2942 248.22 48.3115Z" fill="#FCCCB7"/>
<path d="M127.912 114.347C132.23 114.276 148.954 113.58 151.419 115.806C152.115 116.434 152.419 117.263 152.413 118.188C152.397 121.134 150.041 124.666 147.925 126.608C146.472 127.943 145.039 128.866 143.057 129.135C141.775 130.132 140.754 131.433 139.692 132.652C134.894 133.309 129.649 132.899 124.791 132.873L124.631 132.707C120.409 128.27 119.16 120.116 119.272 114.247L127.912 114.347Z" fill="#EC7D96"/>
<path d="M145.892 116.7C147.127 116.638 148.744 116.443 149.813 117.22C150.324 117.592 150.54 118.079 150.58 118.696C150.709 120.751 148.329 123.039 146.993 124.395C145.988 125.379 144.87 126.227 143.769 127.1C144.051 125.131 144.739 117.78 145.892 116.7Z" fill="#C7FEE4"/>
<path d="M119.272 114.248L127.912 114.347C126.561 115.059 122.043 114.512 120.389 114.435C121.436 119.346 123.181 123.446 127.532 126.283C131.143 128.638 135.235 129.272 139.425 128.359C141.171 127.978 142.668 127.647 144.187 126.667L144.351 126.833L144.164 127.059C143.632 127.72 143.218 128.282 143.057 129.135C141.775 130.132 140.754 131.433 139.692 132.652C134.894 133.31 129.649 132.899 124.791 132.873L124.631 132.707C120.409 128.27 119.16 120.116 119.272 114.248Z" fill="#E56481"/>
<path d="M79.0561 106.991C79.6494 107.24 80.0074 107.492 80.4888 107.903C85.5788 108.259 99.2577 109.045 103.756 107.974C104.37 107.827 104.795 107.52 105.289 107.142C106.961 111.531 105.235 120.391 103.868 124.835C103.059 127.617 102.036 130.199 100.464 132.646L82.99 132.643C80.7726 128.919 79.8558 124.747 79.1351 120.514C78.5442 117.044 77.0078 109.878 79.0561 106.991Z" fill="#EC7D96"/>
<path d="M79.0561 106.991C79.6494 107.24 80.0074 107.492 80.4888 107.903C80.8705 114.604 81.1562 123.579 86.5223 128.48C88.2461 130.053 90.369 130.643 92.6726 130.484C99.4428 130.016 99.7009 126.072 103.868 124.835C103.059 127.617 102.036 130.199 100.464 132.646L82.99 132.643C80.7726 128.919 79.8558 124.747 79.1351 120.514C78.5442 117.044 77.0078 109.878 79.0561 106.991Z" fill="#E56481"/>
<path d="M78.9404 77.1598C79.03 77.0537 79.121 76.9491 79.2092 76.842C82.2175 73.2065 83.2438 68.1068 89.009 67.6206C91.0999 67.4443 93.138 68.2425 94.6574 69.6679C96.7542 71.6348 97.4894 74.4063 97.8435 77.1622C99.9988 76.3209 102.205 75.6186 104.452 76.6357C106.397 77.5163 107.588 79.4081 108.234 81.3736C109.303 84.6241 108.892 87.659 107.911 90.8547C109.495 90.3379 111.426 89.7809 113.035 90.5786C113.746 90.9302 114.253 91.4316 114.501 92.1944C115.228 94.4243 114.117 97.5576 113.024 99.4974C111.577 102.067 109.387 103.809 107.032 105.499C106.471 105.973 105.654 106.517 105.289 107.142C104.795 107.52 104.37 107.828 103.756 107.974C99.2578 109.045 85.5788 108.259 80.4888 107.903C80.0074 107.493 79.6494 107.24 79.0561 106.991C75.3136 103.17 72.6589 102.731 70.5999 97.1086C69.0839 92.9679 68.9439 88.1404 70.8595 84.1034C72.5286 80.586 75.3606 78.4525 78.9404 77.1598Z" fill="#00FE58" fill-opacity="0.988235"/>
<path d="M79.0561 106.991C75.3136 103.17 72.6589 102.731 70.5999 97.1085C69.0839 92.9678 68.9439 88.1403 70.8595 84.1033C72.5286 80.586 75.3606 78.4524 78.9404 77.1597C76.6368 82.7394 74.6694 88.3273 77.1623 94.2499C79.0261 98.6792 83.0152 101.918 87.4189 103.638C87.7692 103.772 88.1228 103.898 88.4796 104.015C88.8361 104.132 89.1953 104.24 89.5573 104.339C89.9195 104.438 90.2839 104.527 90.6504 104.608C91.0169 104.689 91.3852 104.76 91.7552 104.823C92.1253 104.885 92.4968 104.938 92.8697 104.982C93.2423 105.026 93.6159 105.06 93.9905 105.086C94.3647 105.111 94.7396 105.127 95.1151 105.134C95.4903 105.14 95.8654 105.137 96.2403 105.125C96.6155 105.113 96.9902 105.091 97.3644 105.06C97.7384 105.029 98.1113 104.989 98.4833 104.94C98.8553 104.89 99.2258 104.831 99.5949 104.764C99.9643 104.695 100.332 104.618 100.697 104.532C101.062 104.446 101.425 104.35 101.785 104.246C102.146 104.142 102.504 104.028 102.858 103.906C103.213 103.784 103.565 103.653 103.913 103.513C104.261 103.373 104.606 103.225 104.947 103.068C106.319 102.444 107.645 101.686 108.961 100.952C108.361 102.492 107.725 103.998 107.032 105.499C106.471 105.973 105.654 106.517 105.289 107.142C104.795 107.52 104.37 107.828 103.756 107.974C99.2578 109.045 85.5788 108.259 80.4888 107.903C80.0074 107.492 79.6494 107.24 79.0561 106.991Z" fill="#008B4B"/>
<path d="M248.22 48.3114C252.063 49.2941 255.248 50.6741 258.598 52.8028L260.367 52.5959C261.698 52.533 262.976 52.4913 264.273 52.1469C264.748 51.5885 265.182 51.0756 265.526 50.4212C265.985 50.5898 266.383 50.6866 266.872 50.6862C268.665 50.6852 269.898 49.6434 271.126 48.4601C273.945 50.0381 277.062 50.9894 280.278 49.9829C280.364 49.9562 280.446 49.9209 280.53 49.8899C280.655 51.7512 281.437 57.5382 280.292 58.8522C276.239 59.8786 272.85 61.8407 269.567 64.399C265.996 72.6062 265.843 80.319 263.336 88.5611C260.939 89.1477 251.828 96.0588 249.061 97.862C245.843 99.9996 242.505 101.929 239.046 103.651C238.689 103.778 238.331 103.9 237.971 104.017C234.063 105.284 231.226 104.537 227.699 102.751C225.858 101.002 224.044 99.1877 222.926 96.8706C219.856 90.5072 225.909 86.8717 227.768 81.5023C227.797 81.4175 227.824 81.3318 227.852 81.2465C228.229 80.0473 229.466 78.5061 230.137 77.3872C233.287 72.1928 236.476 67.0225 239.705 61.8765C241.893 58.3388 243.909 54.6849 246.159 51.1899C246.945 50.2963 247.568 49.3038 248.22 48.3114Z" fill="#8B8EFE"/>
<path d="M260.367 52.5961C261.698 52.5331 262.976 52.4915 264.273 52.1471L262.349 56.2912L258.598 52.8029L260.367 52.5961Z" fill="#C7FEE4"/>
<path d="M271.126 48.4602C273.945 50.0382 277.062 50.9895 280.278 49.983C280.364 49.9564 280.446 49.921 280.53 49.89C280.655 51.7514 281.437 57.5383 280.292 58.8524C276.239 59.8787 272.85 61.8408 269.567 64.3991C262.82 67.9814 258.114 74.3074 251.858 78.6302C255.168 71.0981 258.912 63.7661 262.349 56.2912L264.273 52.1471C264.748 51.5886 265.182 51.0757 265.526 50.4213C265.985 50.5899 266.383 50.6868 266.872 50.6863C268.665 50.6853 269.898 49.6435 271.126 48.4602Z" fill="#303D8D"/>
<path d="M251.858 78.63C258.114 74.3072 262.82 67.9812 269.567 64.3989C265.996 72.6062 265.843 80.3189 263.336 88.5611C260.939 89.1476 251.828 96.0588 249.061 97.862C245.843 99.9996 242.505 101.929 239.046 103.651C239.515 99.6923 249.198 82.3464 251.858 78.63Z" fill="#666FFE"/>
<path d="M263.384 28.1423C262.101 21.3503 260.622 14.9022 264.862 8.77718C268.101 4.0979 273.107 1.34051 278.654 0.402329C279.111 0.324188 279.57 0.257347 280.03 0.201809C280.49 0.14627 280.952 0.102204 281.414 0.0695917C281.877 0.036979 282.34 0.0158234 282.804 0.00613647C283.268 -0.00355047 283.731 -0.00176637 284.194 0.0114724C284.658 0.0247113 285.121 0.0494055 285.584 0.0855701C286.046 0.121735 286.507 0.169369 286.967 0.228459C287.427 0.287872 287.885 0.358416 288.341 0.440109C288.798 0.521803 289.252 0.614957 289.704 0.719576C290.156 0.823872 290.605 0.939306 291.051 1.06588C291.497 1.19246 291.94 1.33002 292.379 1.47856C292.818 1.62709 293.254 1.78644 293.685 1.95661C294.117 2.12677 294.544 2.30743 294.966 2.49858C295.389 2.69006 295.806 2.89171 296.218 3.10353C296.631 3.31567 297.038 3.53783 297.439 3.76999C297.841 4.00216 298.236 4.24417 298.626 4.49603C299.015 4.74757 299.398 5.0088 299.775 5.27971C305.161 9.17337 308.826 14.7283 309.817 21.3421C311.485 32.47 305.918 43.098 310.827 53.9551C313.499 62.1135 314.936 67.4137 311.428 75.605C304.784 66.5985 304.903 61.9469 293.17 58.3918C293.601 55.397 293.049 52.2798 293.661 49.3131C294.357 45.9406 296.585 43.1009 298.128 40.0805C299.087 38.2027 299.852 36.2241 300.632 34.2669C297.763 34.9489 295.973 34.6016 293.22 33.6431C294.881 35.3383 296.385 35.7577 298.588 36.4523C294.986 41.9356 291.583 45.0184 285.552 47.7269C283.932 48.4539 282.053 49.024 280.53 49.89C280.446 49.921 280.364 49.9564 280.278 49.983C277.062 50.9895 273.945 50.0382 271.126 48.4602C271.014 48.3769 270.903 48.2955 270.793 48.2113C266.606 44.9923 264.28 39.863 263.749 34.6926C263.559 32.8347 263.666 30.9729 263.399 29.1198C263.386 29.0316 263.371 28.9439 263.357 28.8558L263.384 28.1423Z" fill="#303D8D"/>
<path d="M272.417 13.2123C275.996 16.7849 279.688 18.7475 284.337 20.6253C282.422 20.9018 280.61 21.1125 278.845 21.9543C283.618 21.175 288.096 20.9081 292.245 23.9285C293.092 24.5461 293.875 25.2261 294.628 25.9545C296.62 25.7221 298.4 25.9376 300.042 27.21C301.092 28.0237 301.669 29.1309 301.786 30.4478C301.912 31.8738 301.31 33.0594 300.632 34.2669C297.763 34.9489 295.973 34.6016 293.22 33.6431C294.881 35.3383 296.385 35.7577 298.588 36.4523C294.986 41.9356 291.583 45.0184 285.552 47.7269C283.932 48.4539 282.053 49.024 280.53 49.89C280.446 49.921 280.364 49.9564 280.278 49.983C277.062 50.9895 273.945 50.0382 271.126 48.4602C271.014 48.3769 270.903 48.2955 270.793 48.2113C266.606 44.9923 264.28 39.863 263.749 34.6926C263.559 32.8347 263.666 30.9729 263.399 29.1198C263.386 29.0316 263.371 28.9439 263.357 28.8558L263.384 28.1423C263.774 25.6436 263.899 23.0489 264.374 20.5759C267.191 18.2215 269.986 15.9809 272.417 13.2123Z" fill="#FCCCB7"/>
<path d="M270.786 39.3163L270.633 39.1574L270.668 38.8004C271.217 38.4256 271.67 38.1868 272.337 38.0822C273.935 37.8313 275.427 38.21 276.739 39.124C274.642 39.6752 272.902 39.5802 270.786 39.3163Z" fill="#FEFEFE"/>
<path d="M268.832 27.4202C269.201 27.504 269.76 27.6512 270.069 27.8619C270.526 28.1743 270.804 28.5308 270.805 29.1028C270.806 29.9489 270.132 30.6498 269.633 31.2639C269.519 31.2882 269.408 31.3327 269.292 31.3371C268.587 31.3613 268.395 31.2276 267.919 30.7806C267.617 29.4283 268.137 28.5439 268.832 27.4202Z" fill="#01014D"/>
<path d="M280.83 27.4214C281.229 27.5285 281.228 27.497 281.519 27.6534C282.137 27.9857 282.682 28.4332 282.801 29.1704C282.972 30.2287 282.408 30.9775 281.86 31.812C281.784 31.7786 281.706 31.7486 281.632 31.7113C280.863 31.3306 280.036 30.8269 279.865 29.9153C279.677 28.9137 280.289 28.1814 280.83 27.4214Z" fill="#01014D"/>
<path d="M276.739 39.124C277.174 39.6224 277.194 39.9885 277.124 40.6487C277.032 41.5113 276.568 42.6984 275.811 43.1939C275.169 43.6143 274.506 43.78 273.755 43.5499C272.175 43.0651 271.276 41.3786 270.468 40.0597L270.451 39.5139L270.786 39.3162C272.902 39.5802 274.642 39.6751 276.739 39.124Z" fill="#E56481"/>
<path d="M298.588 36.4521C296.385 35.7576 294.881 35.3381 293.22 33.6429C295.973 34.6014 297.763 34.9487 300.632 34.2667C299.852 36.224 299.087 38.2025 298.128 40.0803C296.585 43.1007 294.357 45.9405 293.661 49.313C293.049 52.2796 293.601 55.3969 293.17 58.3916C304.903 61.9467 304.784 66.5983 311.428 75.6048C316.546 83.164 334.026 109.55 332.438 118.067C331.083 125.335 321.969 129.277 316.892 133.762C308.59 139.213 300.018 143.889 291.254 148.541C289.981 147.231 288.714 145.933 287.551 144.524C285.099 141.157 283.44 137.775 282.172 133.817C282.071 133.496 281.892 133.203 281.738 132.904C279.535 131.81 273.092 132.39 270.129 132.14C264.552 131.67 259.211 130.718 253.753 129.498C248.959 130.432 244.496 131.539 240.206 133.967C235.907 131.267 232.575 130.203 227.482 130.568C227.604 125.013 227.682 119.458 227.715 113.902C227.912 110.2 227.775 106.455 227.699 102.751C231.226 104.537 234.063 105.284 237.971 104.017C238.331 103.9 238.689 103.778 239.046 103.651C242.505 101.929 245.843 99.9995 249.061 97.862C251.828 96.0587 260.939 89.1476 263.336 88.5611C265.843 80.3189 265.996 72.6062 269.567 64.3989C272.85 61.8406 276.239 59.8785 280.292 58.8522C281.437 57.5381 280.655 51.7512 280.53 49.8898C282.053 49.0238 283.932 48.4537 285.552 47.7267C291.583 45.0183 294.986 41.9354 298.588 36.4521ZM239.046 103.651C238.689 103.778 238.331 103.9 237.971 104.017C234.063 105.284 231.226 104.537 227.699 102.751C227.775 106.455 227.912 110.2 227.715 113.902C227.682 119.458 227.604 125.013 227.482 130.568C232.575 130.203 235.907 131.267 240.206 133.967C244.496 131.539 248.959 130.432 253.753 129.498C255.635 125.243 256.461 120.092 257.508 115.555C259.564 106.581 261.506 97.5832 263.336 88.5611C260.939 89.1476 251.828 96.0587 249.061 97.862C245.843 99.9995 242.505 101.929 239.046 103.651Z" fill="#8B8EFE"/>
<path d="M306.807 76.8217C308.3 78.4646 312.96 94.6597 313.699 97.6612C314.349 100.314 314.874 102.992 315.275 105.694C315.887 109.872 316.642 115.76 313.81 119.324C309.378 124.902 293.139 127.305 286.052 128.079C284.365 128.389 282.587 128.486 280.878 128.669C286.377 125.199 291.991 122.388 298.101 120.169C301.458 118.95 305.036 118 308.276 116.498C309.177 116.081 310.09 115.546 310.667 114.714C311.165 113.994 311.332 113.107 311.378 112.249C311.553 108.933 310.948 105.231 310.551 101.929C309.538 93.5287 308.1 85.182 306.807 76.8217Z" fill="#666FFE"/>
<path d="M298.588 36.4521C296.385 35.7576 294.881 35.3381 293.22 33.6429C295.973 34.6014 297.763 34.9487 300.632 34.2667C299.852 36.224 299.087 38.2025 298.128 40.0803C296.585 43.1007 294.357 45.9405 293.661 49.313C293.049 52.2796 293.601 55.3969 293.17 58.3916C294.475 61.4555 295.871 64.1708 294.467 67.523C293.552 69.7093 291.65 71.3154 289.459 72.146C289.311 72.2038 289.162 72.2578 289.011 72.3078C288.86 72.3579 288.707 72.404 288.554 72.4463C288.401 72.4886 288.246 72.5269 288.091 72.5611C287.936 72.5954 287.78 72.6256 287.623 72.6517C287.466 72.6779 287.308 72.7 287.15 72.7181C286.992 72.7361 286.834 72.7502 286.675 72.7602C286.516 72.7702 286.357 72.776 286.198 72.7776C286.039 72.7796 285.88 72.7773 285.721 72.7709C285.562 72.7644 285.404 72.7537 285.246 72.7389C285.087 72.7244 284.929 72.7058 284.772 72.6832C284.614 72.6603 284.457 72.6333 284.302 72.6023C284.145 72.5716 283.99 72.5368 283.836 72.4977C283.682 72.4589 283.529 72.4161 283.376 72.3693C283.224 72.3225 283.074 72.272 282.925 72.2177C282.775 72.1632 282.627 72.1047 282.48 72.0424C282.334 71.9804 282.189 71.9145 282.046 71.8448C280.342 70.9962 278.974 69.5722 278.361 67.7525C277.539 65.3124 278.198 62.7318 279.361 60.5222C279.659 59.9591 279.97 59.4024 280.292 58.8522C281.437 57.5381 280.655 51.7512 280.53 49.8898C282.053 49.0238 283.932 48.4537 285.552 47.7267C291.583 45.0183 294.986 41.9354 298.588 36.4521Z" fill="#FBBCAF"/>
<path d="M239.046 103.651C242.505 101.929 245.843 99.9996 249.061 97.862C251.828 96.0588 260.939 89.1476 263.336 88.5611C261.506 97.5832 259.564 106.581 257.508 115.555C256.461 120.092 255.635 125.243 253.753 129.498C248.959 130.432 244.496 131.539 240.206 133.967C235.907 131.267 232.575 130.203 227.482 130.569C227.604 125.013 227.682 119.458 227.715 113.902C227.912 110.2 227.775 106.455 227.699 102.751C231.226 104.537 234.063 105.284 237.971 104.017C238.331 103.9 238.689 103.778 239.046 103.651Z" fill="#00FE58" fill-opacity="0.988235"/>
<path d="M310.827 53.9549L353.07 53.9016C360.412 53.8784 369.003 52.931 376.187 54.3753C379.666 55.0747 382.797 56.6973 385.305 59.2188C385.596 59.5136 385.877 59.8178 386.148 60.1313C386.419 60.4445 386.679 60.7665 386.929 61.0971C387.179 61.4278 387.417 61.7663 387.645 62.1128C387.872 62.4589 388.088 62.8123 388.292 63.173C388.496 63.5337 388.688 63.9007 388.868 64.2739C389.047 64.6472 389.214 65.0261 389.369 65.4107C389.524 65.7949 389.666 66.1839 389.795 66.5775C389.924 66.9714 390.04 67.3691 390.143 67.7704C391.679 73.6678 391.005 80.733 391.009 86.8087C391.014 91.8352 391.164 96.8952 391.046 101.918C391.043 102.048 391.034 102.177 391.028 102.307C391.209 106.274 391.149 110.258 391.152 114.228C399.67 113.948 410.355 112.391 417.146 118.756C421.807 123.124 423.02 128.639 423.193 134.814C423.382 141.542 423.123 148.329 423.13 155.065L423.167 200.404C428.127 200.67 433.026 201.834 437.889 202.798C449.094 205.02 461.369 207.118 471.488 212.73C474.634 214.476 478.06 216.973 479 220.646C479.533 222.733 479.024 224.924 477.91 226.731C472.429 235.615 452.526 239.472 442.929 241.658C405.585 250.166 367.254 252.903 329.116 255.152C302.363 256.822 275.585 257.758 248.781 257.959C221.977 258.159 195.188 257.625 168.413 256.355C152.434 255.714 136.478 254.71 120.545 253.344C104.612 251.977 88.7179 250.249 72.8633 248.159C54.9458 245.752 21.1085 241.289 6.3489 231.893C3.54317 230.107 0.790776 227.599 0.139087 224.189C-0.309708 221.841 0.35404 219.532 1.74877 217.622C9.12692 207.515 48.6091 201.71 61.5901 199.461L61.4075 144.305C59.4226 144.284 56.3388 144.568 54.8155 143.012C53.5378 141.707 53.6056 139.927 53.5553 138.232C53.6119 136.758 53.5988 135.048 54.7753 133.971C55.7033 133.121 57.1041 132.948 58.3028 132.804C61.207 132.455 64.2797 132.646 67.2042 132.645L82.99 132.642L100.464 132.646C108.574 132.666 116.684 132.887 124.791 132.872C129.649 132.899 134.894 133.309 139.692 132.652C144.307 132.629 149.312 132.22 153.85 133.073C154.491 133.661 155.188 134.235 155.739 134.906L155.829 138.648C155.779 140.238 155.773 141.753 154.485 142.9C152.642 144.541 149.129 144.164 146.848 144.079L146.849 190.803C151.995 190.582 157.134 190.122 162.282 190.004C161.969 178.536 162.197 167.036 162.264 155.565C162.309 147.895 161.663 139.078 163.193 131.566C163.977 127.715 165.57 124.088 168.205 121.142C172.578 116.252 178.64 114.285 185.046 113.945C190.585 113.393 196.504 113.774 202.084 113.761C210.598 113.743 219.214 113.485 227.715 113.902C227.682 119.458 227.604 125.013 227.482 130.568C232.575 130.203 235.907 131.267 240.206 133.967C244.496 131.539 248.959 130.432 253.753 129.498C259.211 130.718 264.552 131.67 270.129 132.14C273.092 132.39 279.535 131.81 281.738 132.904C281.892 133.203 282.071 133.496 282.172 133.817C283.44 137.775 285.099 141.157 287.551 144.524C288.714 145.933 289.982 147.231 291.254 148.541C300.018 143.889 308.59 139.213 316.892 133.762C321.969 129.277 331.083 125.335 332.438 118.067C334.026 109.55 316.546 83.164 311.428 75.6047C314.936 67.4135 313.499 62.1133 310.827 53.9549ZM82.99 132.642L67.2042 132.645C64.2797 132.646 61.207 132.455 58.3028 132.804C57.1041 132.948 55.7033 133.121 54.7753 133.971C53.5988 135.048 53.6119 136.758 53.5553 138.232C53.6056 139.927 53.5378 141.707 54.8155 143.012C56.3388 144.568 59.4226 144.284 61.4075 144.305L61.5901 199.461C61.5886 209.293 61.3576 219.127 61.268 228.958C61.2535 230.527 60.9595 234.447 62.2188 235.527C63.0102 236.207 64.0917 236.34 65.0968 236.323C65.939 236.309 66.5033 236.254 67.086 235.576C67.55 235.036 67.7907 234.392 67.889 233.692C68.4954 229.377 67.9244 224.633 67.9098 220.261C67.8861 212.967 68.3569 205.585 67.6909 198.31C79.3104 197.571 90.9861 195.804 102.574 194.581L102.545 218.246C102.5 222.874 102.103 227.61 102.417 232.224C102.478 233.127 102.525 234.354 103.147 235.061C103.847 235.857 105.126 236.252 106.155 236.275C106.931 236.292 107.877 236.103 108.398 235.482C109.938 233.65 109.154 198.822 109.09 194.205C119.506 193.141 129.866 192.163 140.326 191.674L140.27 218.404C140.224 223.205 139.78 228.142 140.113 232.929C140.184 233.95 140.337 235.206 141.016 236.022C141.522 236.63 142.155 236.907 142.944 236.961C143.86 237.022 144.835 236.496 145.478 235.883C146.272 235.126 146.72 234.05 146.876 232.977C147.06 231.703 146.881 230.354 146.874 229.069L146.885 221.154L146.849 190.803L146.848 144.079C149.129 144.164 152.642 144.541 154.485 142.9C155.773 141.753 155.779 140.238 155.829 138.648L155.739 134.906C155.188 134.235 154.491 133.661 153.85 133.073C149.312 132.22 144.307 132.629 139.692 132.652C134.894 133.309 129.649 132.899 124.791 132.872C116.684 132.887 108.574 132.666 100.464 132.646L82.99 132.642Z" fill="#00FE58" fill-opacity="0.988235"/>
<path d="M273.263 219.532C274.382 222.398 275.478 225.273 276.552 228.156L278.411 233.004C274.594 233.48 270.857 234.489 267.131 235.418C259.827 237.237 252.596 239.342 245.279 241.093C244.321 240.605 243.098 240.023 242.587 239.041C242.906 238.227 245.828 237.26 246.742 236.731C250.696 234.444 254.055 230.779 257.316 227.622L258.774 226.319C260.826 227.504 262.656 228.127 265.05 227.497C268.957 226.468 271.383 222.833 273.263 219.532Z" fill="#FBBCAF"/>
<path d="M228.374 226.275C231.313 228.269 234.426 229.312 238.018 228.691C239.936 228.359 241.646 227.564 243.155 226.344L243.661 227.836C244.819 230.893 245.384 233.903 245.488 237.166C241.231 238.235 214.811 240.159 212.177 238.653C211.609 238.328 211.575 238.21 211.433 237.622C211.965 235.992 216.714 234.443 218.278 233.496C221.056 231.816 223.575 229.725 226.109 227.705C226.908 227.318 227.636 226.769 228.374 226.275Z" fill="#FBBCAF"/>
<path d="M220.36 197.089C221.708 205.096 222.001 221.079 228.374 226.275C227.636 226.769 226.908 227.318 226.109 227.705C220.011 226.902 213.764 227.753 207.634 227.822L207.619 197.082C211.866 197.109 216.113 197.111 220.36 197.089Z" fill="#008B4B"/>
<path d="M185.046 113.945C190.585 113.394 196.504 113.774 202.084 113.761C210.598 113.743 219.214 113.485 227.715 113.902C227.682 119.458 227.604 125.014 227.482 130.569C222.882 131.968 218.626 133.701 216.187 138.165C212.942 144.106 215.31 159.547 216.5 166.205C217.124 171.283 217.884 176.45 218.228 181.552C215.881 181.33 213.551 181.552 211.203 181.492C210.033 181.463 208.8 181.471 207.957 180.587L208.017 179.696C207.46 175.058 207.618 170.301 207.624 165.636C207.619 159.532 207.648 153.429 207.71 147.326C207.781 142.912 208.091 138.456 207.492 134.068C207.402 133.368 207.282 132.674 207.131 131.985C206.981 131.296 206.8 130.615 206.589 129.942C206.378 129.27 206.137 128.608 205.868 127.956C205.598 127.304 205.3 126.666 204.975 126.041C201.778 119.941 196.505 116.462 190.052 114.415C188.383 113.886 186.781 113.94 185.046 113.945Z" fill="#008B4B"/>
<path d="M216.5 166.205C217.124 171.283 217.884 176.45 218.228 181.551C215.881 181.33 213.552 181.551 211.203 181.492C210.033 181.463 208.8 181.471 207.957 180.587L208.017 179.696C209.719 173.665 211.369 169.988 216.5 166.205Z" fill="#65FEB9"/>
<path d="M260.352 164.23C269.801 164.139 279.251 164.106 288.7 164.131C293.29 164.14 298.179 164.589 302.727 164.048C304.732 163.81 306.337 163.221 308.158 162.384C309.511 163.686 319.936 163.155 322.411 163.134C322.009 169.076 322.249 175.113 322.185 181.07C315.593 181.047 268.514 180.35 266.069 181.511C264.349 175.689 262.444 169.929 260.352 164.23Z" fill="#65FEB9"/>
<path d="M270.682 197.286L322.463 197.063L322.415 228.05L294.688 227.998C288.611 227.966 282.624 227.665 276.552 228.156C275.478 225.273 274.382 222.398 273.263 219.533C273.312 217.304 274.075 215.165 274.2 212.947C274.496 207.662 272.282 202.234 270.682 197.286Z" fill="#008B4B"/>
<path d="M253.753 129.498C259.211 130.718 264.552 131.67 270.129 132.14C273.092 132.39 279.535 131.81 281.738 132.904C281.892 133.203 282.071 133.496 282.172 133.818C283.44 137.775 285.099 141.157 287.551 144.525C288.714 145.934 289.981 147.231 291.254 148.541C300.018 143.889 308.59 139.213 316.892 133.762C319.112 140.391 320.08 147.45 316.818 153.941C315.033 157.493 311.718 160.634 308.158 162.384C306.337 163.221 304.732 163.81 302.727 164.048C298.18 164.589 293.29 164.14 288.7 164.131C279.251 164.106 269.801 164.139 260.353 164.23C262.444 169.929 264.349 175.689 266.069 181.511C267.631 186.761 269.045 192.059 270.682 197.286C272.282 202.234 274.496 207.662 274.2 212.947C274.075 215.165 273.312 217.304 273.263 219.532C271.383 222.833 268.957 226.468 265.05 227.497C262.656 228.127 260.826 227.504 258.774 226.319L257.316 227.622C252.742 227.444 248.23 227.591 243.661 227.836L243.155 226.344C241.646 227.564 239.936 228.359 238.018 228.691C234.426 229.312 231.313 228.269 228.374 226.275C222.001 221.079 221.708 205.096 220.36 197.089C219.708 191.905 218.941 186.728 218.228 181.551C217.884 176.45 217.124 171.283 216.5 166.205C215.31 159.547 212.942 144.106 216.187 138.165C218.626 133.701 222.882 131.968 227.482 130.569C232.575 130.203 235.907 131.267 240.206 133.967C244.496 131.539 248.959 130.432 253.753 129.498Z" fill="#C7FEE4"/>
<path d="M243.85 188.977C244.884 191.335 245.58 193.897 246.215 196.389C245.478 196.617 245.263 196.587 244.803 197.231C244.14 195.212 244.028 191.168 243.85 188.977Z" fill="#65FEB9"/>
<path d="M244.803 197.231C245.263 196.586 245.478 196.616 246.215 196.389C249.971 206.096 250.911 218.883 258.774 226.319L257.316 227.621C252.742 227.444 248.23 227.59 243.661 227.836L243.155 226.344C243.678 225.765 244.217 225.181 244.674 224.547C248.891 218.697 245.995 204.055 244.803 197.231Z" fill="#008B4B"/>
<path d="M282.172 133.818C283.44 137.775 285.099 141.157 287.551 144.525C281.627 145.886 274.613 148.398 269.703 152.073C267.759 153.528 266.096 155.311 264.2 156.817C263.333 157.506 262.329 158.124 261.188 157.985L261.03 157.614C262.475 156.347 263.909 155.131 265.074 153.592L265.289 153.305C263.672 154.421 260.316 157.273 258.348 157.176L258.051 156.818C257.942 154.774 259.32 153.158 260.309 151.491C259.2 152.524 258.098 153.687 256.644 154.204L256.378 153.959C256.827 150.769 259.747 149.228 261.613 146.938C261.678 146.858 261.741 146.776 261.806 146.696C260.035 147.582 258.24 149.733 256.335 150.022L256.122 149.752C256.178 149.467 256.233 149.211 256.347 148.943C257.077 147.237 258.493 145.552 259.766 144.216C266.344 137.308 273.766 137.319 281.825 133.964L282.172 133.818Z" fill="#FBBCAF"/>
<path d="M82.99 132.643L100.464 132.646C108.574 132.666 116.684 132.887 124.791 132.873C129.649 132.899 134.894 133.309 139.692 132.652C144.307 132.629 149.312 132.22 153.85 133.073C154.491 133.661 155.188 134.235 155.739 134.906L155.828 138.648C155.779 140.238 155.773 141.754 154.485 142.9C152.642 144.541 149.129 144.164 146.848 144.079L146.849 190.803L146.885 221.155L146.874 229.069C146.881 230.354 147.06 231.703 146.876 232.977C146.72 234.05 146.272 235.126 145.478 235.883C144.835 236.496 143.86 237.022 142.944 236.961C142.155 236.907 141.522 236.63 141.016 236.022C140.337 235.206 140.184 233.95 140.113 232.929C139.78 228.142 140.224 223.205 140.27 218.404L140.326 191.674C129.866 192.163 119.506 193.141 109.089 194.205C109.154 198.822 109.938 233.65 108.398 235.482C107.877 236.103 106.931 236.292 106.155 236.275C105.126 236.252 103.847 235.857 103.147 235.062C102.525 234.354 102.478 233.127 102.417 232.224C102.103 227.61 102.5 222.874 102.545 218.246L102.574 194.581C90.9861 195.804 79.3104 197.571 67.6909 198.31C68.3569 205.585 67.8861 212.967 67.9098 220.261C67.9244 224.633 68.4954 229.377 67.889 233.692C67.7907 234.392 67.55 235.036 67.086 235.576C66.5033 236.255 65.939 236.309 65.0967 236.323C64.0917 236.34 63.0102 236.207 62.2187 235.528C60.9594 234.447 61.2534 230.527 61.268 228.958C61.3576 219.127 61.5886 209.293 61.5901 199.461L61.4075 144.305C59.4226 144.284 56.3388 144.569 54.8155 143.012C53.5378 141.707 53.6056 139.928 53.5552 138.232C53.6119 136.758 53.5988 135.048 54.7753 133.971C55.7033 133.122 57.104 132.948 58.3028 132.804C61.207 132.456 64.2797 132.646 67.2041 132.645L82.99 132.643ZM67.5238 144.186L67.6255 182.043C67.64 187.441 67.9331 192.924 67.6909 198.31C79.3104 197.571 90.9861 195.804 102.574 194.581C102.89 187.782 102.677 181.037 102.657 174.239L102.732 144.064C91.0141 144.015 79.2372 143.847 67.5238 144.186ZM109.057 143.86L109.089 194.205C119.506 193.141 129.866 192.163 140.326 191.674L140.549 144.075L109.057 143.86ZM82.99 132.643L67.2041 132.645C64.2797 132.646 61.207 132.456 58.3028 132.804C57.104 132.948 55.7033 133.122 54.7753 133.971C53.5988 135.048 53.6119 136.758 53.5552 138.232C77.1562 138.101 100.757 138.095 124.358 138.215L143.509 138.223C147.496 138.227 151.922 137.874 155.828 138.648L155.739 134.906C155.188 134.235 154.491 133.661 153.85 133.073C149.312 132.22 144.307 132.629 139.692 132.652C134.894 133.309 129.649 132.899 124.791 132.873C116.684 132.887 108.574 132.666 100.464 132.646L82.99 132.643Z" fill="#008B4B"/>
<path d="M82.99 132.643L100.464 132.646C108.574 132.666 116.684 132.887 124.791 132.873C129.649 132.899 134.894 133.309 139.692 132.652C144.307 132.629 149.312 132.22 153.85 133.073C154.491 133.661 155.188 134.235 155.739 134.906L155.828 138.648C151.922 137.874 147.496 138.227 143.509 138.223L124.358 138.215C100.757 138.095 77.1562 138.101 53.5552 138.232C53.6119 136.758 53.5988 135.048 54.7753 133.971C55.7033 133.122 57.104 132.948 58.3028 132.804C61.207 132.456 64.2797 132.646 67.2041 132.645L82.99 132.643Z" fill="#00FE58" fill-opacity="0.988235"/>
<path d="M391.028 102.307C391.209 106.274 391.148 110.258 391.152 114.228C399.67 113.948 410.355 112.392 417.146 118.756C421.807 123.124 423.02 128.639 423.193 134.814C423.382 141.542 423.123 148.329 423.13 155.065L423.167 200.405C423.279 209.783 423.285 219.161 423.187 228.539L390.151 228.17C382.344 228.111 374.557 228.233 366.749 228.048L366.755 168.829L366.766 148.386C366.771 141.463 367.568 133.404 365.469 126.761C363.5 120.528 357.906 117.162 352.438 114.33C356.681 113.644 361.203 114.095 365.494 114.106C373.988 114.095 382.481 114.145 390.974 114.255C391.01 110.275 390.825 106.283 391.028 102.307Z" fill="#008B4B"/>
</svg>
