<svg width="585" height="567" viewBox="0 0 585 567" fill="none" xmlns="http://www.w3.org/2000/svg">
<g clip-path="url(#clip0_2719_137)">
<path d="M441.354 216.584C453.339 199.592 481.46 151.983 497.384 142.673C499.548 141.407 502.036 140.543 504.53 141.272C506.736 141.918 508.366 143.191 509.444 145.23C515.235 156.191 505.209 181.711 500.983 192.549C499.566 196.182 497.636 199.844 496.586 203.581C496.559 203.676 496.534 203.772 496.509 203.868C490.721 202.773 474.387 198.301 469.778 201.327C468.525 202.15 467.646 203.294 467.068 204.669C464.831 209.985 464.065 216.436 462.869 222.079C460.851 231.73 458.727 241.358 456.498 250.963C454.184 247.842 452.104 244.332 447.9 243.726C444.683 243.263 441.552 244.937 439.106 246.881C435.204 249.983 432.418 254.272 429.705 258.393C421.518 270.825 415.51 283.759 409.65 297.39C409.193 298.453 407.331 303.716 406.393 303.899C406.553 295.08 406.318 286.277 406.246 277.461L406.173 246.368C406.167 244.853 405.717 235.887 405.963 235.078C406.024 234.88 406.189 234.73 406.301 234.556C410.111 225.839 411.981 216.488 416.666 208.073C418.789 204.259 421.992 199.993 426.432 198.846C428.73 198.253 431.071 198.671 433.095 199.89C438.493 203.142 439.888 210.979 441.354 216.584Z" fill="#C6FEE4"/>
<path d="M456.498 250.962C458.727 241.358 460.851 231.73 462.869 222.079C464.065 216.436 464.831 209.985 467.068 204.669C467.646 203.294 468.525 202.15 469.778 201.327C474.387 198.301 490.721 202.773 496.509 203.868C503.271 205.17 510.059 206.316 516.873 207.306C522.196 208.119 528.045 208.591 533.125 210.394C534.506 210.885 535.945 211.733 536.808 212.948C537.611 214.078 537.848 215.38 537.881 216.743C537.986 220.979 536.783 225.466 535.989 229.614L533.073 244.754C531.229 251.073 529.925 257.985 529.059 264.509C527.239 271.823 525.791 279.626 524.627 287.077C523.237 292.48 522.034 297.918 521.373 303.466C520.667 305.971 520.205 308.485 519.754 311.045C518.885 315.177 517.848 319.388 517.353 323.581C516.646 328.557 516.314 336.565 511.846 339.795C509.236 341.683 506.334 341.355 503.352 340.889C487.628 337.634 471.707 335.265 455.898 332.468C451.335 331.661 446.372 331.178 443.589 327.019C442.712 325.709 442.143 324.321 441.974 322.75C441.353 316.949 444.35 307.593 445.633 301.728L447.499 292.247C450.07 278.426 453.642 264.74 456.498 250.962ZM472.281 204.798C471.484 205.451 470.683 206.054 470.329 207.055C469.013 210.776 468.587 215.115 467.75 219.001L462.126 244.571C458.237 262.269 454.562 280.012 451.101 297.799C449.859 304.389 448.081 311.253 447.426 317.91C447.31 319.095 447.026 320.452 447.843 321.436C448.63 322.384 449.812 322.993 450.972 323.351C456.877 325.171 463.468 325.675 469.553 326.806C478.108 328.394 486.629 330.065 495.219 331.469C498.754 332.047 502.463 332.874 506.042 333.021C507.029 333.062 507.846 332.872 508.769 332.539C510.014 331.313 510.898 330.181 511.407 328.489C513.415 321.813 514.596 313.921 515.978 307.021L523.633 269.184L530.474 235.966C531.844 229.354 533.896 222.435 534.1 215.673C527.818 213.097 479.281 204.73 472.281 204.798Z" fill="#2C2DAC"/>
<path d="M472.281 204.798C479.281 204.73 527.818 213.097 534.1 215.673C533.896 222.435 531.844 229.354 530.474 235.966L523.633 269.184L515.978 307.021C514.596 313.921 513.415 321.813 511.407 328.489C510.898 330.181 510.014 331.313 508.769 332.539C507.846 332.872 507.029 333.062 506.042 333.021C502.463 332.874 498.754 332.047 495.219 331.469C486.629 330.065 478.108 328.394 469.553 326.806C463.468 325.675 456.877 325.171 450.972 323.351C449.812 322.993 448.63 322.384 447.843 321.436C447.026 320.452 447.31 319.095 447.426 317.91C448.081 311.253 449.859 304.389 451.101 297.798C454.562 280.012 458.237 262.269 462.126 244.571L467.75 219.001C468.587 215.115 469.013 210.776 470.329 207.055C470.683 206.054 471.484 205.451 472.281 204.798ZM472.887 219.441C470.867 224.478 470.241 230.222 469.127 235.518C468.022 240.77 466.643 245.963 465.547 251.213C465.195 252.9 464.699 254.399 465.704 255.932C465.086 256.783 464.505 257.477 464.304 258.527C464.96 259.361 466.699 259.65 467.708 259.903C474.91 261.713 482.405 262.671 489.707 264.034C498.481 265.672 507.378 267.719 516.244 268.765C517.045 268.863 517.847 268.946 518.65 269.016C518.81 267.508 519.07 265.954 518.972 264.437C520.592 260.471 521.129 255.556 522.019 251.351C524.022 241.88 526.01 232.465 527.767 222.942C520.672 221.528 513.421 220.704 506.282 219.505C496.554 217.871 486.715 215.874 476.914 214.799C476.062 214.705 475.3 214.536 474.514 214.917C474.03 215.684 473.824 216.021 473.816 216.964C474.115 217.836 474.559 218.218 475.243 218.826L475.507 219.057L475.337 219.281L472.887 219.441Z" fill="#FEFEFE"/>
<path d="M496.127 316.236C497.277 316.183 498.356 316.128 499.459 316.511C501.202 317.116 502.817 318.506 503.546 320.216C504.019 321.326 504.08 322.495 503.615 323.618C502.989 325.126 501.651 325.895 500.228 326.526C499.398 326.648 498.475 326.841 497.636 326.749C496.062 326.577 494.382 325.39 493.5 324.109C492.679 322.918 492.362 321.463 492.724 320.052C493.208 318.172 494.515 317.145 496.127 316.236Z" fill="#65FEB9"/>
<path d="M496.491 319.525C496.909 320.122 497.193 320.727 497.49 321.388C498.339 321.387 498.459 320.366 499.39 320.131C499.631 320.85 499.395 321.244 499.206 321.957C499.955 322.617 501.844 322.221 502.904 322.678C502.472 323.288 502.357 323.17 501.663 323.342C495.457 323.366 499.32 323.381 496.472 325.947L495.99 325.644C495.839 325.271 495.721 324.982 495.666 324.581C495.413 322.724 495.405 321.029 496.491 319.525Z" fill="#C6FEE4"/>
<path d="M459.69 307.932C461.014 308.033 462.242 308.212 463.365 308.967C464.841 309.959 465.875 311.618 466.173 313.363C466.399 314.687 466.218 316.011 465.416 317.116C464.499 318.378 463.486 318.751 461.991 318.986C461.161 318.915 460.321 318.844 459.509 318.645C457.882 318.247 456.281 317.166 455.488 315.662C455.412 315.519 455.343 315.372 455.283 315.221C455.222 315.07 455.169 314.917 455.125 314.761C455.08 314.605 455.044 314.446 455.017 314.286C454.99 314.126 454.97 313.965 454.96 313.803C454.95 313.641 454.948 313.479 454.955 313.317C454.962 313.154 454.977 312.993 455.001 312.833C455.025 312.672 455.058 312.513 455.099 312.356C455.139 312.199 455.189 312.044 455.246 311.892C456.036 309.803 457.795 308.831 459.69 307.932Z" fill="#65FEB9"/>
<path d="M460.473 310.926C461.03 311.346 461.155 311.659 461.277 312.328C461.638 314.304 462.105 313.704 463.229 314.916L462.577 316.326L461.885 316.694L461.28 316.408C460.269 314.775 460.462 312.777 460.473 310.926Z" fill="#C6FEE4"/>
<path d="M455.734 299.387C459.176 299.445 462.701 300.092 466.085 300.708C473.005 301.967 479.826 303.792 486.707 305.245C492.549 306.479 498.47 307.325 504.307 308.586C505.26 308.792 507.186 309.023 507.941 309.624C508.243 309.865 508.2 310.383 508.256 310.744C505.816 310.813 503.285 310.407 500.89 309.99C491.679 308.391 482.531 306.101 473.371 304.21C469.487 303.409 459.724 302.115 456.591 300.618C455.946 300.31 455.97 300.027 455.734 299.387Z" fill="#97B9F3"/>
<path d="M478.209 311.642C479.137 311.595 480.1 311.524 480.985 311.861C482.418 312.405 483.569 313.607 484.18 314.996C484.27 315.195 484.349 315.398 484.418 315.606C484.487 315.813 484.545 316.023 484.592 316.236C484.64 316.449 484.676 316.664 484.7 316.881C484.726 317.098 484.739 317.316 484.742 317.534C484.744 317.752 484.736 317.97 484.716 318.188C484.696 318.405 484.664 318.621 484.622 318.835C484.58 319.05 484.527 319.261 484.463 319.47C484.399 319.678 484.324 319.883 484.239 320.084C483.474 321.885 482.137 322.684 480.386 323.367C479.53 323.392 478.607 323.435 477.77 323.231C476.317 322.877 475.023 321.926 474.31 320.605C473.584 319.261 473.544 317.546 473.995 316.111C474.704 313.851 476.167 312.664 478.209 311.642Z" fill="#65FEB9"/>
<path d="M460.574 277.927C466.24 277.764 473.221 279.669 478.888 280.681C490.513 282.758 502.181 284.821 513.755 287.169L513.718 287.615C513.565 289.357 513.559 291.739 512.134 292.945C500.538 291.032 488.97 288.961 477.43 286.733C471.923 285.685 466.108 284.919 460.711 283.42C459.788 283.164 459.109 282.998 458.482 282.266C458.473 280.559 459.611 279.236 460.574 277.927Z" fill="#C6FEE4"/>
<path d="M457.793 288.026C470.535 290.573 483.385 292.654 496.146 295.137C500.536 295.99 505.95 296.398 510.03 298.183C510.776 298.51 511.38 298.989 511.597 299.819C511.933 301.099 511.118 302.421 510.557 303.506C509.935 303.536 509.303 303.516 508.68 303.491C505.469 303.36 502.258 302.864 499.091 302.332C491.879 301.12 484.771 299.368 477.591 297.991C471.4 296.803 465.054 296.03 458.921 294.6C458.125 294.415 457.433 294.339 456.878 293.731C456.374 291.861 457.246 289.819 457.793 288.026Z" fill="#C6FEE4"/>
<path d="M462.689 266.718C468.764 266.945 476.772 269.114 482.911 270.237C494.201 272.303 505.789 273.885 516.93 276.607L515.427 282.934C506.807 281.331 498.275 279.271 489.631 277.72C480.19 276.026 470.609 274.833 461.224 272.884C461.322 270.67 461.936 268.775 462.689 266.718Z" fill="#C6FEE4"/>
<path d="M472.887 219.441L475.337 219.281L475.507 219.057L475.243 218.826C474.559 218.219 474.115 217.836 473.816 216.964C473.824 216.022 474.03 215.685 474.514 214.917C475.3 214.536 476.062 214.705 476.914 214.799C486.715 215.875 496.554 217.871 506.282 219.505C513.421 220.705 520.672 221.528 527.767 222.942C526.01 232.466 524.022 241.88 522.019 251.351C521.129 255.557 520.592 260.471 518.972 264.438C519.07 265.954 518.81 267.508 518.651 269.016C517.847 268.946 517.045 268.863 516.244 268.765C507.378 267.719 498.481 265.672 489.707 264.035C482.405 262.671 474.91 261.713 467.708 259.903C466.699 259.65 464.96 259.361 464.304 258.528C464.505 257.478 465.086 256.783 465.704 255.932C464.699 254.4 465.195 252.901 465.547 251.213C466.643 245.963 468.022 240.77 469.127 235.519C470.241 230.222 470.867 224.478 472.887 219.441ZM465.704 255.932C465.086 256.783 464.505 257.478 464.304 258.528C464.96 259.361 466.699 259.65 467.708 259.903C474.91 261.713 482.405 262.671 489.707 264.035C498.481 265.672 507.378 267.719 516.244 268.765C517.045 268.863 517.847 268.946 518.651 269.016C518.81 267.508 519.07 265.954 518.972 264.438C514.06 257.229 509.52 249.723 504.719 242.432C501.183 245.502 497.43 248.285 493.994 251.477C490.801 246.061 487.661 240.603 484.209 235.346C478.144 242.291 471.86 249.066 465.704 255.932Z" fill="#C6FEE4"/>
<path d="M465.704 255.932C471.86 249.066 478.144 242.291 484.209 235.346C487.661 240.603 490.801 246.06 493.994 251.477C497.43 248.285 501.183 245.502 504.719 242.432C509.52 249.722 514.06 257.228 518.972 264.437C519.07 265.954 518.81 267.508 518.651 269.016C517.847 268.946 517.045 268.862 516.244 268.765C507.378 267.719 498.481 265.672 489.707 264.034C482.405 262.671 474.91 261.713 467.708 259.903C466.699 259.649 464.96 259.361 464.304 258.527C464.505 257.477 465.086 256.783 465.704 255.932Z" fill="#00FE58" fill-opacity="0.988235"/>
<path d="M406.393 303.899C407.331 303.716 409.193 298.453 409.65 297.39C415.51 283.759 421.518 270.825 429.705 258.393C432.418 254.272 435.204 249.984 439.106 246.881C441.552 244.937 444.683 243.263 447.9 243.726C452.104 244.332 454.184 247.842 456.498 250.963C453.642 264.74 450.07 278.426 447.499 292.248L445.633 301.728C444.35 307.594 441.353 316.949 441.974 322.75C442.143 324.321 442.712 325.71 443.589 327.02C446.372 331.178 451.336 331.661 455.898 332.468C471.707 335.265 487.628 337.635 503.352 340.889C497.702 350.924 489.572 359.953 485.065 370.551C495.571 373.979 508.839 378.192 514.302 388.762C515.771 391.602 516.207 394.448 516.101 397.603C514.904 399.926 514.031 402.488 512.437 404.576C506.071 412.923 492.515 418.506 482.748 422.01C477.726 423.567 472.81 425.417 467.753 426.878C453.239 431.072 435.896 434.767 420.897 436.656C421.429 433.283 423.085 429.774 424.275 426.571C425.514 423.224 426.684 419.853 427.784 416.457C428.209 414.93 428.805 413.449 429.357 411.964C430.93 407.551 432.32 403.043 433.648 398.55C435.243 394.715 436.353 390.623 437.681 386.685C439.334 381.778 442.104 376.45 442.333 371.217C442.474 367.991 441.515 364.727 440.645 361.656C429.115 360.195 417.775 360.601 406.194 361.137L406.209 323.491C406.178 317.254 405.239 310.039 406.393 303.899Z" fill="#FB9994"/>
<path d="M444.762 292.103L447.499 292.248L445.633 301.728C445.392 301.515 445.259 301.409 445.036 301.159C443.728 299.685 444.612 294.181 444.762 292.103Z" fill="#F5BC9F"/>
<path d="M485.065 370.551C495.571 373.978 508.839 378.192 514.302 388.762C515.771 391.602 516.207 394.448 516.101 397.603C514.904 399.926 514.031 402.487 512.437 404.576C506.071 412.923 492.515 418.506 482.748 422.01L483.114 398.44C483.222 390.709 482.359 377.507 485.065 370.551Z" fill="#C6FEE4"/>
<path d="M406.393 303.899C407.331 303.716 409.193 298.453 409.65 297.39C415.51 283.759 421.518 270.825 429.705 258.393C432.418 254.272 435.204 249.984 439.106 246.881C441.552 244.937 444.683 243.263 447.9 243.726C452.104 244.332 454.184 247.842 456.498 250.963C453.642 264.74 450.07 278.426 447.499 292.248L444.762 292.103C444.517 281.995 447.713 267.779 439.255 259.923C437.117 257.938 434.902 257.277 432.136 256.715C432.871 263.624 434.329 271.092 433.633 278.025C432.498 289.332 427.392 300.153 427.084 311.508C426.783 322.646 431.766 334.302 435.146 344.785C436.96 350.408 438.589 356.116 440.645 361.656C429.115 360.195 417.775 360.601 406.194 361.137L406.209 323.491C406.178 317.254 405.239 310.039 406.393 303.899Z" fill="#65FEB9"/>
<path d="M136.889 302.705C137.381 299.188 137.176 295.45 137.163 291.906L137.137 276.183L136.985 217.348L137.034 204.001C137.042 201.444 136.874 198.702 137.242 196.174C137.506 194.365 138.245 192.881 139.79 191.832C140.347 191.454 140.984 191.173 141.628 190.978C144.782 190.025 159.443 190.715 163.692 190.72L220.841 190.799L352.245 190.809L388.267 190.769C392.373 190.781 397.262 190.105 401.283 190.846C403.552 191.264 404.531 192.244 405.817 194.079C406.319 203.328 405.921 212.761 405.901 222.031C405.892 226.025 405.441 230.676 406.301 234.556C406.189 234.73 406.024 234.88 405.963 235.078C405.717 235.887 406.167 244.853 406.173 246.368L406.246 277.461C406.318 286.277 406.553 295.08 406.393 303.899C405.239 310.038 406.178 317.254 406.209 323.491L406.194 361.137L403.583 361.078C402.507 360.186 401.526 359.175 400.524 358.2L223.97 358.19L168.53 358.193C158.487 358.197 148.154 358.78 138.16 357.883C137.441 355.956 137.085 354.09 136.931 352.05C136.396 344.97 136.874 337.616 136.96 330.507C137.072 321.226 136.936 311.982 136.889 302.705ZM146.594 198.529C146.301 249.344 146.444 300.158 147.025 350.972L396.207 350.825L396.486 198.754L146.594 198.529Z" fill="#008B4B"/>
<path d="M146.594 198.529L396.486 198.754L396.207 350.825L147.025 350.973C146.444 300.159 146.3 249.345 146.594 198.529ZM172.788 218.527C172.744 232.475 172.809 246.422 172.983 260.368C172.995 265.172 172.105 272.825 173.267 277.279C174.039 277.833 174.989 277.661 175.895 277.637L230.115 277.695C246.566 277.566 263.018 277.568 279.469 277.7C283.215 278.319 290.523 277.739 294.771 277.924L294.504 218.459L172.788 218.527Z" fill="#FEFEFE"/>
<path d="M314 321.106C316.081 320.997 318.079 321.189 320.012 322.017C320.184 322.089 320.355 322.166 320.525 322.247C320.694 322.327 320.861 322.413 321.026 322.502C321.19 322.592 321.352 322.685 321.512 322.783C321.672 322.88 321.83 322.982 321.985 323.088C322.139 323.194 322.291 323.303 322.441 323.417C322.59 323.53 322.736 323.647 322.879 323.769C323.022 323.89 323.162 324.014 323.299 324.142C323.436 324.271 323.57 324.402 323.7 324.537C323.83 324.672 323.956 324.81 324.079 324.952C324.202 325.093 324.322 325.237 324.437 325.385C324.553 325.533 324.665 325.683 324.773 325.836C324.881 325.989 324.985 326.145 325.085 326.304C325.185 326.462 325.281 326.623 325.373 326.787C325.464 326.95 325.552 327.116 325.635 327.284C325.718 327.452 325.797 327.622 325.872 327.794C325.946 327.966 326.017 328.139 326.083 328.315C326.146 328.487 326.205 328.661 326.26 328.837C326.315 329.012 326.365 329.188 326.411 329.366C326.456 329.544 326.497 329.723 326.534 329.903C326.571 330.083 326.603 330.264 326.63 330.445C326.657 330.627 326.679 330.809 326.697 330.992C326.715 331.174 326.729 331.357 326.737 331.541C326.746 331.725 326.75 331.908 326.749 332.092C326.748 332.275 326.743 332.459 326.732 332.642C326.722 332.826 326.707 333.008 326.688 333.191C326.668 333.374 326.644 333.556 326.615 333.737C326.586 333.918 326.553 334.099 326.515 334.279C326.476 334.458 326.434 334.637 326.387 334.814C326.339 334.991 326.288 335.168 326.231 335.342C326.175 335.517 326.114 335.69 326.049 335.862C325.984 336.034 325.914 336.204 325.84 336.372C325.767 336.54 325.688 336.706 325.606 336.871C323.939 340.176 321.171 341.741 317.81 342.889C315.101 343.185 312.375 342.903 309.977 341.528C309.818 341.438 309.663 341.343 309.51 341.244C309.356 341.145 309.205 341.042 309.057 340.936C308.909 340.829 308.764 340.719 308.621 340.605C308.479 340.491 308.339 340.373 308.202 340.252C308.066 340.131 307.933 340.006 307.803 339.878C307.673 339.75 307.546 339.619 307.423 339.485C307.3 339.35 307.18 339.213 307.063 339.072C306.947 338.931 306.835 338.788 306.726 338.642C306.617 338.495 306.512 338.346 306.411 338.194C306.31 338.042 306.212 337.888 306.119 337.731C306.026 337.574 305.936 337.415 305.851 337.254C305.766 337.092 305.685 336.929 305.608 336.763C305.532 336.597 305.459 336.43 305.391 336.261C305.323 336.092 305.259 335.921 305.2 335.748C305.14 335.575 305.085 335.402 305.035 335.226C304.984 335.051 304.938 334.875 304.897 334.697C304.213 331.802 304.628 328.626 306.208 326.085C308.016 323.179 310.792 321.867 314 321.106Z" fill="#C6FEE4"/>
<path d="M358.618 321.114C361.311 320.931 364.025 321.41 366.3 322.923C366.591 323.119 366.873 323.329 367.144 323.552C367.415 323.776 367.675 324.013 367.923 324.262C368.171 324.511 368.406 324.772 368.628 325.044C368.851 325.316 369.059 325.599 369.254 325.892C369.449 326.185 369.629 326.486 369.794 326.797C369.959 327.107 370.108 327.425 370.242 327.75C370.376 328.075 370.494 328.406 370.595 328.742C370.697 329.079 370.781 329.42 370.849 329.765C371.482 332.889 370.799 336.303 368.938 338.902C366.952 341.676 364.34 342.733 361.094 343.222C358.573 343.439 355.897 342.885 353.755 341.523C351.213 339.907 349.432 337.191 348.832 334.251C348.794 334.071 348.761 333.89 348.733 333.709C348.705 333.528 348.681 333.345 348.662 333.163C348.643 332.98 348.628 332.797 348.618 332.614C348.608 332.43 348.603 332.247 348.602 332.063C348.602 331.879 348.606 331.696 348.615 331.512C348.624 331.329 348.637 331.146 348.655 330.963C348.673 330.78 348.695 330.598 348.723 330.416C348.75 330.235 348.782 330.054 348.818 329.874C348.855 329.694 348.896 329.515 348.941 329.337C348.986 329.159 349.036 328.982 349.091 328.807C349.145 328.631 349.204 328.458 349.267 328.285C349.33 328.112 349.398 327.942 349.47 327.773C349.542 327.604 349.618 327.437 349.699 327.272C349.779 327.107 349.863 326.944 349.952 326.782C350.04 326.622 350.133 326.463 350.23 326.307C350.327 326.151 350.427 325.997 350.532 325.846C352.497 323.024 355.347 321.769 358.618 321.114Z" fill="#C6FEE4"/>
<path d="M181.28 304.049C193.195 303.561 205.293 304.237 217.24 304.196C226.067 304.15 234.894 304.167 243.72 304.248C247.294 304.282 251.108 304.021 254.659 304.331C255.831 304.433 257.123 304.646 258.067 305.406C258.7 305.915 259.03 306.591 259.108 307.394C259.213 308.476 258.845 309.495 258.127 310.308C256.855 311.749 254.344 311.39 252.581 311.427L203.485 311.338C194.874 311.356 186.095 311.813 177.501 311.457C176.764 311.427 176.09 311.257 175.475 310.834C175.357 310.752 175.243 310.665 175.133 310.573C175.024 310.48 174.919 310.382 174.819 310.279C174.719 310.176 174.624 310.068 174.535 309.956C174.446 309.843 174.362 309.726 174.285 309.606C174.207 309.485 174.136 309.361 174.071 309.233C174.005 309.105 173.947 308.974 173.895 308.84C173.842 308.706 173.797 308.57 173.758 308.432C173.72 308.293 173.688 308.153 173.663 308.012C173.489 307.066 173.608 306.043 174.248 305.283C175.57 303.712 179.352 304.109 181.28 304.049Z" fill="#C6FEE4"/>
<path d="M177.292 334.335L237.213 334.209L257.558 334.234C260.822 334.255 264.207 334.123 267.458 334.364C268.416 334.435 269.408 334.664 270.255 335.128C271.167 335.628 272.078 336.56 272.252 337.627C272.393 338.495 272.22 339.269 271.637 339.944C270.681 341.051 269.562 341.379 268.15 341.447C262.712 341.796 257.175 341.591 251.724 341.593L222.919 341.642C211.588 341.676 200.262 341.953 188.931 341.925C185.686 341.917 182.41 342.099 179.17 341.968C177.784 341.912 176.231 341.748 175.025 340.999C174.216 340.498 173.615 339.74 173.415 338.798C173.218 337.868 173.254 336.509 173.878 335.745C174.715 334.72 176.064 334.498 177.292 334.335Z" fill="#C6FEE4"/>
<path d="M179.043 319.186C184.937 318.775 191.098 319.165 197.011 319.25C205.12 319.335 213.229 319.361 221.339 319.329C243.75 319.352 266.218 318.704 288.619 319.069C290.173 319.094 292.637 318.884 293.921 319.743C295.011 321.758 294.543 324.462 294.436 326.689C292.955 326.786 291.436 326.747 289.95 326.765L222.398 326.515C212.726 326.598 203.054 326.619 193.381 326.578C188.756 326.538 184.074 326.615 179.46 326.267C177.776 326.14 175.41 325.894 174.093 324.753C173.552 324.285 173.204 323.71 173.221 322.971C173.241 322.074 173.967 321.021 174.564 320.398C175.762 319.145 177.445 319.258 179.043 319.186Z" fill="#C6FEE4"/>
<path d="M278.339 289.199C283.622 289.019 288.921 289.079 294.206 289.064C294.264 291.171 294.765 294.894 293.427 296.597C291.197 297.622 200.857 297.015 190.006 297.015C186.135 297.073 177.799 297.972 174.611 295.85C173.824 295.326 173.368 294.669 173.227 293.719C173.077 292.705 173.634 291.405 174.339 290.691C175.363 289.655 177.638 289.763 179.037 289.697C188.724 289.246 198.597 289.667 208.307 289.666C231.653 289.822 254.997 289.667 278.339 289.199Z" fill="#C6FEE4"/>
<path d="M304.453 289.075C326.592 289.086 348.709 289.5 370.848 289.088C370.995 298.616 370.795 308.175 370.764 317.705C361.167 318.172 351.508 317.825 341.903 317.74L304.257 317.66C304.092 308.127 304.47 298.606 304.453 289.075Z" fill="#C6FEE4"/>
<path d="M388.243 215.048C373.093 215.239 357.926 215.036 342.773 215.021L245.822 214.842C221.471 214.813 197.146 215.02 172.801 214.284C166.887 214.105 160.856 214.566 154.967 214.128C153.622 214.028 151.744 213.837 150.767 212.814C149.763 211.764 149.698 209.833 149.885 208.491C150.046 207.337 150.435 206.111 151.427 205.405C153.008 204.28 164.113 204.876 166.158 205.354C166.236 205.371 166.313 205.393 166.389 205.413L166.678 205.411C168.235 205.434 169.856 205.22 171.426 205.183C175.164 205.098 178.913 205.15 182.654 205.141L232.046 205.106L388.495 205.082C388.691 208.468 388.991 211.712 388.243 215.048Z" fill="#C6FEE4"/>
<path d="M159.154 205.507C159.75 205.598 160.339 205.854 160.77 206.286C161.25 206.765 161.461 207.357 161.442 208.029C161.398 209.578 160.732 210.366 159.64 211.381C159.08 211.091 158.556 210.746 158.067 210.347C157.571 209.939 157.198 209.378 157.195 208.72C157.19 207.307 158.249 206.454 159.154 205.507Z" fill="#00FE58"/>
<path d="M166.678 205.411C168.038 205.756 169.202 206.366 170.002 207.553C170.057 207.97 170.184 208.293 170.002 208.693C169.677 209.408 169.014 209.904 168.305 210.209C167.284 210.65 166.408 210.692 165.369 210.288C165.052 209.9 164.887 209.8 164.802 209.284C164.562 207.811 165.574 206.525 166.389 205.413L166.678 205.411Z" fill="#00FE58"/>
<path d="M304.349 223.351L370.784 223.37L370.761 261.169C370.774 267.628 371.121 274.051 370.769 280.506C348.571 280.463 326.384 280.092 304.184 280.353C304.093 261.352 304.148 242.351 304.349 223.351Z" fill="#C6FEE4"/>
<path d="M172.788 218.526L294.504 218.458L294.771 277.924C290.523 277.738 283.215 278.319 279.469 277.7C263.018 277.567 246.566 277.566 230.115 277.695L175.895 277.637C174.989 277.661 174.039 277.833 173.267 277.278C172.105 272.825 172.995 265.172 172.983 260.368C172.809 246.421 172.744 232.474 172.788 218.526ZM208.644 244.575C204.074 249.228 199.612 253.969 194.988 258.574C188.618 264.922 182.094 271.121 175.895 277.637L230.115 277.695C246.566 277.566 263.018 277.567 279.469 277.7C273.653 272.375 267.894 266.884 262.277 261.349C257.12 256.268 252.098 251.069 246.494 246.469C240.186 253.099 233.833 259.684 227.435 266.226C221.464 258.755 215.2 251.538 208.644 244.575ZM188.279 224.815C185.925 225.981 184.185 227.306 183.291 229.884C183.203 230.139 183.13 230.398 183.07 230.661C183.009 230.924 182.963 231.19 182.931 231.458C182.898 231.725 182.88 231.994 182.876 232.264C182.871 232.534 182.881 232.803 182.905 233.072C182.929 233.34 182.967 233.607 183.019 233.872C183.071 234.137 183.136 234.398 183.215 234.656C183.294 234.914 183.387 235.167 183.493 235.416C183.598 235.664 183.717 235.906 183.848 236.142C184.839 237.921 186.48 239.137 188.443 239.645C189.687 239.967 190.983 239.93 192.234 239.66C194.567 238.663 196.559 237.436 197.564 234.984C198.276 233.247 198.181 231.263 197.418 229.56C196.512 227.538 194.747 226.046 192.678 225.299C191.249 224.782 189.78 224.741 188.279 224.815Z" fill="#C6FEE4"/>
<path d="M188.279 224.815C189.78 224.741 191.249 224.782 192.678 225.299C194.747 226.046 196.512 227.538 197.418 229.561C198.181 231.264 198.276 233.247 197.564 234.984C196.559 237.436 194.567 238.663 192.234 239.66C190.983 239.93 189.687 239.967 188.443 239.646C186.48 239.137 184.839 237.921 183.848 236.142C183.717 235.906 183.598 235.664 183.493 235.416C183.387 235.167 183.294 234.914 183.215 234.656C183.136 234.399 183.071 234.137 183.019 233.872C182.967 233.607 182.929 233.341 182.905 233.072C182.881 232.803 182.871 232.534 182.876 232.264C182.88 231.994 182.898 231.726 182.931 231.458C182.963 231.19 183.009 230.925 183.07 230.661C183.13 230.398 183.203 230.139 183.291 229.884C184.185 227.306 185.925 225.981 188.279 224.815Z" fill="#00FE58" fill-opacity="0.988235"/>
<path d="M208.644 244.575C215.2 251.538 221.464 258.755 227.435 266.226C233.833 259.684 240.186 253.099 246.494 246.47C252.098 251.07 257.12 256.268 262.277 261.349C267.894 266.885 273.653 272.375 279.469 277.7C263.018 277.568 246.566 277.566 230.115 277.695L175.895 277.637C182.094 271.121 188.618 264.922 194.988 258.575C199.612 253.969 204.074 249.228 208.644 244.575Z" fill="#00FE58" fill-opacity="0.988235"/>
<path d="M0.272813 317.37C1.48602 314.1 3.20723 311.063 6.39575 309.372C15.1775 304.714 30.4021 311.057 38.7877 314.854C41.3158 315.999 44.0499 317.82 46.6934 318.5C47.7826 318.78 48.5487 318.761 49.5312 318.145C52.0756 314.854 46.753 308.101 45.0395 305.306C27.2672 276.32 8.93622 231.876 14.1087 197.103C14.8542 192.092 16.4216 186.277 20.8002 183.203C23.8477 181.062 27.6724 180.839 31.2261 181.525C38.8576 183 46.0732 188.209 52.333 192.629C79.7708 212.002 100.973 237.209 117.892 266.097C122.268 273.505 126.314 281.09 130.032 288.849C132.181 293.26 133.952 298.391 136.707 302.444C136.766 302.532 136.828 302.619 136.889 302.705C136.936 311.983 137.072 321.226 136.96 330.507C136.874 337.616 136.396 344.97 136.931 352.05C137.085 354.091 137.441 355.956 138.16 357.883C148.154 358.78 158.487 358.197 168.53 358.194L223.97 358.19L400.524 358.2C401.526 359.175 402.507 360.186 403.583 361.079L406.194 361.137C417.775 360.601 429.115 360.195 440.645 361.656C441.515 364.727 442.474 367.991 442.333 371.217C442.104 376.45 439.334 381.778 437.681 386.684C436.353 390.623 435.243 394.715 433.648 398.55C432.32 403.043 430.93 407.551 429.357 411.963C428.805 413.449 428.209 414.929 427.784 416.457C426.684 419.852 425.514 423.224 424.275 426.571C423.085 429.774 421.429 433.283 420.897 436.655C417.373 437.699 413.312 437.923 409.67 438.351C402.339 439.207 394.997 439.954 387.644 440.592C364.245 442.651 340.806 444.018 317.328 444.695C293.848 445.372 270.37 445.356 246.892 444.648C206.416 443.453 86.6223 436.935 59.7277 408.063C56.0022 404.063 54.3666 400.214 54.561 394.697C49.4122 391.86 44.3742 389.065 39.5243 385.719C17.9169 370.813 5.08951 352.717 0.237076 326.496L0 326.398V317.467L0.272813 317.37Z" fill="#00FE58" fill-opacity="0.988235"/>
<path d="M0 317.468L0.272813 317.371C0.449229 320.318 0.659947 323.573 0.237076 326.496L0 326.398V317.468Z" fill="#00FE58"/>
<path d="M93.1715 327.577L93.4429 327.149C94.4427 326.516 95.7286 326.425 96.8826 326.469C99.3123 335.941 100.927 345.485 102.075 355.191L98.3737 355.397C97.23 345.995 95.8149 336.691 93.1715 327.577Z" fill="#2C2DAC"/>
<path d="M406.194 361.137C417.775 360.601 429.115 360.195 440.645 361.656C441.515 364.727 442.474 367.991 442.333 371.217C442.104 376.45 439.334 381.778 437.681 386.684C436.353 390.623 435.243 394.715 433.648 398.55C423.538 386.103 414.219 373.105 403.583 361.079L406.194 361.137Z" fill="#C6FEE4"/>
<path d="M246.02 386.607C253.355 387.235 260.636 386.791 267.981 386.769L302.679 386.721C307.345 392.553 311.683 398.723 316.153 404.712C289.239 404.356 262.325 404.27 235.411 404.452C238.877 398.466 242.525 392.579 246.02 386.607Z" fill="#2C2DAC"/>
<path d="M93.1715 327.577C92.8225 326.856 92.073 326.864 91.3428 326.783C83.3482 325.894 78.8425 324.355 73.245 318.277C62.8064 306.944 61.3193 288.388 61.9237 273.56C62.3225 263.774 65.5446 242.543 72.7 236.261C73.8614 235.241 75.2885 234.571 76.8607 234.702C82.3536 235.158 89.0577 242.472 92.4637 246.335C104.371 259.838 115.145 283.378 113.917 301.529C113.371 309.605 110.316 317.577 103.457 322.3C101.525 323.631 98.7022 324.705 97.0689 326.262C97.002 326.326 96.9449 326.4 96.8826 326.469C95.7286 326.426 94.4427 326.516 93.4429 327.149L93.1715 327.577Z" fill="#008B4B"/>
<path d="M166.963 364.791C174.51 365.447 182.247 365.13 189.825 365.129L226.965 365.092L333.933 365.06L365.246 364.995C371.714 364.972 378.549 364.471 384.952 365.458C389.564 369.533 396.468 381.158 399.524 386.759C377.559 386.577 355.594 386.572 333.629 386.745C323.31 386.766 312.997 386.929 302.679 386.721L267.981 386.769C260.636 386.791 253.355 387.235 246.02 386.607C234.157 385.762 222.003 386.41 210.106 386.43L151.93 386.188C156.993 379.096 161.804 371.808 166.963 364.791Z" fill="#C6FEE4"/>
<path d="M54.561 394.697C58.9393 383.401 69.3705 377.829 79.9536 373.16C93.8582 367.024 108.628 363.314 123.469 360.253C128.336 359.248 133.217 358.034 138.201 357.909C134.819 361.906 131.688 366.101 128.407 370.18C123.866 375.825 119.165 381.354 114.52 386.915C107.962 394.766 100.446 402.416 94.9351 411.037C96.0794 411.518 97.1163 411.921 98.3623 412.044C106.195 412.82 114.535 412.126 122.413 412.037C134.706 411.898 147.009 411.995 159.303 411.999L339.489 411.879L398.046 411.921C408.432 411.919 418.994 411.42 429.357 411.963C428.805 413.449 428.209 414.93 427.784 416.457C426.684 419.853 425.514 423.224 424.275 426.571C423.085 429.774 421.429 433.283 420.897 436.656C417.373 437.699 413.312 437.923 409.67 438.351C402.339 439.207 394.997 439.954 387.644 440.592C364.245 442.651 340.806 444.019 317.328 444.695C293.848 445.372 270.37 445.356 246.892 444.648C206.416 443.453 86.6223 436.935 59.7277 408.063C56.0022 404.064 54.3666 400.214 54.561 394.697Z" fill="#C6FEE4"/>
<path d="M94.9351 411.038C96.0794 411.518 97.1163 411.921 98.3623 412.044C106.195 412.821 114.535 412.126 122.413 412.037C134.706 411.898 147.009 411.995 159.303 411.999L339.489 411.88L398.046 411.921C408.432 411.92 418.994 411.42 429.357 411.964C428.805 413.45 428.209 414.93 427.784 416.457C418.907 415.84 409.846 416.359 400.944 416.397L354.011 416.417L183.31 416.328L130.049 416.331C119.258 416.356 108.376 416.763 97.6047 416.14C97.4688 416.031 97.3317 415.923 97.1968 415.811C95.4121 414.343 95.1219 413.322 94.9351 411.038Z" fill="#008B4B"/>
<path d="M540.718 243.486C543.218 242.273 545.718 240.051 548.027 238.461C551.987 235.733 556.122 233.303 560.431 231.169C565.4 228.737 572.483 225.62 578.059 227.678C581.944 229.112 583.332 232.438 585 235.918V247.576L584.897 247.924C583.132 254.058 582.423 260.352 580.315 266.436C577.585 274.294 573.5 281.572 569.311 288.724C560.704 303.412 553.223 314.756 540.056 325.774C549.121 323.915 565.831 321.277 573.82 326.578C576.139 328.113 577.659 330.377 578.15 333.114C579.63 341.345 573.614 351.438 568.992 357.751C558.629 371.911 543.373 382.383 528.369 391.064C524.448 393.333 520.273 395.837 516.101 397.603C516.207 394.448 515.771 391.602 514.302 388.762C508.839 378.192 495.571 373.979 485.065 370.551C489.572 359.953 497.702 350.924 503.352 340.889C506.334 341.356 509.236 341.683 511.846 339.796C516.314 336.565 516.646 328.558 517.353 323.581C517.848 319.389 518.885 315.177 519.754 311.045C520.205 308.485 520.667 305.972 521.373 303.466C522.034 297.919 523.237 292.481 524.627 287.078C525.791 279.627 527.239 271.823 529.059 264.51C529.925 257.986 531.229 251.073 533.073 244.755C535.537 243.761 538.059 242.461 540.718 243.486Z" fill="#00FE58" fill-opacity="0.988235"/>
<path d="M519.754 311.045C519.858 311.014 519.962 310.984 520.066 310.951C523.217 309.954 528.041 305.639 531.349 307.31C531.778 307.527 531.796 307.808 531.989 308.22C531.548 312.313 523.325 318.833 520.088 321.444C519.189 322.173 518.277 322.885 517.353 323.581C517.848 319.388 518.885 315.177 519.754 311.045Z" fill="#F5BC9F"/>
<path d="M533.073 244.755C535.537 243.761 538.059 242.461 540.718 243.486C540.789 244.319 540.912 245.192 540.702 246.012C539.585 250.366 533.122 259.746 530.146 263.313C529.801 263.728 529.439 264.127 529.059 264.51C529.925 257.986 531.229 251.073 533.073 244.755Z" fill="#F5BC9F"/>
<path d="M524.627 287.077C527.017 284.624 530.529 278.98 534.246 278.956C534.859 278.952 535.313 279.12 535.871 279.352C536.456 280.037 536.737 280.38 536.675 281.345C536.337 286.561 525.931 299.897 521.921 303.09C521.657 303.299 521.621 303.314 521.373 303.466C522.034 297.918 523.237 292.48 524.627 287.077Z" fill="#F5BC9F"/>
</g>
<defs>
<clipPath id="clip0_2719_137">
<rect width="585" height="585" fill="white"/>
</clipPath>
</defs>
</svg>
