<svg width="125" height="52" viewBox="0 0 125 52" fill="none" xmlns="http://www.w3.org/2000/svg">
<g clip-path="url(#clip0_2701_129)">
<path d="M9.44012 23.2241C7.79745 23.2241 6.32545 22.9574 5.02412 22.4241C3.72278 21.8908 2.67745 21.1014 1.88812 20.0561C1.12012 19.0108 0.714786 17.7521 0.672119 16.2801H6.49612C6.58145 17.1121 6.86945 17.7521 7.36012 18.2001C7.85078 18.6268 8.49078 18.8401 9.28012 18.8401C10.0908 18.8401 10.7308 18.6588 11.2001 18.2961C11.6695 17.9121 11.9041 17.3894 11.9041 16.7281C11.9041 16.1734 11.7121 15.7148 11.3281 15.3521C10.9655 14.9894 10.5068 14.6908 9.95212 14.4561C9.41879 14.2214 8.65078 13.9548 7.64812 13.6561C6.19745 13.2081 5.01345 12.7601 4.09612 12.3121C3.17878 11.8641 2.38945 11.2028 1.72812 10.3281C1.06678 9.45339 0.736119 8.31206 0.736119 6.90406C0.736119 4.81339 1.49345 3.18139 3.00812 2.00806C4.52278 0.813397 6.49612 0.216064 8.92812 0.216064C11.4028 0.216064 13.3975 0.813397 14.9121 2.00806C16.4268 3.18139 17.2375 4.82406 17.3441 6.93606H11.4241C11.3815 6.21073 11.1148 5.64539 10.6241 5.24006C10.1335 4.81339 9.50412 4.60006 8.73611 4.60006C8.07478 4.60006 7.54145 4.78139 7.13612 5.14406C6.73078 5.48539 6.52812 5.98673 6.52812 6.64806C6.52812 7.37339 6.86945 7.93873 7.55211 8.34406C8.23478 8.74939 9.30145 9.18674 10.7521 9.65606C12.2028 10.1468 13.3761 10.6161 14.2721 11.0641C15.1895 11.5121 15.9788 12.1628 16.6401 13.0161C17.3015 13.8694 17.6321 14.9681 17.6321 16.3121C17.6321 17.5921 17.3015 18.7548 16.6401 19.8001C16.0001 20.8454 15.0615 21.6774 13.8241 22.2961C12.5868 22.9148 11.1255 23.2241 9.44012 23.2241ZM37.1596 0.536063V4.92006H31.2076V23.0001H25.7356V4.92006H19.7836V0.536063H37.1596ZM51.3619 23.0001L46.6899 14.5201H45.3779V23.0001H39.9059V0.536063H49.0899C50.8605 0.536063 52.3645 0.845396 53.6019 1.46406C54.8605 2.08273 55.7992 2.93606 56.4179 4.02406C57.0365 5.09073 57.3459 6.28539 57.3459 7.60806C57.3459 9.10139 56.9192 10.4348 56.0659 11.6081C55.2339 12.7814 53.9965 13.6134 52.3539 14.1041L57.5379 23.0001H51.3619ZM45.3779 10.6481H48.7699C49.7725 10.6481 50.5192 10.4028 51.0099 9.91206C51.5219 9.42139 51.7779 8.72806 51.7779 7.83206C51.7779 6.97873 51.5219 6.30673 51.0099 5.81606C50.5192 5.32539 49.7725 5.08006 48.7699 5.08006H45.3779V10.6481ZM74.7649 19.0321H66.3809L65.0369 23.0001H59.3089L67.4369 0.536063H73.7729L81.9009 23.0001H76.1089L74.7649 19.0321ZM73.3569 14.8081L70.5729 6.58406L67.8209 14.8081H73.3569ZM83.4466 11.7361C83.4466 9.5174 83.9266 7.54406 84.8866 5.81606C85.8466 4.06673 87.18 2.71206 88.8866 1.75206C90.6146 0.770729 92.5666 0.280063 94.7426 0.280063C97.4093 0.280063 99.692 0.984063 101.591 2.39206C103.489 3.80006 104.759 5.72007 105.399 8.15206H99.3826C98.9346 7.21339 98.2946 6.49873 97.4626 6.00806C96.652 5.51739 95.724 5.27206 94.6786 5.27206C92.9933 5.27206 91.628 5.85873 90.5826 7.03206C89.5373 8.20539 89.0146 9.77339 89.0146 11.7361C89.0146 13.6988 89.5373 15.2668 90.5826 16.4401C91.628 17.6134 92.9933 18.2001 94.6786 18.2001C95.724 18.2001 96.652 17.9548 97.4626 17.4641C98.2946 16.9734 98.9346 16.2588 99.3826 15.3201H105.399C104.759 17.7521 103.489 19.6721 101.591 21.0801C99.692 22.4668 97.4093 23.1601 94.7426 23.1601C92.5666 23.1601 90.6146 22.6801 88.8866 21.7201C87.18 20.7388 85.8466 19.3841 84.8866 17.6561C83.9266 15.9281 83.4466 13.9548 83.4466 11.7361ZM124.91 0.536063V4.92006H118.958V23.0001H113.486V4.92006H107.534V0.536063H124.91ZM33.1664 42.6161C33.1664 41.7201 33.3424 40.9361 33.6944 40.2641C34.0571 39.5814 34.5531 39.0588 35.1824 38.6961C35.8224 38.3228 36.5424 38.1361 37.3424 38.1361C38.1744 38.1361 38.8891 38.3281 39.4864 38.7121C40.0944 39.0961 40.5318 39.5868 40.7984 40.1841V38.2641H41.9184V47.0001H40.7984V45.0641C40.5211 45.6614 40.0784 46.1574 39.4704 46.5521C38.8731 46.9361 38.1584 47.1281 37.3264 47.1281C36.5371 47.1281 35.8224 46.9414 35.1824 46.5681C34.5531 46.1948 34.0571 45.6668 33.6944 44.9841C33.3424 44.3014 33.1664 43.5121 33.1664 42.6161ZM40.7984 42.6321C40.7984 41.9281 40.6544 41.3094 40.3664 40.7761C40.0784 40.2428 39.6838 39.8321 39.1824 39.5441C38.6918 39.2561 38.1478 39.1121 37.5504 39.1121C36.9318 39.1121 36.3771 39.2508 35.8864 39.5281C35.3958 39.8054 35.0064 40.2108 34.7184 40.7441C34.4411 41.2668 34.3024 41.8908 34.3024 42.6161C34.3024 43.3308 34.4411 43.9601 34.7184 44.5041C35.0064 45.0374 35.3958 45.4481 35.8864 45.7361C36.3771 46.0134 36.9318 46.1521 37.5504 46.1521C38.1478 46.1521 38.6918 46.0081 39.1824 45.7201C39.6838 45.4321 40.0784 45.0214 40.3664 44.4881C40.6544 43.9548 40.7984 43.3361 40.7984 42.6321ZM48.1393 38.1361C48.9606 38.1361 49.6753 38.3281 50.2833 38.7121C50.8913 39.0961 51.3286 39.5814 51.5953 40.1681V38.2641H52.7153V47.2241C52.7153 48.0241 52.5393 48.7334 52.1873 49.3521C51.846 49.9708 51.366 50.4454 50.7473 50.7761C50.1286 51.1174 49.4246 51.2881 48.6353 51.2881C47.5153 51.2881 46.582 51.0214 45.8353 50.4881C45.0993 49.9548 44.6406 49.2294 44.4593 48.3121H45.5633C45.7553 48.9201 46.118 49.4054 46.6513 49.7681C47.1953 50.1308 47.8566 50.3121 48.6353 50.3121C49.2006 50.3121 49.7073 50.1894 50.1553 49.9441C50.6033 49.7094 50.9553 49.3574 51.2113 48.8881C51.4673 48.4188 51.5953 47.8641 51.5953 47.2241V45.0641C51.318 45.6614 50.8753 46.1574 50.2673 46.5521C49.67 46.9361 48.9606 47.1281 48.1393 47.1281C47.3393 47.1281 46.6193 46.9414 45.9793 46.5681C45.35 46.1948 44.854 45.6668 44.4913 44.9841C44.1393 44.3014 43.9633 43.5121 43.9633 42.6161C43.9633 41.7201 44.1393 40.9361 44.4913 40.2641C44.854 39.5814 45.35 39.0588 45.9793 38.6961C46.6193 38.3228 47.3393 38.1361 48.1393 38.1361ZM51.5953 42.6321C51.5953 41.9281 51.4513 41.3094 51.1633 40.7761C50.8753 40.2428 50.4806 39.8321 49.9793 39.5441C49.4886 39.2561 48.9446 39.1121 48.3473 39.1121C47.7286 39.1121 47.174 39.2508 46.6833 39.5281C46.1926 39.8054 45.8033 40.2108 45.5153 40.7441C45.238 41.2668 45.0993 41.8908 45.0993 42.6161C45.0993 43.3308 45.238 43.9601 45.5153 44.5041C45.8033 45.0374 46.1926 45.4481 46.6833 45.7361C47.174 46.0134 47.7286 46.1521 48.3473 46.1521C48.9446 46.1521 49.4886 46.0081 49.9793 45.7201C50.4806 45.4321 50.8753 45.0214 51.1633 44.4881C51.4513 43.9548 51.5953 43.3361 51.5953 42.6321ZM63.1762 42.1841C63.1762 42.5681 63.1655 42.8614 63.1442 43.0641H55.8962C55.9282 43.7254 56.0882 44.2908 56.3762 44.7601C56.6642 45.2294 57.0429 45.5868 57.5122 45.8321C57.9815 46.0668 58.4935 46.1841 59.0482 46.1841C59.7735 46.1841 60.3815 46.0081 60.8722 45.6561C61.3735 45.3041 61.7042 44.8294 61.8642 44.2321H63.0482C62.8349 45.0854 62.3762 45.7841 61.6722 46.3281C60.9789 46.8614 60.1042 47.1281 59.0482 47.1281C58.2269 47.1281 57.4909 46.9468 56.8402 46.5841C56.1895 46.2108 55.6775 45.6881 55.3042 45.0161C54.9415 44.3334 54.7602 43.5388 54.7602 42.6321C54.7602 41.7254 54.9415 40.9308 55.3042 40.2481C55.6669 39.5654 56.1735 39.0428 56.8242 38.6801C57.4749 38.3174 58.2162 38.1361 59.0482 38.1361C59.8802 38.1361 60.6055 38.3174 61.2242 38.6801C61.8535 39.0428 62.3335 39.5334 62.6642 40.1521C63.0055 40.7601 63.1762 41.4374 63.1762 42.1841ZM62.0402 42.1521C62.0509 41.5014 61.9175 40.9468 61.6402 40.4881C61.3735 40.0294 61.0055 39.6828 60.5362 39.4481C60.0669 39.2134 59.5549 39.0961 59.0002 39.0961C58.1682 39.0961 57.4589 39.3628 56.8722 39.8961C56.2855 40.4294 55.9602 41.1814 55.8962 42.1521H62.0402ZM69.3213 38.1041C70.3666 38.1041 71.22 38.4294 71.8813 39.0801C72.5426 39.7201 72.8733 40.6534 72.8733 41.8801V47.0001H71.7693V42.0081C71.7693 41.0588 71.5293 40.3334 71.0493 39.8321C70.58 39.3308 69.9346 39.0801 69.1133 39.0801C68.2706 39.0801 67.5986 39.3468 67.0973 39.8801C66.596 40.4134 66.3453 41.1974 66.3453 42.2321V47.0001H65.2253V38.2641H66.3453V39.7521C66.6226 39.2188 67.0226 38.8134 67.5453 38.5361C68.068 38.2481 68.66 38.1041 69.3213 38.1041ZM74.8383 42.6321C74.8383 41.7254 75.0196 40.9361 75.3823 40.2641C75.745 39.5814 76.2463 39.0588 76.8863 38.6961C77.5263 38.3228 78.257 38.1361 79.0783 38.1361C80.1556 38.1361 81.041 38.4028 81.7343 38.9361C82.4383 39.4694 82.8916 40.1948 83.0943 41.1121H81.8943C81.745 40.4828 81.4196 39.9921 80.9183 39.6401C80.4276 39.2774 79.8143 39.0961 79.0783 39.0961C78.4916 39.0961 77.9636 39.2294 77.4943 39.4961C77.025 39.7628 76.6516 40.1628 76.3743 40.6961C76.1076 41.2188 75.9743 41.8641 75.9743 42.6321C75.9743 43.4001 76.1076 44.0508 76.3743 44.5841C76.6516 45.1174 77.025 45.5174 77.4943 45.7841C77.9636 46.0508 78.4916 46.1841 79.0783 46.1841C79.8143 46.1841 80.4276 46.0081 80.9183 45.6561C81.4196 45.2934 81.745 44.7921 81.8943 44.1521H83.0943C82.8916 45.0481 82.4383 45.7681 81.7343 46.3121C81.0303 46.8561 80.145 47.1281 79.0783 47.1281C78.257 47.1281 77.5263 46.9468 76.8863 46.5841C76.2463 46.2108 75.745 45.6881 75.3823 45.0161C75.0196 44.3334 74.8383 43.5388 74.8383 42.6321ZM92.3628 38.2641L87.1788 51.1121H86.0108L87.7068 46.9521L84.1228 38.2641H85.3548L88.3308 45.7201L91.2108 38.2641H92.3628Z" fill="#71CF92"/>
</g>
<defs>
<clipPath id="clip0_2701_129">
<rect width="125" height="52" fill="white"/>
</clipPath>
</defs>
</svg>
