<svg width="39" height="39" viewBox="0 0 39 39" fill="none" xmlns="http://www.w3.org/2000/svg">
<path d="M0 38.9999L2.74137 28.9851C1.04975 26.0536 0.160875 22.7304 0.1625 19.3228C0.167375 8.66935 8.83673 0 19.4886 0C24.6577 0.001625 29.5099 2.015 33.1597 5.66799C36.8078 9.32098 38.8163 14.1765 38.8147 19.3407C38.8098 29.9958 30.1404 38.6652 19.4886 38.6652C16.2548 38.6635 13.0682 37.8527 10.2456 36.3122L0 38.9999ZM10.7201 32.8136C13.4436 34.4304 16.0436 35.3989 19.4821 35.4005C28.3351 35.4005 35.5468 28.1953 35.5517 19.3375C35.5549 10.4617 28.3773 3.26624 19.4951 3.26299C10.6356 3.26299 3.42874 10.4682 3.42549 19.3245C3.42387 22.9401 4.48337 25.6473 6.26274 28.4797L4.63936 34.4077L10.7201 32.8136ZM29.2239 23.9346C29.1037 23.7331 28.7819 23.6128 28.2977 23.3707C27.8151 23.1286 25.4409 21.9602 24.9973 21.7993C24.5553 21.6385 24.2336 21.5572 23.9102 22.0415C23.5884 22.5241 22.6622 23.6128 22.3811 23.9346C22.1 24.2563 21.8172 24.2969 21.3346 24.0548C20.852 23.8127 19.2952 23.3041 17.4508 21.658C16.016 20.3775 15.0458 18.7963 14.7647 18.3121C14.4836 17.8295 14.7355 17.5678 14.976 17.3273C15.1937 17.1112 15.4586 16.7635 15.7007 16.4807C15.9461 16.2012 16.0257 15.9997 16.1882 15.6763C16.3491 15.3546 16.2695 15.0718 16.1476 14.8297C16.0257 14.5892 15.0605 12.2118 14.6591 11.245C14.2658 10.3041 13.8677 10.4309 13.572 10.4162L12.6457 10.4C12.324 10.4 11.8007 10.5202 11.3587 11.0045C10.9167 11.4887 9.66873 12.6555 9.66873 15.0328C9.66873 17.4102 11.3993 19.7063 11.6398 20.0281C11.882 20.3498 15.0442 25.2281 19.8883 27.3194C21.0405 27.8167 21.9407 28.1141 22.6411 28.3367C23.7981 28.7039 24.8511 28.6519 25.6831 28.5284C26.6109 28.3903 28.5398 27.3601 28.9428 26.2323C29.3458 25.1029 29.3458 24.1361 29.2239 23.9346Z" fill="#484848"/>
</svg>
