<svg width="39" height="39" viewBox="0 0 39 39" fill="none" xmlns="http://www.w3.org/2000/svg">
<g clip-path="url(#clip0_2719_189)">
<path d="M0 18.72C0 9.89528 0 5.48296 2.74148 2.74148C5.48296 0 9.89528 0 18.72 0H20.28C29.1047 0 33.517 0 36.2585 2.74148C39 5.48296 39 9.89528 39 18.72V20.28C39 29.1047 39 33.517 36.2585 36.2585C33.517 39 29.1047 39 20.28 39H18.72C9.89528 39 5.48296 39 2.74148 36.2585C0 33.517 0 29.1047 0 20.28V18.72Z" fill="#484848"/>
<path d="M20.7513 28.0965C11.8625 28.0965 6.79258 22.0028 6.58133 11.8628H11.0338C11.1801 19.3053 14.4625 22.4578 17.0625 23.1078V11.8628H21.2552V18.2815C23.8227 18.0053 26.5198 15.0803 27.4298 11.8628H31.6224C30.9237 15.8278 27.9987 18.7528 25.9187 19.9553C27.9987 20.9303 31.3301 23.4815 32.5976 28.0965H27.9824C26.9912 25.009 24.5214 22.6203 21.2552 22.2953V28.0965H20.7513Z" fill="white"/>
</g>
<defs>
<clipPath id="clip0_2719_189">
<rect width="39" height="39" fill="white"/>
</clipPath>
</defs>
</svg>
