<svg width="141" height="39" viewBox="0 0 141 39" fill="none" xmlns="http://www.w3.org/2000/svg">
<path d="M53.5876 0.806998L41.4782 32.5813H47.9826L50.4719 25.9423H63.3201L65.8202 32.5813H72.2765L60.2419 0.806998H53.5876ZM52.7044 20.1103L56.9335 8.93078L61.1467 20.1103H52.7044ZM80.0495 24.3875L74.7978 10.2597H68.5933L77.0516 32.5813H83.2027L91.5112 10.2597H85.3066L80.0495 24.3875ZM99.3165 10.2597H93.4117V32.5813H99.3165V10.2597ZM96.3615 8.65102C98.7386 8.65102 100.666 6.71442 100.666 4.32552C100.666 1.9366 98.7386 0 96.3615 0C93.9843 0 92.0572 1.9366 92.0572 4.32552C92.0572 6.71442 93.9843 8.65102 96.3615 8.65102ZM111.019 4.30399H105.13V10.222H101.677V15.602H105.13V25.0869C105.13 30.4669 108.08 32.7803 112.234 32.7803C113.636 32.7989 115.027 32.5259 116.319 31.9787V26.448C115.614 26.7076 114.87 26.844 114.119 26.8515C112.315 26.8515 111.014 26.1468 111.014 23.7311V15.602H116.319V10.2758H111.019V4.30399ZM128.734 9.85617C126.457 9.85512 124.231 10.5327 122.337 11.8033C120.443 13.074 118.967 14.8803 118.096 16.9941C117.224 19.1081 116.995 21.4341 117.439 23.6785C117.883 25.9226 118.979 27.9842 120.589 29.6023C122.199 31.2203 124.251 32.322 126.484 32.7682C128.717 33.2142 131.032 32.9848 133.135 32.1086C135.238 31.2325 137.036 29.7491 138.3 27.8461C139.564 25.9431 140.239 23.706 140.238 21.4178C140.237 18.3518 139.023 15.412 136.867 13.244C134.709 11.0762 131.785 9.8576 128.734 9.85617ZM128.734 27.0721C127.625 27.0732 126.541 26.7437 125.618 26.1255C124.696 25.5072 123.976 24.6279 123.551 23.5986C123.126 22.5694 123.014 21.4367 123.23 20.3437C123.446 19.2507 123.979 18.2465 124.763 17.4582C125.547 16.6699 126.545 16.1329 127.633 15.9151C128.72 15.6972 129.847 15.8085 130.871 16.2347C131.896 16.6609 132.772 17.3828 133.389 18.3093C134.004 19.2357 134.333 20.325 134.333 21.4393C134.33 22.9294 133.739 24.3575 132.689 25.4097C131.638 26.4619 130.217 27.0521 128.734 27.0507V27.0721Z" fill="#484848"/>
<path d="M11.5098 35.7502C17.8665 35.7502 23.0197 30.5715 23.0197 24.1832C23.0197 17.795 17.8665 12.6162 11.5098 12.6162C5.15314 12.6162 0 17.795 0 24.1832C0 30.5715 5.15314 35.7502 11.5098 35.7502Z" fill="#484848"/>
<path d="M31.4727 34.2922C35.3134 34.2922 38.4268 31.1633 38.4268 27.3036C38.4268 23.4439 35.3134 20.3149 31.4727 20.3149C27.6321 20.3149 24.5186 23.4439 24.5186 27.3036C24.5186 31.1633 27.6321 34.2922 31.4727 34.2922Z" fill="#484848"/>
<path d="M13.7101 11.1149C16.0872 11.1149 18.0142 9.1783 18.0142 6.78938C18.0142 4.40046 16.0872 2.46387 13.7101 2.46387C11.333 2.46387 9.40598 4.40046 9.40598 6.78938C9.40598 9.1783 11.333 11.1149 13.7101 11.1149Z" fill="#484848"/>
<path d="M28.7693 18.8084C33.9374 18.8084 38.1271 14.5981 38.1271 9.40423C38.1271 4.21041 33.9374 0 28.7693 0C23.6011 0 19.4114 4.21041 19.4114 9.40423C19.4114 14.5981 23.6011 18.8084 28.7693 18.8084Z" fill="#484848"/>
</svg>
