<svg width="39" height="39" viewBox="0 0 39 39" fill="none" xmlns="http://www.w3.org/2000/svg">
<g clip-path="url(#clip0_2719_131)">
<path d="M19.5 39C30.2696 39 39 30.2696 39 19.5C39 8.73045 30.2696 0 19.5 0C8.73045 0 0 8.73045 0 19.5C0 30.2696 8.73045 39 19.5 39Z" fill="#484848"/>
<path fill-rule="evenodd" clip-rule="evenodd" d="M8.82681 19.2939C14.5115 16.8172 18.3021 15.1844 20.1988 14.3955C25.6141 12.1431 26.7394 11.7518 27.4728 11.7389C27.6341 11.7361 27.9948 11.776 28.2285 11.9656C28.4257 12.1257 28.48 12.3419 28.506 12.4937C28.532 12.6455 28.5643 12.9912 28.5386 13.2614C28.2451 16.3448 26.9753 23.8274 26.3293 27.2808C26.056 28.7421 25.5178 29.2321 24.9967 29.28C23.8643 29.3843 23.0044 28.5317 21.9076 27.8127C20.1914 26.6877 19.2218 25.9874 17.5559 24.8896C15.6306 23.6208 16.8787 22.9235 17.9759 21.7839C18.263 21.4857 23.2524 16.9475 23.349 16.5358C23.361 16.4843 23.3722 16.2924 23.2582 16.191C23.1442 16.0897 22.9759 16.1243 22.8545 16.1519C22.6824 16.191 19.9406 18.0031 14.6293 21.5884C13.851 22.1228 13.1461 22.3832 12.5146 22.3696C11.8183 22.3545 10.479 21.9759 9.48338 21.6523C8.26219 21.2553 7.29162 21.0454 7.37613 20.3713C7.42015 20.0201 7.90371 19.661 8.82681 19.2939Z" fill="white"/>
</g>
<defs>
<clipPath id="clip0_2719_131">
<rect width="39" height="39" fill="white"/>
</clipPath>
</defs>
</svg>
