<svg width="504" height="504" viewBox="0 0 504 504" fill="none" xmlns="http://www.w3.org/2000/svg">
<path d="M36.5235 215.207C36.2851 214.501 36.1399 213.7 36.1195 212.953C36.1013 212.289 36.404 211.668 36.8791 211.214C39.0299 209.16 44.4669 209.71 47.2519 209.79C46.1233 210.84 45.5834 212.221 44.9197 213.581C43.5876 213.576 42.6273 213.654 41.3448 214.068C40.2187 214.431 38.8884 214.751 37.8048 214.103C37.5193 213.931 37.3807 213.815 37.1274 213.621C36.6946 214.058 36.6469 214.627 36.5235 215.207Z" fill="#65FEB9"/>
<path d="M296.641 210.333C297.825 210.903 298.62 211.536 299.586 212.41C302.669 215.201 307.379 215.809 307.783 220.923C307.984 223.469 306.546 225.714 304.936 227.548C304.258 228.846 303.964 230.136 303.814 231.585C303.812 232.454 303.807 233.321 303.851 234.189C303.985 234.864 304.042 235.572 304.479 236.125C304.48 237.454 304.333 238.304 303.372 239.277C301.84 240.827 299.314 241.771 297.143 241.683C296.031 241.638 294.896 241.312 294.135 240.456C293.529 239.774 293.428 238.99 293.323 238.123C292.857 234.297 290.734 230.095 288.669 226.878C287.593 225.976 286.462 224.993 285.743 223.773C284.679 221.969 284.341 219.946 284.921 217.918C285.8 214.84 288.236 213.115 290.919 211.695C292.838 210.943 294.58 210.465 296.641 210.333Z" fill="#F9ABBC"/>
<path d="M303.851 234.189C301.588 235.558 298.261 237.967 295.482 237.331C294.739 237.161 293.839 236.755 293.412 236.127C293.473 236.086 293.53 236.037 293.596 236.004C294.836 235.385 296.899 235.847 298.398 235.233C300.485 234.377 301.791 232.362 303.814 231.584C303.812 232.454 303.807 233.32 303.851 234.189Z" fill="#F875A0"/>
<path d="M296.641 210.333C297.825 210.903 298.62 211.536 299.586 212.41C302.669 215.201 307.379 215.809 307.783 220.923C307.984 223.469 306.546 225.714 304.936 227.548C304.391 224.652 304.278 221.142 302.881 218.499C302.481 217.743 301.958 217.117 301.109 216.892C300.554 216.745 300.005 216.793 299.473 217.003C298.382 217.433 297.547 218.735 296.474 219.304C294.774 220.205 292.711 220.393 291.054 221.407C289.021 222.65 289.131 224.771 288.669 226.878C287.593 225.976 286.462 224.993 285.743 223.773C284.679 221.969 284.341 219.946 284.921 217.918C285.8 214.84 288.236 213.115 290.919 211.695C292.838 210.943 294.58 210.465 296.641 210.333Z" fill="#281F63"/>
<path d="M304.479 236.125C308.212 236.788 312.174 237.262 315.629 238.909C319.953 240.812 323.078 242.217 324.898 246.937C327.346 253.29 333.058 273.145 332.668 279.669C332.287 286.021 328.625 295.716 325.977 301.58C325.111 303.498 324.114 305.247 322.691 306.811C318.671 305.733 317.595 302.261 315.398 301.293C312.548 300.866 309.093 301.537 306.164 301.492C298.5 301.376 291.058 300.832 283.514 299.45C282.987 299.09 282.565 298.69 282.178 298.179C279.768 294.993 281.046 289.408 281.489 285.735C281.615 284.661 281.671 283.605 281.696 282.524C281.894 277.541 281.947 251.298 280.662 248.369C280.489 247.975 279.92 247.847 279.541 247.676C279.94 246.182 280.449 244.908 281.438 243.698C284.132 240.4 289.174 238.507 293.323 238.123C293.428 238.99 293.529 239.774 294.135 240.456C294.896 241.312 296.031 241.638 297.143 241.683C299.314 241.771 301.84 240.827 303.372 239.276C304.333 238.303 304.48 237.454 304.479 236.125Z" fill="#9A54ED"/>
<path d="M304.479 236.125C308.212 236.788 312.174 237.262 315.629 238.909C315.616 239.017 315.602 239.125 315.591 239.233C315.196 243.061 315.974 246.956 315.876 250.803C315.595 261.828 310.824 273.566 302.193 280.659C297.556 284.47 291.624 287.1 285.522 286.516C284.168 286.386 282.805 286.068 281.489 285.735C281.615 284.661 281.671 283.605 281.696 282.524C281.894 277.541 281.947 251.298 280.662 248.369C280.489 247.975 279.92 247.847 279.541 247.676C279.94 246.182 280.449 244.908 281.438 243.698C284.132 240.4 289.174 238.507 293.323 238.123C293.428 238.99 293.529 239.774 294.135 240.456C294.896 241.312 296.031 241.638 297.143 241.683C299.314 241.771 301.84 240.827 303.372 239.276C304.333 238.303 304.48 237.454 304.479 236.125Z" fill="#AF6BEE"/>
<path d="M390.876 294.12C393.012 296.405 394.783 299.475 396.461 302.116C404.03 314.027 410.287 327.56 409.807 341.979C409.682 345.708 409.12 350.235 406.95 353.403C406.095 354.996 405.144 356.477 404.037 357.908C402.254 360.344 400.491 362.737 398.332 364.862C392.251 370.85 382.775 375.86 374.304 377.122C372.793 377.347 371.298 377.487 369.77 377.404C368.669 377.141 367.623 376.792 366.557 376.417C358.545 370.075 353.852 360.9 351.844 350.992L351.966 350.767C350.594 337.42 353.978 327.435 362.457 317.06C369.955 307.885 380.486 299.761 390.876 294.12Z" fill="url(#paint0_linear_2719_527)"/>
<path d="M375.417 351.105C378.25 342.581 380.826 333.944 383.422 325.344C384.586 321.487 385.698 315.656 387.67 312.277C385.18 325.04 380.73 337.297 377.423 349.849C385.613 348.811 392.959 345.183 400.486 342.02C395.288 345.812 388.115 348.479 381.832 349.75C380.348 350.049 377.846 349.929 376.975 351.247C374.763 360.085 371.186 368.318 369.77 377.405C368.669 377.141 367.623 376.792 366.557 376.417C370.022 368.501 372.064 359.359 375.417 351.105Z" fill="#FEFEFE"/>
<path d="M351.966 350.767L352.37 351.053L352.633 350.378C353.534 350.135 354.322 350.586 355.212 350.639C360.414 350.951 369.942 352.457 374.668 351.132C374.94 351.055 375.141 351.06 375.417 351.105C372.064 359.359 370.022 368.501 366.557 376.417C358.545 370.075 353.852 360.9 351.844 350.992L351.966 350.767Z" fill="url(#paint1_linear_2719_527)"/>
<path d="M376.975 351.247C378.374 351.098 379.395 352.046 380.764 352.219C383.82 352.606 405.14 354.099 406.95 353.403C406.095 354.996 405.144 356.477 404.037 357.908C402.254 360.344 400.491 362.737 398.332 364.863C392.251 370.85 382.775 375.86 374.304 377.122C372.793 377.347 371.298 377.487 369.77 377.405C371.186 368.318 374.763 360.085 376.975 351.247Z" fill="url(#paint2_linear_2719_527)"/>
<path d="M76.673 317.278C92.1011 322.925 109.668 334.215 118.941 347.814C120.8 350.921 122.43 354.324 123.71 357.72C123.709 357.811 123.706 357.902 123.706 357.992C123.699 360.784 124.586 363.479 124.388 366.281C124.01 371.631 118.698 390.163 115.35 394.241C114.811 395.536 113.686 397.516 113.778 398.917C113.25 399.389 113.202 399.564 112.506 399.589C106.599 398.593 100.844 398.272 95.0542 396.489C82.0989 392.499 72.4451 386.36 65.9758 374.031C65.0239 370.765 64.4997 367.466 64.0469 364.103C62.8351 348.357 69.4201 331.034 76.673 317.278Z" fill="url(#paint3_linear_2719_527)"/>
<path d="M92.2694 356.501C90.9208 353.592 81.0923 333.331 81.2828 332.14L81.1504 332.559L81.5944 332.438C83.7359 336.344 85.333 340.568 87.2476 344.588C88.295 346.788 89.6692 348.861 90.7574 351.041C91.9298 353.389 92.9211 355.82 94.1171 358.159C99.749 369.869 105.301 381.616 110.772 393.401C112.02 394.337 114.65 393.31 115.35 394.241C114.811 395.536 113.686 397.516 113.778 398.917C113.25 399.389 113.202 399.564 112.506 399.589C108.438 391.557 105.07 381.486 100.244 374.074C91.3264 370.911 81.619 370.407 72.8885 366.493C76.0543 366.888 79.3756 368.037 82.4842 368.81C88.391 370.28 94.2982 371.64 100.162 373.288C97.4 367.755 94.8883 362.102 92.2694 356.501Z" fill="#FEFEFE"/>
<path d="M110.772 393.402C112.02 394.337 114.65 393.31 115.35 394.241C114.811 395.536 113.686 397.516 113.778 398.917C112.651 397.112 111.678 395.329 110.772 393.402Z" fill="#C6FEE4"/>
<path d="M118.941 347.814C120.8 350.921 122.43 354.324 123.71 357.72C123.709 357.811 123.706 357.902 123.706 357.992C123.699 360.784 124.586 363.479 124.388 366.281C124.01 371.631 118.698 390.163 115.35 394.241C114.65 393.31 112.02 394.337 110.772 393.402C105.301 381.616 99.749 369.869 94.1171 358.16C94.4355 358.252 94.7653 358.342 95.1014 358.299C96.9432 358.062 98.8716 356.14 100.479 355.25C103.852 353.383 107.854 351.683 111.533 350.569C113.893 349.855 117.198 349.615 118.941 347.814Z" fill="url(#paint4_linear_2719_527)"/>
<path d="M76.673 317.278C92.1011 322.925 109.668 334.215 118.941 347.814C117.198 349.615 113.893 349.855 111.533 350.569C107.854 351.683 103.852 353.383 100.479 355.25C98.8716 356.139 96.9432 358.062 95.1015 358.299C94.7653 358.342 94.4355 358.251 94.1171 358.159C92.9211 355.82 91.9298 353.389 90.7574 351.041C89.6692 348.861 88.295 346.788 87.2476 344.588C85.333 340.568 83.7359 336.344 81.5944 332.438L81.1504 332.559L81.2828 332.14C81.0923 333.331 90.9208 353.592 92.2694 356.501C90.9636 357.185 83.2299 358.159 80.6922 358.764C77.9353 359.423 75.2286 360.247 72.5721 361.236C69.8183 362.262 66.9577 363.641 64.0469 364.103C62.8351 348.357 69.4201 331.034 76.673 317.278Z" fill="#65FEB9"/>
<path d="M47.2519 209.79C65.6785 210.117 84.9245 210.505 98.723 224.849C99.164 225.303 99.5912 225.769 100.005 226.247C100.418 226.726 100.817 227.217 101.202 227.719C101.586 228.221 101.955 228.734 102.309 229.259C102.663 229.783 103.001 230.317 103.323 230.861C103.646 231.405 103.951 231.959 104.241 232.521C104.53 233.083 104.803 233.654 105.059 234.232C105.314 234.811 105.553 235.397 105.774 235.989C105.994 236.582 106.197 237.18 106.383 237.785C108.776 245.781 107.73 254.444 108.489 262.678C109.103 269.348 110.754 275.957 110.582 282.686C110.52 285.141 110.06 287.958 108.133 289.68C107.421 290.317 106.546 290.576 105.6 290.491C101.452 290.117 97.6608 284.877 94.5645 282.406C94.0798 282.016 93.5798 281.646 93.0643 281.298C92.5488 280.949 92.0197 280.623 91.477 280.318C90.9343 280.014 90.3799 279.732 89.8139 279.474C89.2479 279.216 88.672 278.981 88.0863 278.771C75.0305 274.122 56.2861 283.789 46.3441 270.857C42.6866 266.1 42.0273 259.603 42.8225 253.829C44.2457 243.494 49.7508 236.039 43.2277 226.106C40.8978 222.558 37.9651 219.259 36.5235 215.207C36.6468 214.627 36.6946 214.058 37.1274 213.621C37.3807 213.815 37.5193 213.931 37.8048 214.103C38.8884 214.751 40.2186 214.431 41.3448 214.068C42.6273 213.654 43.5876 213.576 44.9197 213.581C45.5833 212.22 46.1233 210.84 47.2519 209.79Z" fill="#00FE58" fill-opacity="0.988235"/>
<path d="M387.776 126.348C392.637 125.784 407.51 125.8 412.178 127.334C413.299 127.703 414.362 128.281 414.891 129.386C417.711 135.273 404.82 143.905 403.119 151.327C400.396 163.218 409.133 173.725 404.612 187.024C404.466 187.451 404.308 187.874 404.136 188.292C403.964 188.709 403.78 189.121 403.582 189.528C403.385 189.934 403.175 190.334 402.953 190.727C402.731 191.12 402.497 191.506 402.251 191.885C402.005 192.264 401.747 192.635 401.477 192.997C401.208 193.36 400.928 193.715 400.637 194.06C400.346 194.405 400.045 194.741 399.733 195.068C399.421 195.395 399.099 195.712 398.768 196.019C388.84 205.186 374.603 200.004 362.591 200.37C357.489 200.525 352.833 201.541 348.24 203.781C343.333 206.35 336.671 214.517 332.085 215.132C331.16 215.257 330.222 215.124 329.476 214.525C327.924 213.28 327.485 210.734 327.347 208.869C326.771 201.081 329.17 193.403 329.897 185.698C330.762 176.529 329.796 167.144 332.212 158.158C332.374 157.547 332.554 156.94 332.751 156.338C332.948 155.737 333.162 155.141 333.393 154.552C333.624 153.962 333.871 153.38 334.136 152.805C334.401 152.23 334.681 151.663 334.978 151.104C335.275 150.545 335.588 149.995 335.917 149.454C336.246 148.913 336.59 148.382 336.949 147.861C337.308 147.34 337.682 146.829 338.07 146.329C338.459 145.829 338.861 145.341 339.278 144.864C342.438 141.192 346.364 138.217 350.535 135.78C362.28 128.919 374.525 127.314 387.776 126.348Z" fill="#65FEB9"/>
<path d="M283.514 299.45C291.058 300.832 298.5 301.376 306.164 301.492C309.093 301.537 312.548 300.866 315.398 301.293C317.595 302.261 318.671 305.732 322.691 306.811C321.47 308.413 320.029 310.058 319.075 311.832C319.419 324.033 319.2 336.137 319.187 348.333C330.629 346.882 340.786 348.274 351.844 350.992C353.852 360.9 358.545 370.075 366.557 376.417C367.623 376.792 368.669 377.141 369.77 377.404C371.298 377.487 372.793 377.347 374.304 377.122C382.775 375.86 392.251 370.85 398.332 364.862C400.491 362.737 402.254 360.344 404.037 357.908C421.63 362.073 455.507 372.842 465.366 388.917C468.023 393.25 468.993 398.337 467.756 403.301C465.572 412.063 457.405 418.508 450.006 422.879C429.85 434.784 404.98 440.845 382.177 445.392C317.661 458.257 250.556 459.472 185.219 452.978C158.34 450.307 131.83 446.462 105.653 439.661C88.0371 435.085 56.1059 425.619 46.3701 409.231C43.8256 404.948 42.8516 400.076 44.112 395.209C46.3079 386.73 54.1436 380.76 61.3586 376.582C62.8827 375.705 64.4218 374.855 65.9758 374.031C72.4451 386.36 82.0989 392.499 95.0542 396.489C100.844 398.272 106.599 398.593 112.506 399.589C113.202 399.564 113.25 399.389 113.778 398.917C113.686 397.516 114.811 395.536 115.35 394.241C118.698 390.163 124.01 371.631 124.388 366.28C124.586 363.479 123.699 360.784 123.706 357.992C123.706 357.901 123.709 357.811 123.71 357.72C126.639 357.36 129.605 356.65 132.509 356.102C136.316 355.384 140.232 354.779 143.968 353.768C144.114 361.237 143.572 374.014 149.266 379.564C152.043 382.271 155.393 383.267 159.201 383.193C160.704 383.164 162.228 382.999 163.719 382.807C165.369 382.312 169.038 382.126 170.94 381.863C179.288 380.731 187.645 379.668 196.011 378.675C223.528 375.285 251.119 372.403 278.398 367.378C278.624 365.726 278.678 364.011 278.809 362.345C279.573 351.093 279.904 339.755 281.003 328.531L280.626 328.159C280.954 328.064 280.75 328.149 281.171 327.779C281.434 326.11 281.679 324.134 281.439 322.461C282.508 314.87 282.948 307.094 283.514 299.45ZM283.514 299.45C282.948 307.094 282.508 314.87 281.439 322.461C281.679 324.134 281.434 326.11 281.171 327.779C280.75 328.149 280.954 328.064 280.626 328.159L281.003 328.531C279.904 339.755 279.573 351.093 278.809 362.345C278.678 364.011 278.624 365.726 278.398 367.378C277.254 380.606 277.043 393.93 276.606 407.196L276.701 408.73L287.154 408.741C287.514 407.137 287.758 405.499 288.037 403.879C293.526 403.937 299.361 402.731 304.782 401.902C304.955 404.042 304.867 406.932 305.516 408.947L305.896 408.577C309.137 408.314 312.347 408.365 315.59 408.495C315.497 407.257 315.452 406.125 315.612 404.884C317.641 386.087 318.832 367.237 319.187 348.333C319.2 336.137 319.419 324.033 319.075 311.832C320.029 310.058 321.47 308.413 322.691 306.811C318.671 305.732 317.595 302.261 315.398 301.293C312.548 300.866 309.093 301.537 306.164 301.492C298.5 301.376 291.058 300.832 283.514 299.45ZM304.782 401.902C299.361 402.731 293.526 403.937 288.037 403.879C287.758 405.499 287.514 407.137 287.154 408.741L276.701 408.73L276.606 407.196C271.198 408.087 262.832 410.5 258.735 414.081C257.365 415.278 256.422 416.69 256.319 418.549C256.226 420.247 257.011 421.746 258.175 422.936C264.954 429.865 284.79 431.818 294.579 432.031C305.605 432.272 329.515 430.602 337.336 422.8C338.683 421.457 339.64 419.699 339.543 417.752C339.218 411.271 329.581 408.341 324.385 407.212C322.418 406.785 317.203 406.556 315.783 405.114C315.716 405.046 315.669 404.96 315.612 404.884C315.452 406.125 315.497 407.257 315.59 408.495C312.347 408.365 309.137 408.314 305.896 408.577L305.516 408.947C304.867 406.932 304.955 404.042 304.782 401.902Z" fill="#65FEB9"/>
<path d="M304.782 401.902C304.955 404.042 304.867 406.932 305.516 408.947L305.896 408.577C309.137 408.314 312.347 408.365 315.59 408.495C315.497 407.257 315.452 406.125 315.612 404.884C315.669 404.961 315.716 405.046 315.783 405.114C317.203 406.556 322.418 406.786 324.385 407.212C329.581 408.341 339.218 411.271 339.543 417.753C339.64 419.699 338.683 421.457 337.336 422.8C329.515 430.602 305.605 432.272 294.579 432.031C284.79 431.818 264.954 429.865 258.175 422.936C257.011 421.746 256.226 420.247 256.319 418.549C256.422 416.69 257.365 415.278 258.735 414.081C262.832 410.501 271.198 408.087 276.606 407.196L276.701 408.73L287.153 408.741C287.514 407.137 287.758 405.499 288.037 403.879C293.526 403.937 299.361 402.731 304.782 401.902Z" fill="#00FE58" fill-opacity="0.988235"/>
<path d="M276.701 408.73L287.153 408.741C286.86 409.858 286.638 410.827 286.63 411.991C287.63 412.889 288.323 414.064 288.422 415.422C288.585 417.68 287.329 419.46 285.924 421.067C282.529 421.113 268.221 421.945 266.275 419.97C265.851 419.539 265.72 419.013 265.836 418.425C266.412 415.487 274.434 411.705 277.003 410.349L276.701 408.73Z" fill="#3920E1"/>
<path d="M276.701 408.73L287.154 408.741C286.86 409.858 286.638 410.827 286.63 411.991C286.509 412.088 286.395 412.194 286.268 412.281C284.433 413.526 280.761 412.607 278.727 412.221C278.068 411.634 277.543 411.045 277.003 410.349L276.701 408.73Z" fill="#AF6BEE"/>
<path d="M305.516 408.947L305.896 408.577C309.137 408.314 312.347 408.365 315.59 408.496L315.831 410.27C318.281 411.78 326.688 416.377 327.328 418.927C327.473 419.502 327.339 420.005 326.89 420.402C325.025 422.05 309.4 421.289 306.49 420.66C305.729 420.496 305.481 420.221 305.035 419.568C304.098 418.193 304.198 416.129 304.566 414.589C304.797 413.619 305.205 412.541 305.759 411.706L305.516 408.947Z" fill="#3920E1"/>
<path d="M305.516 408.947L305.896 408.577C309.137 408.314 312.347 408.365 315.59 408.496L315.831 410.27C314.328 411.867 312.522 412.509 310.333 412.537C308.873 412.556 307.079 412.343 305.759 411.706L305.516 408.947Z" fill="#AF6BEE"/>
<path d="M283.514 299.45C291.058 300.832 298.5 301.376 306.164 301.492C309.093 301.537 312.548 300.866 315.398 301.293C317.595 302.261 318.671 305.732 322.691 306.811C321.47 308.413 320.029 310.058 319.075 311.832C319.419 324.033 319.2 336.137 319.187 348.333C318.832 367.237 317.641 386.087 315.612 404.884C315.452 406.125 315.497 407.257 315.59 408.495C312.347 408.365 309.137 408.314 305.896 408.577L305.516 408.947C304.867 406.932 304.955 404.042 304.782 401.902C299.361 402.731 293.526 403.937 288.037 403.879C287.758 405.499 287.514 407.137 287.154 408.741L276.701 408.73L276.606 407.196C277.043 393.93 277.254 380.606 278.398 367.378C278.624 365.726 278.678 364.011 278.808 362.345C279.573 351.093 279.904 339.755 281.003 328.531L280.626 328.159C280.954 328.064 280.75 328.149 281.171 327.779C281.434 326.11 281.679 324.134 281.439 322.461C282.508 314.87 282.948 307.094 283.514 299.45ZM296.24 353.641C295.603 356.237 295.219 358.889 294.923 361.545C297.078 360.578 299.146 359.162 301.17 357.943C300.751 355.139 300.748 352.203 300.563 349.371C299.196 350.857 297.865 352.432 296.24 353.641Z" fill="#008B4B"/>
<path d="M299.48 334.376C300.509 338.606 301.204 345.059 300.563 349.371C299.196 350.857 297.864 352.432 296.24 353.641C296.64 347.501 298.571 340.598 299.48 334.376Z" fill="#779EF9"/>
<path d="M296.24 353.641C297.865 352.432 299.196 350.857 300.563 349.371C300.748 352.203 300.751 355.139 301.17 357.943C299.146 359.162 297.078 360.578 294.923 361.545C295.22 358.889 295.603 356.237 296.24 353.641Z" fill="#00FE58" fill-opacity="0.988235"/>
<path d="M315.398 301.293C317.595 302.261 318.671 305.732 322.691 306.811C321.47 308.413 320.029 310.058 319.075 311.832C318.656 312.213 318.232 312.593 317.717 312.839C316.58 313.38 314.876 313.087 313.758 312.611C312.916 312.253 312.284 311.664 312.001 310.779C311.092 307.939 314.071 303.654 315.398 301.293Z" fill="#F9ABBC"/>
<path d="M301.17 357.943C302.217 372.609 303.421 387.262 304.782 401.902C299.361 402.731 293.526 403.937 288.037 403.879C288.694 398.133 289.826 392.432 290.788 386.731L294.923 361.545C297.078 360.578 299.146 359.162 301.17 357.943Z" fill="#65FEB9"/>
<path d="M174.295 347.306C172.877 347.316 171.533 347.159 170.489 346.099C169.543 345.137 169.319 343.467 169.094 342.177C168.439 338.425 168.409 334.469 168.076 330.668C167.586 325.104 166.612 319.249 166.855 313.668C166.929 311.944 167.482 311.235 168.736 310.095C169.123 312.281 168.862 314.707 168.934 316.94C169.09 321.742 169.618 339.713 171.192 343.428C171.858 345.001 173.261 346.003 174.295 347.306Z" fill="#65FEB9"/>
<path d="M237.901 261.217C238.002 260.867 238.155 260.668 238.36 260.372C239.296 259.878 240.393 260.295 241.436 260.106C242.342 259.541 242.822 258.58 243.386 257.698C244.761 257.989 245.701 259.086 246.968 259.62C247.07 259.663 247.173 259.704 247.276 259.745C249.073 260.586 251.069 261.338 252.761 262.359C251.479 264.192 250.384 266.082 249.554 268.162C245.113 266.101 241.227 265.121 237.901 261.217Z" fill="#F9ABBC"/>
<path d="M250.935 269.674L261.598 276.579C256.271 277.664 221.031 282.248 218.43 281.211C217.57 280.868 216.872 279.927 216.625 279.061C216.106 277.23 216.968 275.32 217.893 273.791C228.789 271.741 240.077 272.011 250.935 269.674Z" fill="#C6FEE4"/>
<path d="M276.28 273.251C276.949 264.678 277.397 256.037 279.541 247.676C279.92 247.847 280.489 247.975 280.662 248.369C281.947 251.298 281.894 277.541 281.696 282.524C274.311 282.561 268.112 279.679 261.598 276.579L250.935 269.674L249.554 268.162C250.384 266.082 251.479 264.192 252.761 262.359C255.624 263.525 258.397 265.033 261.193 266.362C266.188 268.733 271.217 271.029 276.28 273.251Z" fill="#9A54ED"/>
<path d="M216.881 262.537L216.604 262.353C215.614 261.7 214.927 261.136 214.509 259.99C214.152 259.014 214.1 257.91 214.597 256.973C215.197 255.841 216.355 255.223 217.544 254.878C220.083 254.141 222.888 254.024 225.51 253.767C229.572 253.368 233.641 253.001 237.698 252.557L257.758 250.32C262.017 249.837 266.33 249.216 270.614 249.055C272.064 249.001 274.056 248.927 275.325 249.694C276.127 250.178 276.665 251.093 276.825 252.002C276.976 252.856 276.77 253.639 276.26 254.336C275.344 255.591 273.776 256.324 272.323 256.744C269.573 257.539 266.482 257.625 263.639 257.902C258.209 258.432 252.651 258.823 247.276 259.746C247.173 259.704 247.07 259.663 246.968 259.62C245.701 259.086 244.761 257.989 243.386 257.699C242.822 258.58 242.342 259.541 241.436 260.106C240.393 260.295 239.296 259.878 238.36 260.372C238.155 260.668 238.002 260.867 237.901 261.217C237.595 261.026 237.37 260.963 236.995 260.955C235.651 260.929 234.052 261.296 232.703 261.459C227.645 262.072 221.958 263.144 216.881 262.537Z" fill="#C6FEE4"/>
<path d="M275.786 301.565C276.718 301.465 277.383 301.499 278.205 301.995C279.315 302.665 280.07 303.841 280.318 305.105C280.518 306.127 280.379 307.2 279.729 308.039C278.89 309.123 277.656 309.613 276.362 309.927C273.49 310.623 270.441 310.739 267.505 311.019C264.212 311.353 260.921 311.705 257.632 312.076L224.681 315.981C223.548 315.967 222.634 315.987 221.667 315.333C220.754 314.715 219.972 313.86 219.816 312.73C219.658 311.585 220.223 310.437 220.921 309.566C221.784 308.489 222.94 308.07 224.245 307.76C230.143 306.36 236.752 306.161 242.784 305.478L275.786 301.565Z" fill="#C6FEE4"/>
<path d="M280.626 328.159C268.577 329.188 256.559 330.969 244.572 332.56C240.975 333.038 237.378 333.422 233.776 333.852C231.266 334.152 228.61 334.628 226.085 334.604C224.893 334.592 223.632 334.415 222.639 333.704C221.705 333.035 221.144 331.965 220.986 330.839C220.853 329.889 221.082 328.994 221.704 328.255C222.381 327.452 223.321 327.014 224.314 326.746C229.626 325.311 236.578 325.008 242.16 324.347L272.855 320.606C276.992 320.123 278.044 319.777 281.439 322.461C281.679 324.135 281.434 326.11 281.171 327.779C280.75 328.149 280.954 328.064 280.626 328.159Z" fill="#C6FEE4"/>
<path d="M268.288 214.939C269.667 214.76 271.262 214.57 272.507 215.334C273.444 215.908 274.008 216.975 274.206 218.03C274.415 219.15 274.232 220.366 273.546 221.295C272.841 222.251 271.927 222.441 270.818 222.672C266.221 223.626 261.175 223.723 256.496 224.256C244.028 225.677 231.498 226.903 219.062 228.563C217.419 228.8 215.339 229.197 213.896 228.133C213.109 227.554 212.665 226.631 212.517 225.682C212.319 224.418 212.638 223.01 213.421 221.991C214.147 221.045 215.128 220.685 216.26 220.442C221.062 219.408 228.137 219.064 233.24 218.533L268.288 214.939Z" fill="#C6FEE4"/>
<path d="M266.671 196.232C267.864 195.982 270.32 195.789 271.334 196.398C272.279 196.966 272.9 197.938 273.12 199.008C273.366 200.196 273.134 201.485 272.397 202.462C271.669 203.429 270.65 203.715 269.519 203.982C265.668 204.888 261.386 204.963 257.433 205.453C249.641 206.428 241.841 207.336 234.033 208.176C228.503 208.743 222.911 209.121 217.407 209.895C215.803 209.984 213.845 210.175 212.394 209.352C211.421 208.8 210.356 207.492 210.063 206.401C209.867 205.67 210.018 205.071 210.428 204.453C211.309 203.124 213.485 202.423 214.961 202.083C220.63 200.775 226.968 200.634 232.772 200.019L266.671 196.232Z" fill="#C6FEE4"/>
<path d="M168.736 310.095C171.954 308.336 196.363 305.397 200.839 305.202C201.967 305.153 203.158 305.188 204.242 305.533C205.168 305.827 205.769 306.251 206.168 307.155C206.754 308.483 207.098 309.967 207.336 311.394C208.142 316.235 208.329 321.208 208.785 326.094C209.157 330.08 209.874 334.27 209.852 338.267C209.848 339.121 209.775 339.894 209.456 340.693C209.004 341.827 208.218 342.511 207.108 342.967C203.646 344.389 178.845 347.278 174.295 347.306C173.261 346.003 171.858 345.001 171.192 343.428C169.618 339.713 169.09 321.742 168.934 316.94C168.862 314.707 169.123 312.281 168.736 310.095Z" fill="#C6FEE4"/>
<path d="M187.24 312.624C190.332 312.351 193.534 312.88 196.183 314.558C199.169 316.451 201.063 319.607 201.839 323.006C202.668 326.634 202.161 330.509 200.122 333.667C197.8 337.266 194.365 338.782 190.356 339.614C186.88 339.754 183.658 339.411 180.664 337.428C180.475 337.301 180.29 337.169 180.108 337.032C179.926 336.895 179.747 336.754 179.572 336.608C179.397 336.462 179.226 336.312 179.058 336.157C178.891 336.002 178.728 335.843 178.569 335.681C178.409 335.518 178.254 335.351 178.103 335.18C177.952 335.009 177.806 334.834 177.664 334.656C177.523 334.477 177.385 334.296 177.252 334.111C177.12 333.925 176.992 333.737 176.869 333.545C176.746 333.353 176.628 333.158 176.515 332.96C176.402 332.763 176.294 332.562 176.191 332.358C176.088 332.155 175.991 331.949 175.898 331.741C175.806 331.532 175.719 331.322 175.637 331.109C175.556 330.897 175.48 330.682 175.409 330.465C175.338 330.249 175.273 330.03 175.213 329.81C175.154 329.591 175.1 329.369 175.051 329.146C175.003 328.924 174.96 328.7 174.923 328.475C174.884 328.249 174.851 328.023 174.823 327.795C174.795 327.567 174.773 327.34 174.757 327.111C174.741 326.883 174.73 326.654 174.725 326.425C174.72 326.195 174.721 325.966 174.727 325.737C174.734 325.508 174.746 325.279 174.763 325.051C174.781 324.822 174.805 324.594 174.834 324.367C174.864 324.14 174.898 323.913 174.939 323.688C174.979 323.462 175.025 323.238 175.077 323.014C175.129 322.791 175.186 322.569 175.249 322.349C175.311 322.128 175.38 321.91 175.453 321.693C175.527 321.476 175.606 321.261 175.69 321.047C175.775 320.834 175.864 320.624 175.959 320.415C176.054 320.206 176.154 320 176.259 319.797C176.364 319.593 176.474 319.392 176.589 319.194C176.705 318.996 176.825 318.801 176.95 318.609C177.075 318.416 177.204 318.227 177.339 318.042C179.788 314.712 183.279 313.186 187.24 312.624Z" fill="#779EF9"/>
<path d="M195.466 253.576C196.6 253.405 197.794 253.494 198.939 253.512C200.036 254.156 200.848 254.749 201.714 255.694C201.789 255.964 201.861 256.228 201.917 256.504C203.197 262.824 203.403 269.352 204.005 275.759C204.297 278.856 205.045 282.083 204.999 285.192C204.982 286.319 204.871 288.012 204.17 288.954C203.332 290.081 201.369 290.73 200.075 291.06C196.748 291.907 193.036 292.148 189.624 292.615C183.722 293.472 177.811 294.257 171.89 294.97C170.258 295.298 167.799 295.394 166.374 294.413C164.712 293.268 164.411 289.059 164.141 287.194C163.393 282.018 160.804 261.934 163.778 258.286C164.4 257.522 165.882 257.32 166.83 257.136C170.576 256.407 174.491 256.243 178.284 255.777C184.014 255.072 189.721 254.145 195.466 253.576Z" fill="#C6FEE4"/>
<path d="M183.486 259.976C186.244 260.072 188.726 260.552 191.091 262.096C194.166 264.103 196.223 267.493 196.89 271.077C196.931 271.297 196.968 271.518 196.998 271.739C197.028 271.961 197.053 272.183 197.072 272.406C197.091 272.629 197.105 272.852 197.113 273.076C197.12 273.299 197.122 273.523 197.119 273.747C197.115 273.971 197.106 274.194 197.091 274.417C197.076 274.64 197.055 274.863 197.029 275.085C197.003 275.308 196.971 275.529 196.934 275.749C196.896 275.97 196.853 276.189 196.805 276.408C196.756 276.626 196.701 276.843 196.642 277.059C196.582 277.274 196.517 277.488 196.446 277.7C196.376 277.913 196.3 278.123 196.219 278.332C196.138 278.54 196.051 278.747 195.959 278.951C195.867 279.155 195.771 279.356 195.669 279.555C195.567 279.754 195.46 279.951 195.348 280.145C195.236 280.338 195.119 280.529 194.997 280.717C194.876 280.904 194.749 281.089 194.618 281.27C192.069 284.736 188.225 286.115 184.14 286.71C180.479 286.786 177.15 286.261 174.248 283.834C171.619 281.635 170.159 278.534 169.827 275.153C169.47 271.504 170.549 267.646 172.922 264.834C175.704 261.539 179.363 260.351 183.486 259.976Z" fill="#779EF9"/>
<path d="M193.606 198.459C194.761 198.502 195.843 198.663 196.805 199.357C198.03 200.243 198.263 201.731 198.515 203.125C199.462 208.356 199.579 213.803 200.079 219.094C200.488 223.426 201.366 228.029 201.243 232.362C201.211 233.511 201.037 234.711 200.337 235.658C199.467 236.834 198.027 237.4 196.657 237.748C193.338 238.59 189.517 238.616 186.1 238.972C179.665 239.645 173.24 240.397 166.824 241.227C165.658 241.263 164.375 241.353 163.355 240.686C161.923 239.75 161.349 238.07 161.044 236.471C160.464 233.435 160.503 230.191 160.187 227.112C159.849 223.809 157.173 206.505 158.986 204.174C159.793 203.136 161.602 202.59 162.833 202.278C166.679 201.302 170.871 201.067 174.818 200.579C181.062 199.808 187.33 198.905 193.606 198.459Z" fill="#C6FEE4"/>
<path d="M168.825 209.64C169.794 209.692 170.663 209.808 171.586 210.116C175.02 211.259 178.277 213.192 181.521 214.781C185.315 216.64 189.416 218.312 192.966 220.61C190.488 223.143 187.261 224.698 184.207 226.426C181.822 227.864 172.897 234.207 170.634 233.759C169.061 231.457 168.475 220.338 168.149 217.172C167.911 214.856 167.261 211.559 168.825 209.64Z" fill="#F9ABBC"/>
<path d="M156.538 174.733C155.528 162.19 154.872 149.636 154.074 137.079C153.72 131.512 152.711 124.655 152.907 119.219C152.963 117.694 153.075 115.742 154.097 114.547C155.161 113.303 156.309 112.765 157.892 112.413C162.39 111.412 167.239 111.164 171.823 110.614L200.01 107.322L242.844 102.356C249.123 101.646 255.452 100.661 261.75 100.206C263.74 100.063 266.255 100.018 267.812 101.498C268.928 102.561 269.515 104.464 269.82 105.926C270.719 110.239 270.614 114.959 270.9 119.359C271.229 124.406 271.86 129.511 271.787 134.569C264.044 127.493 255.34 121.317 247.281 114.582C243.358 118.991 239.803 123.691 236.166 128.333C228.621 137.965 221.195 147.832 213.347 157.211C210.153 154.823 207.16 152.177 204.072 149.656C198.593 145.182 193.02 140.716 187.367 136.462C182.455 142.935 177.27 149.186 172.176 155.514C166.991 161.954 161.909 168.445 156.538 174.733Z" fill="#C6FEE4"/>
<path d="M247.281 114.582C255.34 121.317 264.044 127.493 271.787 134.569C272.251 141.233 272.771 147.893 273.347 154.548C273.718 158.835 274.412 163.274 274.144 167.578C274.055 169.004 273.846 170.894 272.82 171.976C271.531 173.335 269.612 173.971 267.819 174.292C260.77 175.559 253.322 175.862 246.187 176.594L206.604 180.844C197.108 181.851 187.622 182.942 178.145 184.118C172.567 184.779 166.558 185.842 160.953 185.775C160.882 185.774 160.811 185.772 160.74 185.77C159.515 185.01 158.451 184.243 157.486 183.149C156.959 180.353 156.728 177.568 156.538 174.733C161.909 168.445 166.991 161.954 172.176 155.514C177.27 149.186 182.455 142.935 187.367 136.462C193.02 140.716 198.593 145.182 204.072 149.656C207.16 152.177 210.153 154.823 213.347 157.211C221.195 147.832 228.621 137.965 236.166 128.333C239.803 123.691 243.358 118.991 247.281 114.582Z" fill="#00FE58" fill-opacity="0.988235"/>
<path d="M143.968 353.768C143.885 353.273 143.832 352.779 143.779 352.28C141.115 327.278 139.761 302.089 138.02 277.007L131.283 186.91L125.855 118.625L124.141 97.5383C123.825 93.6924 123.316 89.7549 123.304 85.9001C123.294 82.3548 124.017 78.6664 126.359 75.8836C128.508 73.3306 131.554 71.9446 134.748 71.2319C141.043 69.8272 147.862 69.6559 154.295 69.0062C163.006 68.1267 171.713 66.9883 180.41 65.9675L238.904 59.1536C247.79 58.1274 256.671 56.7631 265.585 56.0238C271.448 55.5375 276.158 55.7295 280.791 59.6561C283.887 62.0083 284.982 64.8212 285.485 68.5475C286.038 72.6401 286.196 76.8399 286.519 80.9575L288.159 100.737L294.207 177.265C295.058 188.254 295.45 199.388 296.641 210.333C294.58 210.465 292.838 210.943 290.919 211.695L290.869 211.377C290.228 207.164 290.061 202.82 289.735 198.569L288.023 176.31L282.282 104.147L280.604 83.9392C280.258 79.7157 280.185 75.3456 279.279 71.1965C278.837 69.1706 277.872 67.2034 276.243 65.8621C273.115 63.286 263.648 65.4261 259.878 65.8174C257.105 66.1048 254.289 66.1796 251.533 66.5945C249.576 66.8888 247.459 67.2595 246.209 68.9221C243.191 72.9363 244.583 78.3785 238.212 79.4711C229.157 81.0245 219.732 81.5506 210.591 82.5936C200.918 83.6971 190.271 85.431 180.646 85.9483C178.825 86.0458 177.22 86.0477 175.429 85.623L175.155 85.3921C169.984 80.9575 173.343 75.8481 163.78 76.4845C159.155 76.7922 147.218 77.8287 143.292 79.1325C141.68 79.667 140.172 80.5362 139.08 81.8587C136.958 84.4279 136.775 87.5912 136.817 90.7629C136.892 96.5377 137.601 102.353 138.107 108.104C138.756 115.635 139.353 123.171 139.898 130.712L146.25 215.425L154.109 319.05L156.354 349.299C156.723 354.54 156.831 359.882 157.457 365.096C157.906 368.833 158.683 371.553 161.833 373.956C166.02 377.15 172.065 375.789 176.889 375.064C187.899 373.411 198.941 372.116 209.985 370.714C222.153 369.098 234.333 367.576 246.525 366.148C252.127 365.486 257.736 364.889 263.352 364.358C268.359 363.89 273.97 363.712 278.808 362.346C278.678 364.011 278.624 365.726 278.398 367.379C251.119 372.403 223.528 375.286 196.011 378.675C187.645 379.668 179.288 380.731 170.94 381.863C169.038 382.126 165.369 382.312 163.719 382.807C162.228 382.999 160.704 383.165 159.201 383.194C155.393 383.267 152.043 382.271 149.266 379.564C143.572 374.014 144.114 361.237 143.968 353.768Z" fill="#00FE58" fill-opacity="0.988235"/>
<path d="M231.306 68.9224C231.685 68.9017 232.063 68.8761 232.442 68.8934C233.322 68.9337 234.379 69.2748 234.92 70.02C235.341 70.5993 235.457 71.0905 235.343 71.7973C235.171 72.8683 234.208 73.58 233.413 74.1942C233.243 74.2169 233.072 74.2385 232.901 74.2498C231.831 74.3237 230.811 74.1514 230.036 73.3403C229.481 72.761 229.324 71.9085 229.493 71.1412C229.73 70.0648 230.478 69.544 231.306 68.9224Z" fill="#FEFEFE"/>
<path d="M214.902 71.2184C216.008 71.0895 217 70.993 217.938 71.7146C218.417 72.0827 218.792 72.5867 218.823 73.2089C218.856 73.8403 218.59 74.4275 218.185 74.898C217.568 75.6156 216.814 75.9459 215.915 76.1728C213.44 76.7974 210.665 76.821 208.124 77.1144C201.856 77.8379 195.597 78.6155 189.306 79.1117C188.678 79.217 187.977 79.2952 187.37 79.0506C186.597 78.7396 186.01 78.1716 185.727 77.3821C185.527 76.82 185.523 76.2614 185.862 75.7436C186.476 74.806 187.721 74.5092 188.737 74.2661C191.795 73.5327 195.099 73.4889 198.227 73.1468L214.902 71.2184Z" fill="#FEFEFE"/>
<path d="M143.968 353.768C143.885 353.273 143.832 352.779 143.779 352.28C141.115 327.278 139.761 302.089 138.02 277.007L131.283 186.91L125.855 118.625L124.141 97.5383C123.825 93.6924 123.316 89.7549 123.304 85.9001C123.294 82.3548 124.017 78.6664 126.359 75.8836C128.508 73.3306 131.554 71.9446 134.748 71.2319C141.043 69.8272 147.862 69.6559 154.295 69.0062C163.006 68.1267 171.713 66.9883 180.41 65.9675L238.904 59.1536C247.79 58.1274 256.671 56.7631 265.585 56.0238C271.448 55.5375 276.158 55.7295 280.791 59.6561C280.716 59.6468 280.639 59.6384 280.564 59.6286C277.653 59.2398 275.054 58.0472 272.053 58.1565C265.018 58.4119 257.944 59.7142 250.952 60.5416L212.66 64.9408L172.258 69.6333C162.549 70.6816 152.717 71.3491 143.089 73.0043C140.521 73.4458 138.005 74.0585 135.856 75.6207C133.037 77.6697 131.168 81.3793 130.72 84.7681C130.223 88.519 130.914 92.6017 131.272 96.3517C131.733 101.027 132.162 105.705 132.559 110.385L137.219 167.779L147.674 306.658L150.027 338.126C150.663 347.54 151.148 356.973 152.077 366.364C152.43 369.946 152.721 373.784 154.997 376.744C156.649 378.891 158.876 380.196 161.246 381.402C162.077 381.825 163.018 382.184 163.719 382.807C162.228 382.999 160.704 383.165 159.201 383.194C155.393 383.267 152.043 382.271 149.266 379.564C143.572 374.014 144.114 361.237 143.968 353.768Z" fill="url(#paint5_linear_2719_527)"/>
<defs>
<linearGradient id="paint0_linear_2719_527" x1="383.519" y1="294.376" x2="379.992" y2="352.137" gradientUnits="userSpaceOnUse">
<stop stop-color="#39E784"/>
<stop offset="1" stop-color="#A6F6C5"/>
</linearGradient>
<linearGradient id="paint1_linear_2719_527" x1="363.516" y1="350.544" x2="362.141" y2="375.08" gradientUnits="userSpaceOnUse">
<stop stop-color="#A5F6C4"/>
<stop offset="1" stop-color="#D4FDE0"/>
</linearGradient>
<linearGradient id="paint2_linear_2719_527" x1="388.925" y1="351.796" x2="387.452" y2="377.739" gradientUnits="userSpaceOnUse">
<stop stop-color="#A5F6C4"/>
<stop offset="1" stop-color="#D6FEE1"/>
</linearGradient>
<linearGradient id="paint3_linear_2719_527" x1="82.5814" y1="358.558" x2="92.5783" y2="402.93" gradientUnits="userSpaceOnUse">
<stop stop-color="#88F3B2"/>
<stop offset="1" stop-color="#D9FFEA"/>
</linearGradient>
<linearGradient id="paint4_linear_2719_527" x1="107.077" y1="352.149" x2="119.64" y2="392.019" gradientUnits="userSpaceOnUse">
<stop stop-color="#86F3B0"/>
<stop offset="1" stop-color="#D2F9E1"/>
</linearGradient>
<linearGradient id="paint5_linear_2719_527" x1="116.516" y1="213.972" x2="269.522" y2="222.428" gradientUnits="userSpaceOnUse">
<stop stop-color="#0E516A"/>
<stop offset="1" stop-color="#006167"/>
</linearGradient>
</defs>
</svg>
