<svg width="710" height="710" viewBox="0 0 710 710" fill="none" xmlns="http://www.w3.org/2000/svg">
<path d="M170.948 481.117C171.527 481.178 171.188 481.182 171.957 481.005L172.11 479.734L172.493 480.539L173.43 480.806C172.848 484.682 172.194 488.49 171.267 492.303C170.908 490.656 170.322 488.837 170.232 487.164C171.205 485.433 170.712 483.072 170.948 481.117Z" fill="#B684E9"/>
<path d="M436.369 431.599C439.176 431.747 442.842 432.262 444.821 434.462C447.057 436.949 446.243 442.097 448.599 443.906C448.555 446.155 447.823 448.624 447.358 450.822C446.424 446.516 446.028 441.675 444.081 437.686C442.341 434.121 439.946 432.802 436.369 431.599Z" fill="#7A57E9"/>
<path d="M171.877 433.692C173.377 440.524 174.635 448.545 179.834 453.666C179.345 453.947 179.054 454.283 178.467 454.173C175.452 453.609 174.797 447.41 173.084 445.208C172.17 444.862 172.169 444.98 171.25 445.36C170.901 444.518 170.888 443.666 170.8 442.765C171.128 440.07 170.514 436.052 171.877 433.692Z" fill="#B684E9"/>
<path d="M171.314 429.822L171.877 433.692C170.514 436.052 171.128 440.07 170.8 442.765C169.971 447.171 169.13 452.939 165.053 455.626C163.362 456.74 161.379 457.149 159.414 456.664C159.275 456.63 159.137 456.586 158.998 456.547C159.954 456.076 160.942 455.605 161.826 455.007C169.051 450.118 170.01 437.63 171.314 429.822Z" fill="#7A57E9"/>
<path d="M151.576 463.12C152.647 462.332 153.197 462.091 154.532 462.272C158.982 462.871 164.356 465.827 166.983 469.406C169.295 472.554 170.137 476.459 170.792 480.235L170.948 481.117C170.712 483.073 171.205 485.433 170.232 487.164C168.857 482.183 168.478 476.92 166.01 472.269C162.937 466.479 157.355 464.91 151.576 463.12Z" fill="#7A57E9"/>
<path d="M17.9249 260.074C17.9018 256.641 17.626 252.902 18.2609 249.517C18.9159 246.026 20.5243 243.924 23.4477 242.005C23.0815 247.88 21.9217 253.678 22.7594 259.587L22.6095 259.889L17.9249 260.074Z" fill="#7A57E9"/>
<path d="M350.649 28.0041C350.214 26.9381 349.954 25.8707 350.042 24.7079C350.148 23.33 350.709 22.0661 351.825 21.2164C352.918 20.3847 354.363 20.0705 355.711 20.3047C355.868 20.3318 356.024 20.3671 356.177 20.4105C356.331 20.454 356.482 20.5054 356.631 20.5648C356.779 20.6242 356.924 20.6913 357.065 20.7659C357.206 20.8406 357.343 20.9225 357.476 21.0116C357.609 21.1007 357.736 21.1965 357.859 21.299C357.982 21.4016 358.099 21.5103 358.21 21.6252C358.32 21.7401 358.425 21.8605 358.524 21.9864C358.622 22.1123 358.714 22.243 358.798 22.3786C359.858 24.0572 359.598 26.2439 359.229 28.0943C357.447 29.2033 355.914 30.1719 353.762 30.3395L350.649 28.0041Z" fill="#008C4C"/>
<path d="M313.95 189.234C315.383 191.441 314.536 203.274 314.47 206.543C311.519 207.034 308.73 207.513 305.857 208.391C303.568 209.09 301.068 210.338 298.721 210.663C302.246 202.029 307.537 195.808 313.95 189.234Z" fill="#64FEB8"/>
<path d="M170.8 442.765C170.888 443.666 170.901 444.518 171.25 445.36C171.028 450.336 169.773 455.286 166.007 458.808C165.644 459.142 165.275 459.472 164.902 459.795C168.996 466.77 171.792 471.88 170.792 480.235C170.137 476.459 169.295 472.554 166.983 469.406C164.356 465.827 158.982 462.871 154.532 462.272C153.197 462.091 152.647 462.332 151.576 463.12C147.811 462.797 143.659 461.397 139.876 460.727C146.265 459.887 152.959 458.824 158.998 456.547C159.137 456.586 159.275 456.63 159.414 456.665C161.379 457.149 163.362 456.74 165.053 455.626C169.13 452.939 169.971 447.171 170.8 442.765Z" fill="url(#paint0_linear_2703_369)"/>
<path d="M529.433 97.1299C530.997 99.6295 530.395 102.58 529.774 105.319C528.745 109.861 527.218 115.177 523.096 117.854C519.032 120.494 513.659 120.333 509.243 122.267C509.114 122.323 508.984 122.376 508.855 122.431C514.512 123.856 523.156 124.843 526.41 130.284C530.141 136.522 528.62 150.524 531.265 153.974C531.232 154.242 531.045 154.468 530.913 154.702C528.9 153.891 526.608 140.029 525.749 137.387C525.073 135.307 524.129 133.275 522.758 131.56C517.521 125.009 506.107 123.358 498.259 122.45C505.633 120.577 514.96 120.826 521.146 115.939C526.424 111.77 528.657 103.51 529.433 97.1299Z" fill="#7A57E9"/>
<path d="M447.675 408.216C448.729 413.872 448.853 422.471 454.065 426.033C457.565 428.425 462.645 428.865 466.727 429.526C461.761 430.32 454.923 430.624 451.636 434.942C449.636 437.569 449.18 440.755 448.599 443.906C446.243 442.097 447.057 436.949 444.821 434.462C442.842 432.262 439.176 431.747 436.369 431.599C432.206 430.808 428.018 430.236 423.849 429.497C429.964 428.893 438.951 428.561 443.163 423.489C446.423 419.561 446.996 413.101 447.675 408.216Z" fill="#CA96F0"/>
<path d="M575.099 447.181C576.249 453.013 574.592 465.96 571.21 470.975C567.771 476.076 561.821 477.221 556.231 478.402C561.76 479.394 568.022 480.877 571.499 485.699C577.531 494.059 574.048 505.776 576.011 515.185L575.536 515.345C572.797 510.52 572.777 498.1 569.082 490.728C563.529 479.646 551.813 481.226 541.816 477.86L541.313 477.687C548.433 475.774 559.076 475.655 565.125 471.602C571.979 467.011 573.554 454.701 575.099 447.181Z" fill="#7A57E9"/>
<path d="M359.229 28.0943C359.7 31.6098 361.964 35.4916 363.469 38.6985C367.395 46.9085 371.397 55.0806 375.477 63.2148C377.545 67.3959 380.095 71.7773 381.574 76.1856C377.934 76.8804 373.867 76.4117 370.165 76.2681C368.147 63.177 360.432 41.8453 353.762 30.3395C355.915 30.1719 357.447 29.2033 359.229 28.0943Z" fill="#64FEB8"/>
<path d="M117.964 141.026C127.026 138.922 141.56 137.693 146.985 129.112C149.674 124.858 151.077 118.606 152.276 113.735C152.891 111.234 153.418 107.085 155.073 105.129L155.625 105.25C155.6 105.35 155.572 105.45 155.548 105.551C153.273 114.958 156.085 130.177 146.618 136.222C141.328 139.6 133.901 139.466 127.925 141.151C135.951 144.009 147.701 141.958 152.034 151.16C153.796 154.902 155.244 167.505 153.733 171.324C153.599 171.662 153.51 171.787 153.319 172.125C151.025 166.186 150.029 159.576 146.761 154.042C141.596 145.3 127.228 143.322 117.964 141.026Z" fill="#7A57E9"/>
<path d="M171.25 445.36C172.169 444.98 172.17 444.862 173.084 445.208C174.797 447.41 175.452 453.609 178.467 454.173C179.054 454.283 179.345 453.947 179.834 453.666C186.069 458.054 193.585 458.884 200.793 460.744C192.748 462.572 181.816 464.126 176.941 471.615C175.12 474.413 174.215 477.596 173.43 480.806L172.493 480.539L172.11 479.734L171.957 481.006C171.188 481.182 171.527 481.178 170.948 481.117L170.792 480.235C171.792 471.88 168.996 466.77 164.902 459.795C165.275 459.471 165.644 459.142 166.007 458.808C169.773 455.286 171.028 450.336 171.25 445.36Z" fill="#CA96F0"/>
<path d="M529.433 97.1299C529.688 96.0747 529.707 95.2835 530.473 94.4959C531.903 95.4964 532.352 100.416 532.668 102.145C533.631 107.403 536.053 113.318 540.598 116.446C546.073 120.214 553.791 120.208 559.998 122.311C559.874 122.364 559.752 122.42 559.628 122.472C550.703 126.195 540.156 122.915 535.508 133.974C532.879 140.231 532.807 147.421 531.265 153.974C528.62 150.524 530.141 136.522 526.41 130.284C523.155 124.843 514.512 123.856 508.855 122.431C508.984 122.376 509.114 122.323 509.243 122.267C513.659 120.333 519.032 120.494 523.096 117.854C527.218 115.177 528.745 109.861 529.774 105.319C530.395 102.58 530.997 99.6295 529.433 97.1299Z" fill="#B684E9"/>
<path d="M575.099 447.181C575.23 446.21 575.198 445.005 575.933 444.288C577.251 445.16 577.81 448.647 578.131 450.196C579.694 457.749 580.632 467.073 587.587 471.819C594.095 476.26 602.737 475.358 610.009 477.472L609.546 477.632C598.674 481.304 588.204 479.128 581.812 491.55C578.074 498.812 577.9 507.378 576.011 515.185C574.048 505.776 577.531 494.059 571.499 485.699C568.021 480.877 561.76 479.394 556.231 478.402C561.821 477.221 567.77 476.076 571.21 470.975C574.592 465.96 576.249 453.013 575.099 447.181Z" fill="#CA96F0"/>
<path d="M298.721 210.663C301.068 210.338 303.568 209.09 305.857 208.391C308.73 207.513 311.519 207.034 314.47 206.543C314.339 214.628 313.646 223.234 314.655 231.257C315.595 235.018 316.761 238.663 317.826 242.385C317.581 242.364 317.335 242.344 317.09 242.336C308.416 242.036 299.082 248.647 292.998 254.149C292.223 238.871 293.014 225.055 298.721 210.663Z" fill="url(#paint1_linear_2703_369)"/>
<path d="M155.625 105.25C158.652 115.396 159.34 129.78 169.824 135.36C175.935 138.612 183.48 139.733 190.22 141.121C184.491 142.573 178.544 143.641 172.925 145.432C168.425 146.964 165.225 149.006 162.625 153.107C161.565 155.449 160.629 157.839 159.817 160.278C159.148 162.266 155.45 175.34 154.752 175.986C154.118 174.714 153.694 173.496 153.319 172.125C153.51 171.787 153.599 171.662 153.733 171.324C155.244 167.505 153.796 154.902 152.034 151.16C147.701 141.958 135.951 144.009 127.926 141.151C133.901 139.466 141.328 139.6 146.618 136.222C156.085 130.177 153.273 114.958 155.548 105.551C155.572 105.45 155.6 105.35 155.625 105.25Z" fill="#B684E9"/>
<path d="M162.625 153.107C162.01 152.105 161.807 151.498 162.12 150.329C162.593 148.554 164.462 147.182 166.011 146.408C168.206 145.312 170.535 144.683 172.925 145.432C168.425 146.964 165.225 149.006 162.625 153.107Z" fill="#7A57E9"/>
<path d="M395.157 188.797C402.75 196.19 408.31 203.373 411.819 213.526C416.821 227.085 417.907 240.651 417.363 254.962C411.017 249.08 403.034 242.155 393.752 242.614C393.315 242.637 392.878 242.672 392.443 242.719C393.667 238.905 394.715 235.139 395.505 231.207C395.617 228.462 395.525 225.691 395.507 222.943C394.953 219.03 395.168 214.739 395.173 210.783C395.244 203.455 395.238 196.126 395.157 188.797Z" fill="url(#paint2_linear_2703_369)"/>
<path d="M395.157 188.797C402.75 196.19 408.31 203.373 411.819 213.526C411.515 213.585 411.211 213.766 410.906 213.705C410.164 213.559 409.061 212.737 408.41 212.314C404.274 209.631 400.183 207.491 395.577 205.735C395.376 211.466 395.834 217.235 395.507 222.943C394.953 219.03 395.168 214.739 395.173 210.783C395.244 203.455 395.238 196.126 395.157 188.797Z" fill="#64FEB8"/>
<path d="M350.649 28.0041L353.762 30.3395C360.432 41.8453 368.147 63.177 370.165 76.2681C366.277 76.2876 362.135 76.0192 358.285 76.5614C348.258 76.2182 338.306 76.6211 328.289 76.5219C329.972 71.0416 333.432 65.6789 335.884 60.4771C341.001 49.7415 345.923 38.9171 350.649 28.0041Z" fill="#00FE58" fill-opacity="0.988235"/>
<path d="M496.951 262.699C497.705 267.376 496.894 272.467 497.109 277.208L497.116 281.502C497.321 303.136 497.315 324.771 497.097 346.406C497.085 356.582 496.525 367.144 497.279 377.276C498.419 379.098 499.739 381.572 501.976 382.109C509.121 383.824 520.947 382.417 528.611 382.403L601.76 382.06L654.181 382.051C663.347 382.121 672.565 382.861 681.728 382.289C685.679 382.042 687.933 381.21 691.331 379.209C690.876 380.822 690.407 382.358 689.5 383.79C688.222 385.807 686.283 386.965 683.949 387.374C677.951 388.427 670.677 387.632 664.586 387.595C653.964 387.554 643.343 387.588 632.722 387.697C601.79 387.876 570.859 387.838 539.929 387.583C533.208 387.528 526.464 387.361 519.745 387.479C515.556 387.553 511.419 388.014 507.225 387.754C503.85 387.544 500.379 387.085 497.602 384.98C495.114 383.095 494.297 380.094 493.87 377.129C493.03 371.288 493.652 365.039 493.698 359.143L493.89 325.527L493.887 291.92C493.839 285.092 493.373 277.999 494.04 271.203C494.35 268.042 495.011 265.289 496.951 262.699Z" fill="#008C4C"/>
<path d="M370.165 76.2682C373.867 76.4117 377.934 76.8804 381.574 76.1856C385.968 86.7823 390.678 96.9663 393.251 108.21C395.532 118.181 394.909 128.598 394.885 138.757L394.934 166.392C394.923 171.562 393.941 184.382 395.157 188.797C395.238 196.126 395.244 203.455 395.173 210.783C395.168 214.739 394.953 219.03 395.507 222.943C395.525 225.691 395.617 228.462 395.505 231.207L383.358 231.223C384.751 224.464 384.575 217.278 384.778 210.399C385.207 195.891 385.171 181.4 385.206 166.887C385.23 156.466 385.395 146.054 385.291 135.632C385.223 128.776 385.34 121.796 384.156 115.022C382.709 106.742 380.627 98.2941 377.693 90.4085C376.028 85.9315 373.514 81.7707 372.505 77.0676L372.402 76.5753C367.731 76.7057 362.946 76.9019 358.285 76.5614C362.135 76.0192 366.277 76.2876 370.165 76.2682Z" fill="#C6FEE4"/>
<path d="M347.903 257.559C353.249 257.357 358.597 257.291 363.946 257.362L373.377 257.344C373.456 277.517 374.807 286.448 364.116 304.584C361.459 309.093 358.698 313.744 355.412 317.823C346.509 308.15 337.705 292.375 336.614 279.138C336.025 271.992 337.009 264.733 336.989 257.572L347.903 257.559Z" fill="#F96D91"/>
<path d="M347.903 257.559C353.249 257.357 358.597 257.291 363.946 257.362C364.873 267.742 365.027 276.619 361.074 286.482C359.869 289.49 358.393 292.598 356.301 295.1C355.78 295.721 355.241 296.328 354.687 296.92C347.68 286.262 344.282 274.532 346.887 261.866C347.182 260.432 347.453 258.953 347.903 257.559Z" fill="#FEC274"/>
<path d="M23.4477 242.005C25.5591 241.053 27.4988 240.705 29.7902 240.644C35.9832 240.48 42.1811 240.879 48.3732 240.91L89.5765 240.94L164.681 240.894C177.515 240.872 190.562 240.3 203.366 240.931C204.703 240.996 205.888 241.093 207.151 241.565C208.458 242.055 209.605 242.754 210.622 243.709C214.843 248.939 213.478 257.781 213.535 264.18C197.881 264.267 182.226 264.27 166.571 264.189C126.612 264.283 86.6537 264.157 46.6962 263.81C46.487 262.966 46.3219 261.903 45.8323 261.177C44.7159 259.522 41.8003 260.227 40.0398 259.941C39.825 259.906 39.6111 259.866 39.3967 259.829L37.3866 259.696C36.4898 259.94 36.3481 259.95 35.4546 259.701C31.2177 259.731 26.9942 259.753 22.7594 259.587C21.9217 253.678 23.0814 247.88 23.4477 242.005Z" fill="#B684E9"/>
<path d="M35.4547 259.701C34.846 259.269 34.1133 258.934 33.4575 258.572C33.1892 257.442 33.9741 257.536 34.2261 256.409C33.5511 255.506 33.0728 254.83 32.7863 253.731L33.0791 253.358C34.0319 255.061 35.028 256.754 37.0176 257.341C38.0857 257.656 39.1539 257.628 40.2532 257.577C39.2986 258.272 38.292 258.939 37.3866 259.696C36.4898 259.94 36.3481 259.95 35.4547 259.701Z" fill="#7A57E9"/>
<path d="M63.7901 246.469C64.5594 246.436 65.3654 246.382 66.1277 246.511C67.7681 246.788 69.3293 247.921 70.1874 249.333C70.284 249.49 70.3723 249.651 70.4522 249.816C70.5327 249.981 70.6039 250.151 70.6658 250.324C70.7282 250.496 70.7814 250.672 70.8253 250.851C70.8692 251.03 70.9036 251.21 70.9286 251.392C70.954 251.574 70.9695 251.757 70.975 251.94C70.981 252.124 70.9776 252.308 70.9646 252.491C70.9512 252.674 70.9283 252.857 70.896 253.037C70.8636 253.219 70.822 253.397 70.7712 253.574C70.1888 255.578 68.8489 256.582 67.1311 257.609C66.375 257.626 65.6111 257.642 64.8572 257.566C63.278 257.41 61.6864 256.613 60.7108 255.341C59.8817 254.261 59.6433 252.977 59.8594 251.648C60.2615 249.173 61.8808 247.863 63.7901 246.469Z" fill="#FEFEFE"/>
<path d="M33.0791 253.358C33.227 251.129 33.3641 249.392 35.201 247.863C36.457 246.818 38.0283 246.353 39.6511 246.515C41.2055 246.67 42.6892 247.441 43.6522 248.684C43.7536 248.812 43.8482 248.945 43.936 249.083C44.0239 249.221 44.1045 249.363 44.1779 249.509C44.2512 249.655 44.317 249.804 44.3751 249.957C44.4333 250.11 44.4835 250.265 44.5258 250.423C44.5681 250.581 44.6024 250.74 44.6284 250.902C44.6545 251.063 44.6723 251.225 44.6818 251.389C44.6913 251.552 44.6925 251.715 44.6854 251.879C44.6783 252.042 44.663 252.204 44.6393 252.366C44.3822 254.048 43.4724 255.687 42.0155 256.605C41.4487 256.962 40.8484 257.27 40.2532 257.577C39.1539 257.628 38.0857 257.657 37.0176 257.341C35.028 256.754 34.0319 255.061 33.0791 253.358Z" fill="#FEFEFE"/>
<path d="M210.622 243.709C214.843 248.939 213.478 257.781 213.535 264.18C197.881 264.267 182.226 264.27 166.571 264.189C126.612 264.283 86.6537 264.157 46.6962 263.81C46.487 262.966 46.322 261.903 45.8323 261.177C44.7159 259.522 41.8003 260.227 40.0398 259.941C39.825 259.906 39.6111 259.866 39.3967 259.829C43.391 259.226 48.0906 259.68 52.1674 259.642C56.6142 259.599 61.0764 259.314 65.5209 259.364C69.2832 259.406 73.0336 259.829 76.7951 259.927C81.4933 260.049 86.2206 259.925 90.923 259.945L210.784 260.052C211.025 257.693 211.154 255.285 210.996 252.917C210.88 251.171 209.719 246.192 210.002 244.863C210.093 244.436 210.415 244.094 210.622 243.709Z" fill="url(#paint3_linear_2703_369)"/>
<path d="M496.951 262.699C499.448 260.318 501.675 259.241 505.1 258.862C511.783 258.122 518.802 258.744 525.532 258.776L563.446 258.803L633.818 258.96C648.446 258.956 663.148 258.642 677.768 258.979C681.323 259.062 685.921 259.234 688.506 261.946C692.094 265.712 691.586 271.801 691.583 276.621L691.555 281.38C669.677 281.792 647.719 281.436 625.833 281.447L497.116 281.502L497.109 277.208C496.894 272.467 497.705 267.376 496.951 262.699Z" fill="#B684E9"/>
<path d="M543.836 275.41C543.701 275.943 543.5 276.166 542.999 276.448C542.23 276.881 540.849 276.743 540.01 276.573C538.207 276.209 535.939 274.377 535.048 272.793C534.594 271.986 534.321 270.929 534.744 270.052C535.299 268.897 536.567 268.323 537.691 267.904C537.666 269.796 537.598 271.894 538.962 273.392C540.244 274.802 542.043 275.117 543.836 275.41Z" fill="#7A57E9"/>
<path d="M514.184 265.224C515.237 265.178 516.388 265.099 517.43 265.274C518.923 265.525 520.648 266.742 521.53 267.949C522.189 268.852 522.498 269.935 522.281 271.049C521.906 272.986 520.537 273.908 518.955 274.87C517.831 274.971 516.614 275.071 515.494 274.907C513.989 274.687 512.266 273.603 511.373 272.383C510.683 271.441 510.464 270.407 510.647 269.254C510.966 267.241 512.602 266.228 514.184 265.224Z" fill="#FEFEFE"/>
<path d="M537.69 267.904C539.511 266.134 540.84 264.945 543.551 264.963C545.188 264.974 546.8 265.593 547.956 266.767C548.906 267.731 549.478 269.078 549.365 270.441C549.252 271.816 548.499 273.028 547.411 273.854C546.354 274.655 545.089 275.038 543.836 275.41C542.043 275.117 540.244 274.802 538.962 273.392C537.598 271.894 537.666 269.796 537.69 267.904Z" fill="#FEFEFE"/>
<path d="M497.109 277.208C514.425 277.529 531.784 277.315 549.105 277.338L635.09 277.618L672.098 277.677C678.208 277.699 684.546 277.367 690.625 277.887L691.025 277.925L691.583 276.621L691.555 281.38C669.677 281.792 647.719 281.436 625.833 281.447L497.116 281.502L497.109 277.208Z" fill="url(#paint4_linear_2703_369)"/>
<path d="M328.289 76.5219C338.306 76.6211 348.258 76.2182 358.285 76.5614C362.946 76.9019 367.731 76.7057 372.402 76.5753L372.505 77.0676C373.514 81.7707 376.027 85.9315 377.693 90.4085C380.626 98.2941 382.709 106.742 384.156 115.022C385.34 121.796 385.223 128.776 385.291 135.632C385.395 146.054 385.23 156.466 385.205 166.887C385.171 181.4 385.207 195.891 384.778 210.399C384.575 217.278 384.751 224.464 383.358 231.223L395.505 231.207C394.715 235.139 393.666 238.905 392.443 242.719C389.142 243.435 385.743 244.107 382.379 244.457L382.419 257.106L373.377 257.344L363.946 257.362C358.597 257.291 353.249 257.357 347.903 257.559L336.989 257.572C334.047 257.391 331.073 257.469 328.126 257.465C328.124 253.059 328.239 248.646 328.298 244.239C324.849 243.389 321.215 243.655 317.825 242.385C316.761 238.663 315.595 235.018 314.655 231.257C313.646 223.234 314.339 214.628 314.47 206.543C314.536 203.274 315.383 191.441 313.95 189.234C313.66 188.814 313.697 188.909 313.472 188.383C312.075 185.137 312.853 175.084 312.935 171.163C313.446 146.874 314.977 120.135 321.36 96.6543C323.228 89.7776 325.763 83.1754 328.289 76.5219Z" fill="#FEFEFE"/>
<path d="M363.078 90.699C368.331 93.132 372.484 97.1279 374.526 102.624C374.642 102.934 374.75 103.246 374.85 103.56C374.951 103.875 375.043 104.192 375.128 104.511C375.213 104.83 375.291 105.151 375.361 105.475C375.43 105.797 375.492 106.121 375.546 106.447C375.6 106.773 375.646 107.1 375.684 107.428C375.723 107.757 375.753 108.085 375.776 108.415C375.798 108.745 375.813 109.074 375.82 109.404C375.826 109.735 375.825 110.065 375.815 110.395C375.806 110.725 375.789 111.055 375.764 111.385C375.739 111.714 375.706 112.042 375.665 112.37C375.624 112.698 375.575 113.025 375.518 113.35C375.462 113.676 375.397 114 375.324 114.322C375.252 114.644 375.172 114.964 375.085 115.283C374.997 115.601 374.902 115.917 374.799 116.231C374.696 116.545 374.586 116.856 374.468 117.165C374.35 117.474 374.225 117.779 374.092 118.082C371.846 123.105 367.611 126.867 362.483 128.775C362.162 128.894 361.834 128.995 361.507 129.098C362.594 127.707 364.248 126.653 365.586 125.502C368.418 123.063 370.625 118.821 371.727 115.276C374.047 107.812 372.055 100.544 366.775 94.88C365.751 93.781 363.759 92.4213 363.182 91.0658C363.132 90.9486 363.112 90.8218 363.078 90.699Z" fill="#39D5FB"/>
<path d="M361.507 129.098C361.444 129.131 361.383 129.169 361.319 129.199C357.187 131.096 351.315 130.141 347.219 128.416C342.082 126.253 338.054 122.361 336.023 117.147C334.043 112.058 334.214 106.546 336.408 101.561C338.693 96.3686 342.956 91.97 348.312 89.9648C353.266 88.1107 358.337 88.4949 363.078 90.699C363.112 90.8218 363.132 90.9486 363.182 91.0658C363.759 92.4213 365.751 93.781 366.775 94.88C372.055 100.544 374.047 107.812 371.727 115.276C370.625 118.821 368.418 123.063 365.586 125.502C364.248 126.653 362.594 127.707 361.507 129.098Z" fill="#C6FEE4"/>
<path d="M349.024 231.237C350.613 217.268 351.666 203.232 353.178 189.252C353.814 183.373 354.106 177.054 355.487 171.3C355.92 180.752 357.158 190.232 357.949 199.668C358.825 210.118 359.211 220.922 361.033 231.245L383.358 231.223L395.505 231.207C394.715 235.139 393.667 238.905 392.443 242.719C389.142 243.435 385.744 244.107 382.379 244.457L382.419 257.106L373.377 257.344L363.946 257.362C358.597 257.291 353.249 257.357 347.903 257.559L336.989 257.572C334.047 257.391 331.074 257.469 328.126 257.465C328.124 253.059 328.239 248.646 328.298 244.239C324.849 243.389 321.215 243.655 317.826 242.385C316.761 238.663 315.595 235.018 314.655 231.257L349.024 231.237Z" fill="#64FEB8"/>
<path d="M328.298 244.239C333.626 244.739 339.143 244.485 344.498 244.508C350.987 244.537 357.478 245.042 363.963 245.008C370.109 244.976 376.226 244.337 382.379 244.457L382.419 257.106L373.377 257.344L363.946 257.362C358.597 257.291 353.249 257.357 347.903 257.559L336.989 257.572C334.047 257.391 331.074 257.469 328.126 257.465C328.124 253.059 328.239 248.646 328.298 244.239Z" fill="#008C4C"/>
<path d="M497.117 281.502L625.833 281.447C647.719 281.436 669.677 281.792 691.555 281.38C691.311 301.369 691.219 321.36 691.279 341.35C691.272 353.972 690.978 366.592 691.331 379.209C687.933 381.21 685.679 382.042 681.728 382.289C672.566 382.861 663.347 382.121 654.181 382.051L601.76 382.06L528.611 382.403C520.947 382.417 509.121 383.824 501.976 382.109C499.739 381.572 498.419 379.098 497.279 377.276C496.525 367.143 497.085 356.582 497.097 346.406C497.315 324.771 497.321 303.136 497.117 281.502Z" fill="url(#paint5_linear_2703_369)"/>
<path d="M516.321 351.277C516.1 351.393 515.915 351.504 515.663 351.565C514.864 351.759 514.187 351.818 513.49 351.304C512.692 350.717 512.266 349.55 512.083 348.617C511.73 346.816 512.093 345.27 513.071 343.75C514.043 343.187 514.118 343.277 515.248 343.443C515.009 346.451 515.134 348.448 516.321 351.277Z" fill="#008C4C"/>
<path d="M516.354 333.129C515.271 333.364 514.198 333.61 513.196 332.939C512.127 332.222 511.59 330.827 511.448 329.593C511.27 328.066 511.738 325.68 512.882 324.56C513.721 323.739 514.276 323.851 515.364 323.768C514.632 326.749 514.234 329.61 515.867 332.384C516.139 332.847 516.095 332.772 516.354 333.129Z" fill="#008C4C"/>
<path d="M517.52 315.362C517.147 315.734 516.703 316.153 516.18 316.307C515.307 316.564 514.631 316.369 513.906 315.868C512.397 314.823 511.883 311.728 511.874 310.066C511.865 308.474 512.14 307.317 513.29 306.176C514.25 305.878 514.394 305.785 515.344 306.063C514.699 308.458 514.081 310.861 515.41 313.169C515.919 314.052 516.744 314.72 517.52 315.362Z" fill="#008C4C"/>
<path d="M516.733 369.689C515.757 369.956 514.748 370.325 513.774 369.843C512.671 369.298 512.183 367.888 511.956 366.763C511.551 364.747 511.675 361.991 512.848 360.248C513.896 360.026 514.568 360.487 515.555 360.865C515.417 364.13 515.202 366.685 516.733 369.689Z" fill="#008C4C"/>
<path d="M632.483 340.249C645.224 339.862 658.649 339.521 671.303 341.059C672.297 342.48 672.912 344.001 673.575 345.59C673.017 346.957 672.487 348.582 671.408 349.627C669.515 351.46 666.083 350.994 663.665 351.019C657.347 351.089 651.026 350.947 644.706 351.016C639.787 351.07 634.709 351.508 629.819 350.995C628.342 350.84 626.87 350.605 625.648 349.708C625.491 349.594 625.34 349.473 625.195 349.344C625.049 349.215 624.911 349.079 624.78 348.936C624.648 348.793 624.524 348.643 624.408 348.488C624.292 348.333 624.184 348.172 624.084 348.005C623.983 347.839 623.892 347.668 623.809 347.492C623.726 347.317 623.653 347.137 623.589 346.954C623.524 346.771 623.469 346.585 623.423 346.396C623.377 346.208 623.341 346.017 623.314 345.825C623.15 344.561 623.442 343.169 624.295 342.194C626.195 340.02 629.873 340.315 632.483 340.249Z" fill="#FEFEFE"/>
<path d="M657.476 304.223C661.326 304.063 668.17 303.358 671.295 305.804C672.487 306.737 673.258 308.239 673.355 309.748C673.436 311.008 673.067 312.263 672.159 313.172C670.704 314.628 668.117 315.028 666.145 315.265C660.582 315.933 654.805 315.385 649.219 315.26C642.063 315.155 634.907 315.15 627.751 315.246C623.968 315.419 617.218 316.299 613.996 313.824C612.883 312.969 612.177 311.471 612.008 310.097C611.856 308.858 612.241 307.757 613.088 306.846C614.414 305.419 617.468 305.012 619.352 304.782C624.698 304.132 630.097 304.53 635.465 304.534C642.803 304.49 650.14 304.386 657.476 304.223Z" fill="#C6FEE4"/>
<path d="M517.568 322.095C531.704 321.328 545.956 321.649 560.113 321.679C567.724 321.694 575.811 321.128 583.356 321.971C584.8 322.133 586.246 322.339 587.377 323.327C588.553 324.353 589.189 325.901 589.241 327.447C589.287 328.817 588.906 330.202 587.908 331.179C586.82 332.243 585.254 332.866 583.769 333.084C578.3 333.885 572.351 333.163 566.824 333.126L534.083 333.077C528.178 333.062 522.246 332.652 516.354 333.129C516.095 332.772 516.139 332.846 515.867 332.384C514.234 329.61 514.632 326.749 515.364 323.768C516.087 323.2 516.797 322.595 517.568 322.095Z" fill="#C6FEE4"/>
<path d="M598.971 322.154C611.607 321.888 624.243 322.111 636.88 322.063C646.761 322.026 656.876 321.579 666.732 322.302C668.097 322.402 669.615 322.508 670.809 323.227C671.928 323.899 672.619 325.207 672.848 326.458C673.163 328.188 672.724 330.211 671.659 331.621C670.713 332.874 669.59 332.997 668.138 333.148C644.755 333.419 621.372 333.401 597.989 333.093C596.705 332.15 595.438 331.207 594.664 329.776C594.04 328.623 593.795 327.307 594.258 326.051C595.026 323.966 597.095 323.02 598.971 322.154Z" fill="#C6FEE4"/>
<path d="M515.344 306.063C517.13 304.749 518.805 304.348 520.992 304.159C527.469 303.598 534.203 304.002 540.705 304.024L574.665 304.053C580.372 304.056 586.088 304.133 591.793 304.055C594.595 304.017 597.742 303.514 600.502 303.952C602.399 304.252 604.154 305.098 605.255 306.723C606.001 307.826 606.382 309.23 606.08 310.547C605.755 311.96 604.794 313.055 603.556 313.768C601.811 314.772 599.697 315.042 597.717 315.146C591.78 315.46 585.701 314.848 579.744 314.793C563.841 314.55 547.938 314.489 532.034 314.612C527.45 314.679 521.971 314.299 517.52 315.362C516.744 314.72 515.919 314.052 515.41 313.169C514.081 310.861 514.699 308.458 515.344 306.063Z" fill="#FEFEFE"/>
<path d="M515.555 360.865C516.161 359.78 516.431 359.252 517.667 358.917C522.177 357.694 529.428 358.565 534.253 358.545L577.59 358.524C588.064 358.535 598.772 357.961 609.22 358.42C611.15 358.504 614.108 358.526 615.699 359.717C616.966 360.665 617.835 363.01 617.864 364.554C617.889 365.885 617.356 367.092 616.383 367.996C615.037 369.248 613.123 369.821 611.334 370.036C608.526 370.375 605.484 370.19 602.64 370.207C596.759 370.244 590.877 370.231 584.996 370.167C568.785 369.902 552.574 369.815 536.362 369.904C529.91 369.899 523.127 369.31 516.733 369.69C515.202 366.685 515.417 364.13 515.555 360.865Z" fill="#FEFEFE"/>
<path d="M515.248 343.443C515.493 342.653 515.674 341.594 516.48 341.21C518.566 340.217 522.062 340.238 524.342 340.167C530.07 339.987 535.823 340.296 541.554 340.348C549.294 340.419 557.046 340.274 564.786 340.209C578.929 340.091 595.105 339.275 609.017 340.047C610.816 340.147 612.689 340.386 614.325 341.183C615.57 341.791 616.585 342.729 616.955 344.098C617.403 345.753 616.728 347.813 615.793 349.187C614.788 350.666 613.471 351.593 611.7 351.891C606.324 352.794 595.02 351.891 588.853 351.883L527.848 351.883C524.007 351.874 520.107 351.243 516.321 351.277C515.134 348.448 515.009 346.451 515.248 343.443Z" fill="#FEFEFE"/>
<path d="M22.7594 259.587C26.9942 259.753 31.2177 259.731 35.4547 259.7C36.3481 259.95 36.4898 259.94 37.3866 259.696L39.3967 259.829C39.6111 259.866 39.825 259.906 40.0398 259.941C41.8003 260.227 44.7159 259.522 45.8323 261.177C46.322 261.903 46.487 262.966 46.6962 263.81C86.6537 264.157 126.612 264.283 166.571 264.189C182.226 264.27 197.881 264.267 213.535 264.18L213.532 331.897L213.589 351.197C213.614 354.719 213.92 358.447 213.49 361.944C213.123 364.928 212.434 367.326 210.313 369.558C206.185 373.902 198.543 373.398 193.039 373.39L164.186 373.264L70.6831 372.974C62.9666 372.943 55.2502 372.956 47.5337 373.011C41.8978 373.099 36.1202 373.608 30.5082 373.017C27.1742 372.666 24.385 372.037 21.8432 369.674C19.4338 367.433 18.5162 364.814 18.0662 361.633C17.481 357.497 17.7058 353.205 17.7264 349.038L17.8337 330.647C17.9471 308.129 18.253 285.541 17.8631 263.028L17.9249 260.074L22.6095 259.889L22.7594 259.587Z" fill="url(#paint6_linear_2703_369)"/>
<path d="M163.346 366.454C170.198 366.04 176.973 366.12 183.832 366.233C191.33 366.356 199.453 367.36 206.709 365.212C204.893 367.06 200.171 366.815 197.731 366.836L173.205 366.835C169.936 366.858 166.487 367.395 163.257 367.187L163.346 366.454Z" fill="#64FEB8"/>
<path d="M22.7594 259.587C26.9942 259.753 31.2177 259.731 35.4547 259.7C36.3481 259.95 36.4898 259.94 37.3866 259.696L39.3967 259.829C39.6111 259.866 39.825 259.906 40.0398 259.941C41.8003 260.227 44.7159 259.522 45.8323 261.177C46.322 261.903 46.487 262.966 46.6962 263.81C40.334 263.895 33.9379 264.002 27.5809 263.699L24.3722 263.653C22.3185 263.259 19.9636 263.25 17.8631 263.028L17.9249 260.074L22.6095 259.889L22.7594 259.587Z" fill="#5154CB"/>
<path d="M150.759 324.632C158.239 324.356 165.745 324.523 173.23 324.45C178.772 324.395 184.659 323.947 190.167 324.561C191.599 324.72 193.15 324.914 194.279 325.895C195.264 326.75 195.83 327.948 195.915 329.247C195.927 329.428 195.93 329.61 195.923 329.791C195.916 329.972 195.9 330.152 195.875 330.332C195.849 330.512 195.815 330.689 195.771 330.865C195.727 331.042 195.674 331.215 195.612 331.385C195.55 331.556 195.48 331.723 195.4 331.886C195.321 332.049 195.234 332.208 195.138 332.362C195.043 332.516 194.939 332.665 194.828 332.809C194.717 332.952 194.599 333.09 194.473 333.221C193.198 334.532 191.426 334.483 189.72 334.553L163.81 334.599C159.335 334.612 154.557 334.96 150.128 334.483C148.499 334.307 145.9 333.895 144.662 332.693C144.055 332.105 143.452 330.676 143.411 329.825C143.36 328.77 143.659 327.774 144.395 326.997C146.23 325.057 148.256 324.765 150.759 324.632Z" fill="#FEFEFE"/>
<path d="M146.779 288.618C155.178 288.442 163.581 288.514 171.981 288.421C178.014 288.354 184.327 287.878 190.317 288.529C191.835 288.693 193.489 288.867 194.658 289.938C195.636 290.834 196.228 292.243 196.246 293.56C196.265 294.981 195.656 296.29 194.655 297.282C191.636 300.272 185.417 299.299 181.487 299.245L155.213 299.255C149.49 299.291 143.421 299.748 137.75 298.966C136.386 298.778 135.182 298.522 134.13 297.573C133.015 296.569 132.428 295.044 132.466 293.557C132.5 292.177 133.045 290.837 134.065 289.892C136.438 287.697 143.518 288.604 146.779 288.618Z" fill="#C6FEE4"/>
<path d="M42.9276 306.598C52.7486 306.17 62.6504 306.715 72.4817 306.641C82.5999 306.565 92.9774 305.81 103.071 306.536C104.528 306.641 106.09 306.714 107.277 307.659C108.367 308.528 109.172 309.632 109.26 311.058C109.341 312.367 108.991 313.772 108.101 314.761C106.77 316.24 105.224 316.566 103.316 316.59C89.7533 316.467 76.1413 316.712 62.577 316.857C56.1481 316.926 49.4006 317.5 43.0078 316.838C41.2355 316.655 39.4372 316.299 38.026 315.135C37.0852 314.357 36.5009 313.326 36.3933 312.105C36.2827 310.852 36.56 309.429 37.4165 308.469C38.8735 306.836 40.8786 306.69 42.9276 306.598Z" fill="#FEFEFE"/>
<path d="M120.145 306.604C137.553 305.813 155.248 306.239 172.683 306.378C177.598 306.417 188.694 305.851 193.106 307.042C194.237 307.347 195.333 308.53 195.809 309.573C196.363 310.785 196.304 312.271 195.762 313.475C195.05 315.059 193.974 315.815 192.401 316.43C177.964 316.85 163.44 316.477 148.996 316.462C139.914 316.452 130.741 317.023 121.674 316.501C120.632 316.44 119.559 316.266 118.607 315.82C117.583 315.342 116.783 314.491 116.428 313.412C115.941 311.933 116.281 310.149 117.029 308.813C117.775 307.482 118.741 307.051 120.145 306.604Z" fill="#C6FEE4"/>
<path d="M41.0534 288.557C56.9792 288.056 72.9601 288.432 88.8935 288.428L108.388 288.42C111.59 288.419 114.914 288.22 118.101 288.452C119.397 288.547 120.71 288.837 121.89 289.395C123.36 290.091 124.619 291.279 125.144 292.847C125.49 293.882 125.459 294.985 124.912 295.95C123.874 297.783 121.9 298.616 119.953 299.074C108.748 299.766 97.1979 299.194 85.953 299.248C70.5452 299.321 55.2282 299.894 39.8203 299.147C38.4781 298.07 37.3235 297.12 36.7314 295.454C36.2796 294.182 36.2372 292.736 36.8738 291.519C37.7513 289.844 39.3502 289.135 41.0534 288.557Z" fill="#FEFEFE"/>
<path d="M39.995 324.626C55.9275 323.89 72.126 324.479 88.0906 324.484L113.057 324.475C120.251 324.453 128.767 323.496 135.691 325.513C136.111 325.958 136.424 326.395 136.688 326.945C137.293 328.209 137.376 329.577 136.872 330.891C136.192 332.666 134.872 333.605 133.208 334.377C113.288 334.759 93.3622 334.421 73.4413 334.493C63.0911 334.529 51.767 335.943 41.5514 334.303C39.815 334.024 37.5881 333.473 36.6252 331.815C35.9479 330.651 35.8689 329.488 36.2772 328.22C36.8734 326.368 38.3579 325.468 39.995 324.626Z" fill="#FEFEFE"/>
<path d="M40.8428 342.655C60.3133 342.174 79.8549 342.511 99.3335 342.514C105.683 342.515 130.352 341.689 135.014 343.235C136.264 343.649 137.537 344.384 138.038 345.674C138.5 346.861 138.2 348.216 137.739 349.35C136.903 351.402 135.34 352.392 133.39 353.258C115.161 353.493 96.9559 353.206 78.7282 353.242C66.9199 353.265 54.7865 353.952 43.0172 353.156C41.8519 353.078 40.7243 352.885 39.6535 352.398C38.1147 351.699 36.8593 350.538 36.2848 348.922C35.8836 347.794 35.9316 346.617 36.5057 345.556C37.4173 343.872 39.0935 343.155 40.8428 342.655Z" fill="#FEFEFE"/>
<path d="M17.8631 263.028C19.9636 263.251 22.3185 263.259 24.3722 263.653C23.8628 283.638 24.2588 303.719 24.284 323.714C24.2777 331.755 24.3232 339.795 24.4206 347.835C24.4652 351.723 24.2416 355.77 24.648 359.63C24.8182 361.247 25.2884 362.911 26.3873 364.152C27.1642 365.03 28.1163 365.715 29.0905 366.352L78.6131 366.501C106.858 366.955 135.102 366.939 163.346 366.454L163.257 367.187C162.055 367.118 160.723 366.88 159.637 367.476C158.76 368.423 158.566 369.579 158.24 370.789C160.043 371.278 161.27 371.836 162.842 372.835C163.264 373.103 163.707 373.164 164.186 373.264L70.6831 372.974C62.9667 372.943 55.2502 372.956 47.5337 373.011C41.8978 373.1 36.1202 373.608 30.5082 373.017C27.1742 372.666 24.385 372.037 21.8432 369.674C19.4338 367.433 18.5162 364.814 18.0662 361.633C17.481 357.497 17.7058 353.205 17.7264 349.038L17.8337 330.647C17.9471 308.129 18.253 285.541 17.8631 263.028Z" fill="url(#paint7_linear_2703_369)"/>
<path d="M335.714 306.021C339.174 313.383 341.46 321.311 343.899 329.059C347.33 340.015 350.679 350.996 353.948 362.002C360.379 344.736 366.943 327.252 372.482 309.683C373.444 330.972 371.556 352.405 371.974 373.731C372.446 392.904 373.457 412.049 375.008 431.165C376.559 450.281 378.647 469.338 381.273 488.337C383.444 504.186 385.683 519.988 388.846 535.675C393.37 533.989 397.883 533.066 402.638 532.361C409.788 524.569 417.704 518.735 428.016 515.868C428.449 515.746 428.883 515.629 429.318 515.518C429.754 515.407 430.191 515.302 430.63 515.201C431.068 515.101 431.507 515.006 431.948 514.917C432.388 514.828 432.83 514.744 433.272 514.666C433.715 514.588 434.158 514.515 434.603 514.448C435.047 514.38 435.493 514.319 435.939 514.263C436.384 514.206 436.831 514.155 437.278 514.11C437.725 514.065 438.173 514.026 438.621 513.992C439.07 513.958 439.518 513.929 439.967 513.906C440.416 513.884 440.865 513.866 441.314 513.854C441.764 513.843 442.213 513.837 442.663 513.836C443.112 513.836 443.561 513.841 444.011 513.852C444.46 513.862 444.909 513.878 445.359 513.9C445.807 513.922 446.256 513.949 446.704 513.982C447.153 514.015 447.6 514.053 448.047 514.098C448.495 514.142 448.942 514.191 449.388 514.246C449.834 514.301 450.279 514.362 450.724 514.428C451.168 514.494 451.612 514.566 452.055 514.643C452.498 514.72 452.94 514.803 453.38 514.892C453.821 514.98 454.261 515.073 454.7 515.172C455.138 515.272 455.575 515.376 456.011 515.486C456.447 515.596 456.881 515.712 457.313 515.832C457.747 515.953 458.178 516.079 458.608 516.211C459.038 516.342 459.466 516.479 459.892 516.621C460.319 516.763 460.744 516.911 461.166 517.064C461.589 517.216 462.01 517.374 462.428 517.537C462.847 517.701 463.264 517.869 463.679 518.042C464.094 518.215 464.506 518.394 464.916 518.578C465.326 518.762 465.734 518.95 466.14 519.145C466.545 519.338 466.948 519.537 467.349 519.741C467.749 519.945 468.147 520.154 468.543 520.368C468.938 520.581 469.331 520.8 469.721 521.024C484.306 529.302 490.899 541.864 495.242 557.51C500.926 557.342 506.852 557.732 512.395 559.012C529.541 562.971 541.1 574.367 550.133 588.901C563.407 597.704 567.924 603.838 572.285 619.273C582.351 619.284 591.87 620.284 599.368 627.721C602.903 631.226 604.906 635.427 605.396 640.374C605.385 641.25 605.356 642.122 605.222 642.988C604.367 648.492 600.894 652.611 596.523 655.774C577.75 669.358 540.445 675.115 517.955 678.3C448.984 688.067 377.675 689.226 308.154 687.069C266.109 685.764 221.824 683.374 180.319 676.49C162.85 673.592 116.885 665.468 106.505 650.312C104.805 647.831 103.926 644.905 104.594 641.918C105.78 636.614 110.671 633.192 114.935 630.407C119.868 624.53 127.832 622.747 135.113 622.091C137.963 618.161 141.021 614.401 144.288 610.81C145.707 605.698 148.17 600.863 151.057 596.434C161.607 580.256 177.059 572.302 195.532 568.442C191.622 556.848 191.511 544.325 196.16 532.92C196.499 532.104 196.858 531.296 197.236 530.498C197.614 529.699 198.011 528.91 198.428 528.131C198.844 527.352 199.279 526.583 199.733 525.825C200.187 525.067 200.659 524.321 201.15 523.586C201.64 522.851 202.148 522.128 202.674 521.417C203.199 520.707 203.742 520.01 204.301 519.326C204.861 518.643 205.437 517.973 206.029 517.317C206.621 516.661 207.229 516.021 207.852 515.394C208.475 514.768 209.113 514.157 209.766 513.562C210.419 512.967 211.087 512.388 211.768 511.826C212.449 511.263 213.144 510.717 213.851 510.188C214.56 509.66 215.28 509.148 216.013 508.655C216.745 508.161 217.49 507.686 218.246 507.229C219.002 506.771 219.768 506.332 220.546 505.912C221.323 505.492 222.11 505.091 222.907 504.71C223.704 504.328 224.509 503.966 225.324 503.623C238.377 498.133 253.516 497.396 266.703 502.843C280.747 508.644 290.081 518.629 295.838 532.512C304.428 532.314 311.738 533.992 319.673 537.114C322.499 520.015 325.792 503 328.19 485.832C330.736 467.466 332.77 449.043 334.29 430.564C335.81 412.085 336.815 393.578 337.305 375.043C338.005 352.259 338.29 328.689 335.714 306.021Z" fill="#00FE58" fill-opacity="0.988235"/>
<path d="M210.131 614.628C215.621 605.076 223.613 598.025 234.418 595.148C234.981 595.003 235.547 594.872 236.117 594.754C236.686 594.637 237.258 594.533 237.833 594.444C238.407 594.354 238.984 594.279 239.562 594.217C240.14 594.156 240.72 594.108 241.3 594.076C241.881 594.042 242.462 594.023 243.043 594.019C243.625 594.014 244.206 594.024 244.787 594.048C245.368 594.071 245.948 594.109 246.528 594.162C247.107 594.214 247.684 594.28 248.26 594.361C248.836 594.441 249.41 594.535 249.981 594.643C250.552 594.752 251.12 594.875 251.685 595.011C252.251 595.147 252.813 595.297 253.371 595.461C253.929 595.625 254.482 595.802 255.032 595.992C255.581 596.183 256.125 596.387 256.665 596.605C257.204 596.822 257.738 597.053 258.265 597.296C258.794 597.539 259.316 597.795 259.831 598.064C260.346 598.334 260.855 598.615 261.357 598.909C261.852 599.203 262.34 599.508 262.821 599.825C263.301 600.142 263.773 600.471 264.237 600.812C264.701 601.152 265.157 601.503 265.604 601.865C266.051 602.228 266.489 602.602 266.918 602.986C267.347 603.37 267.766 603.764 268.175 604.169C268.584 604.573 268.984 604.988 269.373 605.412C269.762 605.836 270.141 606.27 270.509 606.712C270.877 607.155 271.234 607.607 271.579 608.067C271.925 608.527 272.26 608.995 272.583 609.472C272.905 609.948 273.216 610.432 273.516 610.924C273.815 611.416 274.102 611.915 274.376 612.42C274.651 612.926 274.914 613.438 275.163 613.957C275.413 614.476 275.65 615 275.874 615.53C276.098 616.06 276.309 616.596 276.507 617.137C276.705 617.677 276.889 618.222 277.06 618.772C277.231 619.321 277.389 619.875 277.533 620.432C278.373 623.676 278.638 626.921 278.637 630.261C286.323 626.251 293.863 624.106 302.435 626.783C309.724 629.061 315.877 634.706 319.294 641.474C320.124 643.117 320.8 644.853 321.406 646.588C278.598 646.278 235.79 646.266 192.982 646.55C180.74 646.617 168.499 646.546 156.258 646.338C150.508 646.297 144.061 647.09 138.45 645.949C137.81 645.017 137.856 644.3 138.061 643.197C138.463 641.031 139.78 638.472 139.763 636.342C144.696 630.465 152.66 628.682 159.941 628.026C162.791 624.096 165.849 620.335 169.116 616.744C178.821 610.857 188.067 607.422 199.512 610.219C203.262 611.136 206.786 612.719 210.131 614.628Z" fill="#C6FEE4"/>
<path d="M467.514 593.153C470.992 587.572 475.349 582.627 480.942 579.096C493.08 571.434 502.402 573.201 515.461 576.225C528.735 585.028 533.252 591.162 537.613 606.597C547.679 606.609 557.197 607.608 564.696 615.045C568.231 618.55 570.234 622.751 570.724 627.698L448.45 627.635L414.845 627.635C410.078 627.662 405.227 628.086 400.477 627.895C398.845 627.829 396.711 627.81 395.379 626.787C395.021 626.026 394.88 625.47 395.021 624.623C395.951 619.032 400.09 613.223 404.617 609.941C410.603 605.6 416.769 605.229 423.863 606.346C427.168 599.567 433.102 593.837 440.145 591.056C449.487 587.367 458.605 589.293 467.514 593.153Z" fill="#C6FEE4"/>
<defs>
<linearGradient id="paint0_linear_2703_369" x1="175.448" y1="459.268" x2="148.867" y2="471.143" gradientUnits="userSpaceOnUse">
<stop stop-color="#B97BDE"/>
<stop offset="1" stop-color="#9764F6"/>
</linearGradient>
<linearGradient id="paint1_linear_2703_369" x1="310.026" y1="245.364" x2="296.173" y2="212.335" gradientUnits="userSpaceOnUse">
<stop stop-color="#008D60"/>
<stop offset="1" stop-color="#13D688"/>
</linearGradient>
<linearGradient id="paint2_linear_2703_369" x1="396.866" y1="244.056" x2="414.548" y2="216.802" gradientUnits="userSpaceOnUse">
<stop stop-color="#008B5F"/>
<stop offset="1" stop-color="#15D98E"/>
</linearGradient>
<linearGradient id="paint3_linear_2703_369" x1="129.1" y1="268.06" x2="130.951" y2="239.314" gradientUnits="userSpaceOnUse">
<stop stop-color="#6955C7"/>
<stop offset="1" stop-color="#AB6DFC"/>
</linearGradient>
<linearGradient id="paint4_linear_2703_369" x1="591.427" y1="262.988" x2="596.485" y2="295.191" gradientUnits="userSpaceOnUse">
<stop stop-color="#7147D3"/>
<stop offset="1" stop-color="#8C69D6"/>
</linearGradient>
<linearGradient id="paint5_linear_2703_369" x1="510.148" y1="393.639" x2="678.654" y2="266.496" gradientUnits="userSpaceOnUse">
<stop stop-color="#0BCF77"/>
<stop offset="1" stop-color="#4DF898"/>
</linearGradient>
<linearGradient id="paint6_linear_2703_369" x1="45.0249" y1="383.444" x2="194.239" y2="245.145" gradientUnits="userSpaceOnUse">
<stop stop-color="#0ECD75"/>
<stop offset="1" stop-color="#47F992"/>
</linearGradient>
<linearGradient id="paint7_linear_2703_369" x1="17.9753" y1="318.017" x2="162.64" y2="319.088" gradientUnits="userSpaceOnUse">
<stop stop-color="#0BA45F"/>
<stop offset="1" stop-color="#0FD36C"/>
</linearGradient>
</defs>
</svg>
